<svg xmlns="http://www.w3.org/2000/svg" width="448" height="352" viewBox="0 0 448 352"><g><g><g><g><path fill="#8c9297" d="M272.377 351.906c.314 0 .78-.07 1.08-.157.153-.048.401-.148.545-.217.109-.048 96.956-55.965 96.956-55.965a3.343 3.343 0 0 0 1.018-.928c.13-.17.248-.344.335-.5.092-.157.231-.423.332-.776.104-.326.165-.661.165-.997v-2.834l19.747-11.4c.112-.065.217-.139.322-.213.309-.235.774-.714.98-1.045.335-.592.5-1.128.544-1.672l.008-6.47a5.19 5.19 0 0 0-.052-.632 4.265 4.265 0 0 0-.54-1.376c-.052-.117-.283-.418-.557-.675a3.867 3.867 0 0 0-.54-.426l31.398-18.123c.087-.052.179-.108.27-.174 0 0 .24-.183.296-.23l-.004-.005c.318-.287.64-.67.819-.984.256-.5.374-.88.43-1.271.027-.157.044-.397.044-.553v-60.328l20.204-11.665c.396-.23.753-.562 1.023-.94.13-.166.248-.34.331-.497.091-.152.23-.414.33-.77.11-.323.162-.663.162-.998v-2.713a4.08 4.08 0 0 0-.135-1.001 4.687 4.687 0 0 0-.431-.98c-.074-.1-.275-.378-.331-.435a1.939 1.939 0 0 0-.148-.166s-.196-.182-.3-.265a3.244 3.244 0 0 0-.715-.475l-14.817-8.565-33.083-22.372 16.837-9.723c.392-.226.74-.544 1.01-.914.136-.174.253-.348.345-.51.03-.047.204-.33.33-.766a3.37 3.37 0 0 0 .166-1.01v-2.464c0-.118-.013-.323-.027-.44a4.223 4.223 0 0 0-.409-1.315 2.61 2.61 0 0 0-.109-.187 3.545 3.545 0 0 0-.517-.662 4.825 4.825 0 0 0-.61-.501L297.807 45.904a4.113 4.113 0 0 0-.201-.34l-2.007-3.021-.004-11.226a3.69 3.69 0 0 0-.044-.374 4.608 4.608 0 0 0-.344-1.08c-.357-.644-.75-1.075-1.237-1.406-.091-.061-8.238-4.768-8.238-4.768a3.434 3.434 0 0 0-.352-.192c-.419-.191-1.102-.357-1.564-.357a4.18 4.18 0 0 0-1.08.152c-.282.083-.679.266-.927.427l-7.973 4.598a5.511 5.511 0 0 0-.465.327 3.584 3.584 0 0 0-.423.387c-.004.01-.252.314-.261.331-.048.061-.191.283-.205.305a3.67 3.67 0 0 0-.457 1.354s-19.385-11.19-19.459-11.225a2.81 2.81 0 0 0-.387-.17l-.079-.026a3.182 3.182 0 0 0-1.115-.204h-.078a3.406 3.406 0 0 0-1.332.243 3.48 3.48 0 0 0-.536.244l-19.65 11.343-51.877-29.948a4.676 4.676 0 0 0-.418-.218 4.52 4.52 0 0 0-.391-.135 3.425 3.425 0 0 0-.706-.135 3.643 3.643 0 0 0-1.75.266v.004a3.26 3.26 0 0 0-.627.326l-29.383 16.956-2.26-1.302a3.705 3.705 0 0 0-.923-.366 3.484 3.484 0 0 0-1.014-.157c-.23 0-.492.03-.719.079l-7.276 1.036a6.041 6.041 0 0 0-.557.122 3.78 3.78 0 0 0-.631.266c-.078.039-.392.23-.418.252l-29.13 20.073c-.24.161-.558.449-.745.666a4.525 4.525 0 0 0-.461.701c-.1.144-.253.55-.335.971-.04.2-.07.51-.07.714v2.665l-97.83 56.475c-.14.078-.371.239-.493.34-.091.073-.326.3-.361.334a3.694 3.694 0 0 0-.967 2.012 6.407 6.407 0 0 0-.039.523v2.481c0 .453.104.92.292 1.337.083.205.174.392.27.549.087.157.244.4.492.662.16.183.344.348.535.483l4.86 2.822v10.624l-.292.174a3.432 3.432 0 0 0-.4.27c-.088.065-.301.248-.301.248-.1.096-.192.2-.28.305a3.518 3.518 0 0 0-.586.95 4.345 4.345 0 0 0-.288 1.432v32.613l-2.395 1.38c-.126.07-.244.148-.357.231a4.209 4.209 0 0 0-.344.274c-.161.144-.305.305-.435.48-.087.113-.17.23-.235.33-.21.379-.301.601-.375.85a4.028 4.028 0 0 0-.152.831l-.009 30.01c0 .165.017.422.044.583.06.374.24.901.426 1.232.222.431.627.888 1.12 1.228l.265.174 116.384 67.195v10.262c0 .588.24 1.437.544 1.938.192.33.492.675.858.967.1.082.209.156.322.23l61.534 35.531c.192.113.436.222.67.305l.34.096s.175.034.261.047c.201.04.401.057.606.057.353 0 .71-.057 1.062-.161.11-.035.257-.091.397-.148a3.22 3.22 0 0 0 .387-.192l8.887-5.133 76.408 44.117c.235.135.61.291.87.361.275.078.702.135.985.135z"/></g></g><g><g><path fill="#fff" d="M3.186 103.693v-.004l.005-.004a.496.496 0 0 1 .104-.266H3.3v-.004h.005v-.005h.004l.03-.039h.005v-.004h.004l.005-.005.009-.008c.03-.022.06-.048.095-.066l99.416-57.397v-4.494a.49.49 0 0 1 .013-.108.416.416 0 0 1 .057-.153.318.318 0 0 1 .065-.087.49.49 0 0 1 .1-.091l29.152-20.086.022-.018a.49.49 0 0 1 .117-.056l.1-.022 7.511-1.08c.07-.013.127.03.192.048.048.009.095-.009.14.017l.051.026v.005l3.845 2.216 31.146-17.983c.03-.017.065-.03.096-.043a.427.427 0 0 1 .178-.03l.053.003H175.753l.009.005c.035.008.07.017.1.035h.004l.057.03 53.466 30.867 21.235-12.257.04-.004c.039-.022.073-.044.117-.053a.47.47 0 0 1 .191-.004H250.985l.005.004.013.005.03.009.079.026.004.004h.004l.005.004h.004l.005.005.008.004 24.023 13.868v-4.985l.004-.013c0-.083.017-.166.06-.244l.014-.018v-.004l.004-.004h.004v-.005l.005-.004.004-.009.005-.008.013-.014.004-.008.004-.005.009-.004v-.004l.009-.009.004-.004.005-.005.008-.004a.473.473 0 0 1 .105-.083l8.094-4.676c.04-.026.083-.04.126-.057h.005a.34.34 0 0 1 .091-.017.427.427 0 0 1 .283.052h.005l.004.004h.005l.004.005.013.008 8.103 4.681.017.009.005.004c.083.052.139.118.183.196v.005a.566.566 0 0 1 .052.174v.004h.004v12.04l2.547 3.836.005.004.009.013.004.004v.01h.004v.003l.022.04c.022.048.008.091.013.139.009.026.035.048.035.078v.357l118.243 68.275.022.008a.477.477 0 0 1 .113.096c.026.022.044.052.061.083l.004.004v.005l.005.004c.03.052.048.109.06.17l.005.087v2.473c0 .026-.022.043-.026.065-.009.07-.04.118-.074.179-.035.056-.061.109-.118.152-.017.013-.017.04-.039.052L392.08 131.9l37.48 25.337 15.019 8.674.022.013c.047.026.09.06.126.109l.004.004.03.04a.542.542 0 0 1 .087.295v2.713c0 .026-.026.044-.026.065a.478.478 0 0 1-.074.174c-.034.062-.06.114-.117.153-.017.017-.022.043-.044.057l-21.793 12.583v62.166l-.004.082a.492.492 0 0 1-.052.166v.004a.554.554 0 0 1-.166.183l-.043.026-36.153 20.874 4.585 2.652.034.022a.32.32 0 0 1 .079.06c.03.027.056.062.078.097.03.052.057.113.07.174l.009.1V274.959a.53.53 0 0 1-.07.23.52.52 0 0 1-.157.165l-.039.022L369.63 287.7v4.667c0 .026-.021.04-.026.066-.008.065-.039.113-.074.174-.035.06-.06.109-.117.152-.018.013-.018.044-.04.057l-96.728 55.843-.01.008c-.034.014-.069.03-.1.04a.49.49 0 0 1-.157.021.512.512 0 0 1-.265-.07l-77.997-45.03-10.477 6.047-.017.01a.305.305 0 0 1-.113.043.431.431 0 0 1-.126.021c-.04-.017-.118-.008-.179-.026a.286.286 0 0 1-.082-.039l-.018-.009-61.408-35.456-.06-.035a.561.561 0 0 1-.136-.152.468.468 0 0 1-.074-.235V261.656L3.452 193.547l-.044-.03a.552.552 0 0 1-.165-.183v-.005a.482.482 0 0 1-.052-.165l-.005-.083v-29.783c0-.048.009-.087.018-.126a.43.43 0 0 1 .048-.113.376.376 0 0 1 .087-.113v-.005a.57.57 0 0 1 .1-.078l.013-.009 4.032-2.325v-34.446c0-.074.013-.144.043-.214a.528.528 0 0 1 .105-.139l.009-.017.008-.013a.516.516 0 0 1 .1-.07l1.886-1.089v-14.295l-6.192-3.574c-.022-.013-.022-.04-.043-.053-.053-.043-.079-.091-.114-.152-.034-.061-.065-.109-.074-.179-.004-.021-.026-.039-.026-.065v-2.525z"/></g></g><g><g><g><path fill="#8c9297" d="M145.016 251.868l-9.77-5.639v-36.031l9.77 5.639zm1.006 1.075a.461.461 0 0 0 .026-.187v-37.285a.481.481 0 0 0-.06-.179.514.514 0 0 0-.157-.178l-.048-.026-10.786-6.231a.434.434 0 0 0-.13-.053v-.004a.424.424 0 0 0-.196-.013.628.628 0 0 0-.188.057.505.505 0 0 0-.174.156.48.48 0 0 0-.082.188.567.567 0 0 0-.013.122v37.246a.515.515 0 0 0 .222.4l.043.026 10.786 6.231a.549.549 0 0 0 .16.057c.035.008.07.013.11.013h.039a.473.473 0 0 0 .209-.065h.004a.455.455 0 0 0 .178-.175.315.315 0 0 0 .053-.1z"/></g><g><path fill="#8c9297" d="M136.064 211.609l8.134 4.702v34.146l-8.134-4.698zm9.606 42.488a1.45 1.45 0 0 0 .514-.165c.209-.118.37-.275.43-.388.092-.118.145-.244.166-.3l.087-.336-.008-37.542-.148-.457c-.092-.174-.231-.326-.519-.531l-10.72-6.192-.736-.222c-.07 0-.143.009-.165.013l-.357.078-.148.088c-.17.104-.314.23-.431.391-.092.14-.161.292-.218.527l-.022.183.005 37.368c.013.21.074.41.2.631.091.14.21.262.47.445l10.795 6.235.26.118.497.06z"/></g></g><g><g><path fill="#8c9297" d="M109.207 182.753l9.771 5.639v17.421l-9.77-5.639zm0 18.614l9.771 5.644v.931l-9.77-5.638zm0 2.13l9.771 5.643v15.287l-9.77-5.638zm-1.014-21.776a.563.563 0 0 0-.018.144v37.211l.005.07a.523.523 0 0 0 .213.365l.048.027 10.785 6.23a.376.376 0 0 0 .131.053.39.39 0 0 0 .14.022l.056-.005a.436.436 0 0 0 .196-.065.413.413 0 0 0 .161-.14.517.517 0 0 0 .1-.317v-37.264a.492.492 0 0 0-.209-.374l-.057-.035-10.785-6.231a.46.46 0 0 0-.152-.06c-.052-.014-.105-.014-.157-.014a.54.54 0 0 0-.218.074h-.004a.494.494 0 0 0-.235.31z"/></g><g><path fill="#8c9297" d="M110.026 184.168l8.134 4.698v15.532l-8.134-4.698zm0 20.744l8.134 4.698v13.407l-8.134-4.699zm9.601 21.74c.196-.017.379-.078.497-.152.183-.096.344-.235.435-.37.109-.14.188-.305.24-.518l.03-.21-.004-37.42a1.313 1.313 0 0 0-.179-.557c-.1-.174-.23-.313-.305-.357l-10.968-6.361a1.52 1.52 0 0 0-.361-.148l-.3-.048-.149.013a1.3 1.3 0 0 0-.531.174 1.285 1.285 0 0 0-.418.374 1.429 1.429 0 0 0-.213.444l-.044 37.56c0 .07.005.148.009.148l.074.361.087.149c.096.17.222.313.505.513l10.79 6.231.675.183z"/></g></g><g><g><path fill="#8c9297" d="M169.849 266.206l-9.771-5.639v-36.035l9.77 5.643zm1.032.893v-37.25a.518.518 0 0 0-.222-.401l-.04-.026-10.789-6.231c-.044-.022-.088-.044-.14-.057h-.004a.45.45 0 0 0-.188-.009.45.45 0 0 0-.178.057.494.494 0 0 0-.244.279.46.46 0 0 0-.03.187v37.202l.004.083a.51.51 0 0 0 .214.357l.047.026 10.786 6.231c.043.026.087.04.13.052l.005.005a.48.48 0 0 0 .135.017l.056-.004c.07-.009.131-.03.188-.057a.506.506 0 0 0 .26-.344c.01-.039.01-.082.01-.117z"/></g><g><path fill="#8c9297" d="M160.896 225.947l8.138 4.703v34.141l-8.138-4.698zm9.471 42.489c.039 0 .126 0 .152-.01l.362-.078.148-.087c.174-.104.318-.23.413-.37.1-.135.174-.296.236-.548l.021-.179-.004-37.372a1.307 1.307 0 0 0-.196-.619c-.091-.147-.218-.283-.47-.457l-10.82-6.248c-.11-.061-.218-.1-.305-.118l-.4-.039-.576.153c-.208.113-.383.278-.444.396a1.183 1.183 0 0 0-.165.3l-.087.331.008 37.551.144.444c.091.183.23.34.518.536l10.803 6.24.662.174z"/></g></g><g><g><path fill="#8c9297" d="M156.895 258.726l-8.695-5.016v-15.293l8.695 5.021zm0-16.486l-8.695-5.02v-.932l8.695 5.02zm0-2.129l-8.695-5.02v-17.413l8.695 5.016zm1.014 19.66a.619.619 0 0 0 .022-.157v-37.207l-.004-.07a.472.472 0 0 0-.065-.196.475.475 0 0 0-.153-.17l-.043-.026-9.719-5.608a.361.361 0 0 0-.118-.052.368.368 0 0 0-.204-.017.436.436 0 0 0-.196.065.463.463 0 0 0-.24.296.404.404 0 0 0-.022.161v37.207l.005.07a.52.52 0 0 0 .213.366l.048.025 9.714 5.609c.04.026.083.043.127.052a.388.388 0 0 0 .14.022l.06-.005a.42.42 0 0 0 .192-.065.461.461 0 0 0 .17-.148.547.547 0 0 0 .073-.152z"/></g><g><path fill="#8c9297" d="M149.018 219.089l7.063 4.08v15.527l-7.063-4.076zm0 20.744l7.063 4.075v13.407l-7.063-4.08zm8.551 21.113c.192-.022.367-.083.501-.165.188-.105.34-.244.414-.366a1.32 1.32 0 0 0 .205-.396l.056-.275-.008-37.503a1.226 1.226 0 0 0-.166-.5c-.096-.175-.235-.327-.5-.505l-9.741-5.622-.265-.109c-.083-.03-.218-.07-.536-.047a1.24 1.24 0 0 0-.523.174 1.261 1.261 0 0 0-.391.352 1.307 1.307 0 0 0-.214.427l-.052 37.582c0 .074.004.139.013.17l.078.37.092.152c.104.174.24.313.492.483l9.714 5.608.675.179z"/></g></g><g><g><path fill="#8c9297" d="M208.04 239.815l9.766 5.639v17.417l-9.766-5.639zm0 18.614l9.766 5.64V265l-9.766-5.639zm0 2.13l9.766 5.638v15.288l-9.766-5.639zm-1.015-21.776a.405.405 0 0 0-.022.144v37.207l.004.078c.01.061.027.122.057.174.044.083.11.157.2.21l10.795 6.23c.039.018.078.04.122.052a.55.55 0 0 0 .143.022l.061-.004c.07-.009.14-.03.2-.065a.528.528 0 0 0 .257-.457v-37.251a.48.48 0 0 0-.074-.235.572.572 0 0 0-.139-.153l-.052-.034-10.79-6.227c-.04-.026-.083-.04-.13-.057a.525.525 0 0 0-.383.048h-.005a.639.639 0 0 0-.161.144.5.5 0 0 0-.083.174z"/></g><g><path fill="#8c9297" d="M208.858 241.23l8.134 4.694v15.536l-8.134-4.698zm0 20.74l8.134 4.702v13.398l-8.134-4.694zm9.623 21.736a1.28 1.28 0 0 0 .514-.17c.17-.1.31-.23.392-.353.117-.148.2-.326.244-.518l.03-.209-.004-37.394a1.371 1.371 0 0 0-.188-.592l-.021-.04-.004-.513h-.597l-10.646-6.148a1.644 1.644 0 0 0-.283-.127l-.384-.06c-.083 0-.16.008-.178.013l-.488.16c-.148.088-.283.201-.422.375a1.213 1.213 0 0 0-.205.414l-.052 37.59c0 .078.004.144.013.191l.13.423c.114.226.292.418.523.553l10.82 6.244.223.109.426.06z"/></g></g><g><g><path fill="#8c9297" d="M71.966 161.252l9.77 5.643v17.417l-9.77-5.639zm0 18.614l9.77 5.643v.928l-9.77-5.635zm0 2.13l9.77 5.638v15.292l-9.77-5.639zm-1.006-21.81a.517.517 0 0 0-.026.182v37.207l.004.078c.009.066.03.13.061.183a.474.474 0 0 0 .144.166l.06.039 10.786 6.226a.642.642 0 0 0 .161.061h.005l.1.009a.472.472 0 0 0 .274-.078.5.5 0 0 0 .227-.31.467.467 0 0 0 .017-.134v-37.25a.514.514 0 0 0-.2-.379l-.07-.044-10.79-6.231c-.03-.022-.06-.03-.1-.044v-.004a.487.487 0 0 0-.235-.022.737.737 0 0 0-.166.052.567.567 0 0 0-.2.183.728.728 0 0 0-.048.105z"/></g><g><path fill="#8c9297" d="M72.784 162.667l8.138 4.698v15.532l-8.138-4.698zm0 20.744l8.138 4.698v13.402l-8.138-4.694zm10.198 21.527l.335-.314c.117-.152.196-.322.222-.452l.052-.244-.004-37.42a1.36 1.36 0 0 0-.2-.619c-.087-.14-.196-.261-.475-.453l-10.685-6.17-.78-.248c-.07 0-.143.009-.187.018l-.418.13a1.37 1.37 0 0 0-.648.74l-.079 37.669c0 .07.004.135.017.213l.144.436c.096.174.227.322.519.522l10.767 6.218.17.152.544.04c.227 0 .484-.074.706-.218z"/></g></g><g><g><path fill="#8c9297" d="M133.099 206.475l38.9 22.459v40.995l-38.9-22.459zm-1.036-.884v42.166l.004.079a.532.532 0 0 0 .2.344l.066.039 39.923 23.055a.523.523 0 0 0 .566-.035l.022-.034c.04-.03.053-.074.079-.113.1-.096.218-.183.218-.327v-42.184l-.005-.065a.533.533 0 0 0-.065-.209.535.535 0 0 0-.153-.161l-.043-.026-39.928-23.056a.528.528 0 0 0-.58.044l-.052.026a.51.51 0 0 0-.157.148.464.464 0 0 0-.07.14.58.58 0 0 0-.025.169z"/></g><g><path fill="#8c9297" d="M133.913 207.89l37.268 21.514v39.114l-37.268-21.523zm38.6 64.268c.28 0 .558-.091.676-.187l.317-.17.066-.196c.143-.139.383-.409.383-.84l-.01-42.336a1.298 1.298 0 0 0-.182-.553c-.104-.165-.235-.305-.483-.466l-39.941-23.06a1.393 1.393 0 0 0-1.38.044l-.066.043a1.394 1.394 0 0 0-.414.388c-.07.1-.121.213-.174.357l-.057 42.575c0 .07 0 .135.01.188l.16.483c.096.165.227.31.31.361l40.133 23.2c.2.109.426.17.653.17z"/></g></g><g><g><path fill="#8c9297" d="M4.218 164.204l9.714 5.613v16.176l-9.714-5.609zm0 17.378l9.963 5.752.013.008 42.98 24.81.013.01 64.238 37.084v11.217L4.218 192.793zm118.24 80.67l60.393 34.87v11.211l-60.394-34.864zm61.429 33.672v-72.66l9.71 5.609v61.447zm0 1.197l9.71-5.604v11.212l-9.71 5.604zm10.746-6.801v-60.85l10.224 5.9v42.044a.527.527 0 0 0 .078.248c.03.048.07.096.122.13l.065.049 15.092 8.712a.51.51 0 0 0 .261.07.503.503 0 0 0 .318-.109.515.515 0 0 0 .305-.47v-41.295L261.374 268c.061.035.127.057.2.065.066.013.131.01.197-.017a.462.462 0 0 0 .126-.052l9.962-5.752v72.663zm0 1.197l77.226 44.588v11.212l-77.226-44.588zm77.475-30.614l-9.958 5.752v-1.285l106.443-61.455v1.284l-96.463 55.695zm.788.74l95.697-55.246v73.255l-95.697 55.255zm0 74.462l95.697-55.256v11.217l-95.697 55.25zm96.733-49.604v-5.003l20.565-11.878v5.007zm20.047-17.778L369.63 280.3v-5.012l15.71-9.07zm-3.818-4.002v-5.303a.553.553 0 0 0-.149-.361.495.495 0 0 0-.108-.087h-.005l-.008-.005-4.586-2.652 40.756-23.53v11.212zm35.9-82.003v48.868l-42.044 24.275-.013.008-1.368.788V207.79l5.413-3.126v15.862a.52.52 0 0 0 .518.518h.004c.04.009.061.061.105.061a.542.542 0 0 0 .257-.07l29.547-17.055.052-.04a.5.5 0 0 0 .214-.383v-16.615zm-28.316 30.201l-6.962 4.015v-13.847l6.962-4.019zm2.622-15.292v-.078l6.165-3.558v.074zm0 1.576v-.379l6.165-3.561v.379zm6.165 8.64l-6.165 3.556v-11.003l6.165-3.557zm9.588-5.535l-6.958 4.019v-13.85l6.958-4.02zm1.59.919L384.89 219.69v-15.688l.553-.318v14.138a.553.553 0 0 0 .109.322c.039.053.087.096.143.127.061.039.13.065.21.073l.056.005a.378.378 0 0 0 .14-.022.48.48 0 0 0 .126-.052l7.981-4.607.052-.035a.479.479 0 0 0 .135-.148.444.444 0 0 0 .078-.235v-14.778l.558-.322v14.142c0 .04.004.074.009.118.017.065.043.13.082.187a.523.523 0 0 0 .357.213l.066.005a.615.615 0 0 0 .178-.03h.005l.082-.04 7.189-4.15.048-.035a.5.5 0 0 0 .213-.352l.005-.079v-14.734l.557-.322v14.146l.009.11.004.004c.013.074.044.139.091.2a.573.573 0 0 0 .153.14c.06.03.126.056.196.065l.065.004c.057 0 .11-.009.166-.03.035-.014.07-.022.1-.044l7.972-4.611.066-.04a.484.484 0 0 0 .2-.343v-.005l.004-.078v-14.73l.558-.323zm30.405-35.966v1.528l-30.136 17.404-.008.004-1.594.915-.008.008-7.986 4.607-.009.009-1.58.914-7.198 4.15-.004.004-1.59.919-7.994 4.615-1.59.92-.03.034-.03.004-.048.026-6.449 3.719-7.929 4.58v-1.532zm-.518-.897l-73.665 42.527v-5.86a.461.461 0 0 0-.021-.135v-.018l-.005-.017a.488.488 0 0 0-.226-.287l-.005-.005h-.004l-8.4-4.855 68.314-39.44zm-14.983-8.726l-68.378 39.48-39.912-23.043 71.515-41.291zm-22.55-44.54L257.193 50.907l-5.569-26.796 23.535 13.59v5.8l-2.543 3.836a.612.612 0 0 0-.065.13l-.005.009v.009a.596.596 0 0 0-.021.148v5.908c0 .027.026.04.03.066a.438.438 0 0 0 .07.174c.035.06.06.113.117.152.018.018.022.044.044.057l10.737 6.205.066.03.091.03 10.734 2.652a.419.419 0 0 0 .126.018.506.506 0 0 0 .335-.14c.03-.026.043-.065.065-.1.035-.052.083-.091.1-.152.005-.022-.013-.04-.008-.065 0-.022.025-.035.025-.061V49.183zM293.804 47.454l-9.497 5.482v-4.293l7.433-4.293zm-2.421-4.093l-7.076 4.084v-10.95l7.076-4.076zm-.514-11.839l-7.076 4.08-7.08-4.08 7.08-4.093zm-17.09 15.932l2.06-3.104 7.436 4.293v4.293zm2.416-15.04l7.08 4.085v10.946l-7.08-4.084zm17.826 29.335l-9.714-2.403v-5.217l9.714-5.608zm-20.46-13.224l9.714 5.609v4.72l-9.714-5.613zm-43.316-12.932l20.278-11.704 5.638 27.127L181.3 94.24 51.575 138.75l3.967-2.291.008-.004 2.099-1.21 67.112-23.766.1-.044 40.73-23.517 11.216-2.107h.009v-.005l2.046-.379.03-.004.075-.022 38.935-14.464.009-.005a.309.309 0 0 0 .104-.056h.004v-.005h.01l.003-.004h.005v-.004h.004a.529.529 0 0 0 .126-.153.472.472 0 0 0 .066-.196v-.004a.462.462 0 0 0-.018-.205v-.013l-2.255-6.723c-.022-.06-.083-.091-.118-.135-.043-.052-.056-.117-.117-.148l-3.732-2.16 27.471-15.858.009-.004.008-.004h.005l.009-.01.012-.008a.536.536 0 0 0 .083-.065l.009-.013s-.013.035.009-.004a.48.48 0 0 0 .109-.196l.004-.01c.017-.064.022-.13.017-.195l-.009-.048v-.009l-.004-.013v-.004l-.004-.017-.004-.01v-.004l-.005-.008-.017-.048-.004-.005v-.008l-.005-.009-.004-.004-.005-.013-.004-.005-.004-.008s.013.043-.009-.01a.442.442 0 0 0-.078-.1h-.005zm4.742 5.918l-38.204-24.245 32.295 18.64zm3.24 3.278L210.956 60.53l-65.684-37.925 30.371-17.53zM134.117 21.59l5.86-.84 3.99 2.299.008.004L210.7 61.575l4.341 2.508 1.755 5.238zm-1.533.31l83.923 48.453-37.685 13.995-74.467-42.998zm-28.677 20.39l73.395 42.38-.496.091-72.899-42.092zm0 1.572l71.335 41.191-9.823 1.846-61.512-15.867zm-1.036 3.226v24.345c0 .052.04.083.052.126.022.07.03.122.075.179a.521.521 0 0 0 .156.117c.04.022.056.07.105.079l60.789 15.68-39.571 22.846-119.023-7.128zM5.856 104.39l116.17 6.958-64.538 22.855zm-1.638.253L56.4 134.769l-1.11.64-36.27-20.935-.005-.004-.009-.004-4.297-2.482-4.298-2.482-.018-.009-6.174-3.566zm6.449 6.204l3.265 1.886v14.935l-3.265-1.886zM9.635 125.74v.344c0 .026.022.039.026.065.009.065.04.113.07.174.034.061.065.11.117.153.022.013.022.043.044.056l4.289 2.478.052.026a.533.533 0 0 0 .418.004l.065-.035 4.29-2.473c.021-.013.021-.043.043-.056a.507.507 0 0 0 .117-.153c.03-.06.061-.109.07-.174.004-.026.03-.039.03-.065v-.344l.597.344-5.417 3.122-5.412-3.122zm5.33 60.254v-16.18l9.714-5.609v16.18zm41.957 24.819l-41.44-23.922 9.972-5.757c.022-.013.026-.039.044-.056.056-.044.082-.092.117-.153a.456.456 0 0 0 .07-.174c.004-.026.03-.04.03-.065v-12.11l31.207-18.017zm-41.957-80.71l5.416-3.122v36.031l-5.416 3.126zm-6.45-3.127l5.417 3.127v36.035l-5.416-3.126zm6.45-13.646l3.265 1.881v10.572l-3.265 1.886zm41.438 36.332l-30.688 17.717v-4.075a.475.475 0 0 0-.04-.183c-.02-.057-.06-.1-.1-.144l-.026-.039-.017-.022v-.004c-.026-.018-.052-.04-.082-.057l-4.037-2.325v-34.446a.452.452 0 0 0-.048-.214.473.473 0 0 0-.1-.148l-.004-.008-.005-.005v-.004c-.035-.026-.07-.052-.109-.074l-1.88-1.089v-8.73l34.986 20.2-7.82 4.51-.01.01-.008.003a.48.48 0 0 0-.13.118c-.018.022-.018.048-.031.07l-.03.06-.014.036-.017.03-.013.026-.005.1v2.482c0 .026.022.04.027.065.008.066.039.118.07.175a.46.46 0 0 0 .117.152c.022.017.022.044.043.057zm65.022 98.392l-63.472-36.645v-60.854l10.83 6.252v42.01l.004.07a.47.47 0 0 0 .065.195.471.471 0 0 0 .153.17l.043.03 15.096 8.714c.083.043.17.07.262.07.047 0 .078-.057.126-.075a.508.508 0 0 0 .496-.51v-41.29l20.996 12.122v42.044a.604.604 0 0 0 .079.248h.004c.03.052.07.096.118.131h.004l.066.043 15.091 8.718.04-.005zm61.426 47.87l-60.394-34.864v-73.264l60.394 34.873zm-61.722-67.768l-14.068-8.125v-41l14.068 8.12zm-37.242-21.506l-14.068-8.12v-41l14.068 8.125v10.502c0 .022.022.04.022.061-.004.022-.022.044-.022.066zM47.93 141.092l133.527-45.815 19.629 11.334.06.026.049.035 2.042 1.18.057.026.043.03.004.005 4.39 2.534 12.81 7.393 15.57 8.987 41.335 23.866-16.22 113.545zm363.961-24.31l-95.549 55.168-28.102-16.224-4.859-2.804-46.751-26.992-15.576-8.987-12.805-7.398-4.39-2.534-.056-.026-.048-.03-2.042-1.18-.061-.03-.048-.031-19.054-11 74.226-42.858zm-93.402 56.41l-1.11-.64 95.157-54.943v1.285L391.3 131.151v.005h-.004zm49.586 29.826L262.293 264.09l16.115-112.84 4.446 2.57.013.004 4.846 2.804 27.214 15.701 1.154.67 43.594 25.164zm16.746 57.297v5.007l-15.192 8.774v-5.012zm-6.74-2.317l1.885-1.084 4.337 2.504-14.674 8.469v-5.007l8.439-4.873zm-8.452-45.183l7.672-4.429v48.868l-7.672 4.433zm-149.672 72.397l-14.068-8.125v-40.995l14.068 8.12zM122.2 186.45l-.009-.005-.19-.104-15.093-8.717-22.137-12.78-15.104-8.721-11.974-6.915h-.005l-10.48-6.052v-1.29L261.113 265.37v1.285l-40.272-23.252h-.004l-.005-.004-15.096-8.713-22.093-12.758-.022-.013zM7.484 161.722v1.585c0 .026.022.044.026.065.009.07.04.118.074.179.035.057.06.109.117.152.018.013.018.04.04.053l6.44 3.722.052.031a.549.549 0 0 0 .418.004l.065-.039 6.44-3.718c.022-.013.022-.04.044-.053.052-.043.078-.095.113-.156.035-.057.065-.105.074-.175.004-.021.026-.039.026-.065v-1.585l2.748 1.585-9.715 5.608-9.71-5.608zm-4.032 31.825l117.973 68.109v12.14c.005.087.03.17.074.239.03.057.079.105.135.148l.057.035 61.412 35.456.017.01.078.038h.005c.06.018.14.009.179.026.043 0 .082-.008.126-.017a.419.419 0 0 0 .113-.048l.017-.009 10.477-6.048 77.997 45.032a.558.558 0 0 0 .265.074.454.454 0 0 0 .153-.026c.035-.009.07-.026.105-.04l.009-.008 96.724-55.843c.022-.013.026-.04.044-.057.057-.043.082-.091.117-.152s.066-.109.074-.174c0-.026.026-.04.026-.066V287.7l21.336-12.318.035-.027a.494.494 0 0 0 .23-.396v-6.235l-.008-.1a.511.511 0 0 0-.074-.174.47.47 0 0 0-.153-.157l-.034-.022-4.59-2.652 36.158-20.874.043-.026a.554.554 0 0 0 .166-.183v-.004a.492.492 0 0 0 .052-.166l.004-.082v-62.166l21.793-12.583c.022-.013.022-.04.044-.053.056-.043.083-.095.117-.156a.41.41 0 0 0 .07-.175c.004-.021.03-.039.03-.065v-2.713a.542.542 0 0 0-.087-.296l-.03-.039-.004-.004a.398.398 0 0 0-.131-.109l-.017-.013-15.023-8.674-37.48-25.337 21.235-12.261c.022-.01.026-.04.043-.053.057-.043.083-.091.118-.152.034-.061.065-.109.074-.179 0-.021.026-.039.026-.065v-2.469l-.009-.091a.537.537 0 0 0-.057-.17l-.004-.004v-.005h-.004a.446.446 0 0 0-.06-.087c-.036-.035-.07-.07-.114-.091l-.022-.013L295.06 47.985v-.357c0-.03-.03-.048-.035-.078-.005-.048.009-.091-.013-.14l-.022-.038v-.005h-.004v-.009h-.005v-.004l-.013-.013v-.004L292.42 43.5V31.526l-.004-.052v-.017a.566.566 0 0 0-.052-.174l-.005-.005a.51.51 0 0 0-.178-.196l-.009-.004-.013-.004-8.103-4.686-.013-.008-.004-.005h-.005l-.004-.004h-.005a.427.427 0 0 0-.283-.052.34.34 0 0 0-.091.017h-.005c-.043.018-.087.03-.126.057l-8.094 4.68a.458.458 0 0 0-.11.079l-.003.004-.005.005-.004.004-.004.004-.005.01-.009.003-.004.005-.009.009-.008.013-.005.008-.009.009v.004l-.004.005v.004l-.004.004-.013.018a.496.496 0 0 0-.061.244l-.01.017v4.981l-24.017-13.868h-.004l-.004-.004-.005-.005h-.004l-.005-.004h-.004l-.004-.004-.079-.026-.034-.01-.005-.004-.009-.004h-.017a.477.477 0 0 0-.192.004c-.039.01-.078.035-.113.053l-.039.004-21.235 12.257-53.466-30.867-.057-.03h-.004a.262.262 0 0 0-.1-.03l-.009-.005h-.018l-.008-.004h-.017l-.057-.005a.503.503 0 0 0-.174.03c-.03.014-.066.027-.096.044l-31.146 17.983-3.845-2.216-.004-.005-.048-.026c-.043-.026-.091-.008-.14-.017-.064-.017-.121-.061-.19-.048l-7.512 1.08a.38.38 0 0 0-.1.026.295.295 0 0 0-.117.057l-.022.013-29.152 20.086a.421.421 0 0 0-.104.091.416.416 0 0 0-.061.087.41.41 0 0 0-.057.157.426.426 0 0 0-.013.105v4.493L3.456 103.288a.527.527 0 0 0-.1.07l-.004.005-.005.004h-.004v.004H3.34l-.035.04v.004l-.005.004h-.004a.56.56 0 0 0-.109.261v2.547c0 .022.022.04.026.062.01.07.04.117.074.178.035.061.061.109.114.152.021.014.021.044.043.053l6.192 3.579v14.29L7.75 125.63a.409.409 0 0 0-.1.07l-.01.013-.012.017a.615.615 0 0 0-.1.14.518.518 0 0 0-.044.213v34.446l-4.032 2.325-.013.009a.57.57 0 0 0-.1.078h-.005v.005c-.035.03-.06.074-.086.113a.79.79 0 0 0-.044.113.389.389 0 0 0-.018.126v29.866h.005a.482.482 0 0 0 .052.165v.005c.04.07.091.135.166.183z"/></g><g><path fill="#8c9297" d="M196.884 17.07l-.227.375-8.765-5.565zm86.91 11.304l5.443 3.148-5.443 3.14-5.447-3.14zM235.18 41.389l1.593 1.51-1.855-1.175zm55.39-7.56v9.058l-5.443 3.143v-9.06zm-13.56 0l5.448 3.145v9.056l-5.448-3.143zm14.478 11.61l1.154 1.74-7.515 4.342v-2.408zm-15.392 0l6.362 3.674v2.408l-7.516-4.341zm-1.72 4.497l8.082 4.668v2.834l-8.082-4.667zM175.622 6.028l61.029 38.727-25.694 14.83-64.05-36.98zm109.505 48.576l8.077-4.668v10.768l-8.077-1.999zm-32.335-28.877l21.554 12.444v5.086l-2.421 3.644c-.052.079-.096.17-.13.261l-.084 6.38.018.27.06.104c.044.126.101.222.14.296.035.057.087.144.17.24l10.95 6.391-25.145-10.524zm-112.974-4.128l74.544 43.037.97 2.9L136.57 22.06zm79.05 49.533c.096-.16.153-.33.175-.522a1.322 1.322 0 0 0-.057-.584l-2.255-6.735-.401-.601-2.704-1.564 26.06-15.043.414-.11.187-.36c.096-.123.17-.266.213-.419l.035-.139.009-.052.2-.118-.183-.374.044-.07-.066-.57-.409-.044-8.526-8.073 18.35-10.593 5.29 25.441-36.393 21.023v-.466zm-86.244-48.266l81.973 47.322-35.696 13.263-73.016-42.162zm-27.897 22.411l68.2 39.38-7.476 1.406-60.724-15.662zm189.443 18.41l.37.056c.323 0 .623-.122.893-.361l.17-.218a1.2 1.2 0 0 0 .24-.47l.03-12.1 98.375 56.8-110.658-46.32zM102.058 48.504v22.933l-.04.14.231.526.105.131c.139.187.287.266.261.23l.226.206 59.07 15.23-37.63 21.732L8.217 102.68zm303.842 64.42l2.944 1.699-3.131-1.311zM178.892 86.242l39.162-14.487.701-.078-37.72 21.793-95.41 32.735 39.406-13.956 40.847-23.556zm-167.41 26.02l1.632.941v13.05l-1.633-.94zm5.93 3.423v9.627l-1.629.94V114.74zm100.547-3.762L57.57 133.31 9.26 105.413zm-66.371 27.053l-2.073.71 1.899-1.098zM9.334 128.39l3.78 2.181v34.15l-3.78-2.186zm10.228 0v34.145l-3.779 2.186v-34.146zm6.71 34.163l-4.04-2.495v-33.976c0-.2-.044-.383-.118-.545l-.043-.09-1.99-1.377v-6.85l32.539 18.79-6.553 3.779-.296.213a.533.533 0 0 0-.096.11l-.135.165-.183 3.178.017.266.196.387c.03.057.087.153.174.248l9.027 5.304-28.242 16.302v-2.66l-.091-.48c-.066-.165-.157-.282-.17-.282zM256.838 52.766l153.22 64.138-93.716 54.106-132.155-76.295zM5.033 165.62l8.081 4.668v14.29l-8.081-4.663zm18.831 0v14.295l-8.081 4.663v-14.29zm367.64-31.868l35.266 23.835-66.837 38.591-38.279-22.106zM411 189.868v11.965l-5.325 3.079v-11.966zM70.633 158.944l12.436 7.18v39.114l-12.436-7.18zm299.793 43.804l-.23-.505a1.289 1.289 0 0 0-.305-.31l-7.29-4.214 66.681-38.505 12.38 7.15-71.219 41.112v-4.445a1.19 1.19 0 0 0-.017-.218zm-344.55-20.914l.227-.152.226-.362c.03-.056.078-.134.118-.26l.082-12.014 29.574-17.077v57.428L17.115 186.89zm375.54 16.42v9.113l-4.534 2.622v-9.118zm-8.792 2.23v11.96l-5.326 3.075v-11.961zm-284.749-20.039l12.435 7.18v39.114l-12.435-7.18zM58.772 151.97l9.196 5.307v41.54c0 .07.005.135.009.17l.083.365.091.153c.11.174.24.318.488.483l15.126 8.73c.2.11.423.166.64.166l.375-.044.096-.078c.561-.157.97-.67.97-1.28v-39.876l19.364 11.177v41.61c.009.234.083.452.183.609.092.16.213.296.292.344l14.922 8.643v16.65l-61.835-35.7zm324.16 54.11v14.447c0 .623.426 1.145 1.01 1.293l.122.1h.308c.218 0 .436-.056.667-.174l29.54-17.055a1.22 1.22 0 0 0 .12-.079l.358-.383c.113-.183.183-.392.2-.71v-16.106l5.687-3.283v46.982l-41.636 24.04-.156.091V208.26zm-377.9-23.082l115.575 66.72v9.33L5.033 192.325zm371.45 26.805v46.982l-6.039 3.487V213.29zm-10.04-6.784l-103.104 59.526 15.71-109.983zM181.374 96.169l95.184 54.955-15.967 111.803L49.894 141.283zm201.262 160.144l38.308-22.12v9.328l-34.272 19.79v-3.893c0-.105-.014-.218-.048-.366l-.144-.322a1.15 1.15 0 0 0-.174-.23l-.331-.258zm-2.67 1.542l2.704 1.563-12.227 7.058v-3.122zm4.04 3.875v3.122l-13.563 7.829v-3.126zm1.333 5.43l2.704 1.563-17.6 10.163v-3.127zm-178.632-29.657l12.431 7.18v39.114l-12.43-7.18zm182.673 33.532v3.122l-18.937 10.93v-3.119zM123.276 189.21l58.76 33.929v71.374l-58.76-33.924zm69.507 40.133v60.507l-8.082 4.663v-69.837zm-69.507 34.325l58.76 33.928v9.327l-58.76-33.929zm69.507 29.264v9.327l-8.082 4.664v-9.327zm174.996-85.125v71.375l-94.069 54.31v-71.375zM195.447 230.88l8.59 4.96.005 41.63c.013.223.079.432.205.636.096.148.209.266.47.44l15.105 8.722c.466.26 1.197.13 1.306-.01.48-.212.789-.691.789-1.214v-39.88l39.044 22.541c.156.092.33.148.461.162l.227.021c.139 0 .278-.026.335-.052l9.061-5.182v69.838l-75.598-43.642zm172.332 51.384v9.332L273.71 345.9v-9.326zm-172.332 10.668l75.598 43.643v9.326l-75.598-43.642zm76.93 56.614c.14 0 .28-.022.305-.04l.183-.03 96.926-55.96.217-.148.057-.105c.087-.095.14-.191.178-.26.035-.062.091-.158.126-.275l.074-4.56 21.018-12.139c.161-.104.296-.252.4-.422.1-.174.166-.375.184-.688v-6.196c0-.074-.01-.157-.022-.244l-.17-.444a1.57 1.57 0 0 0-.2-.261l-3.645-2.156 35.03-20.23c.17-.117.31-.274.41-.452l.104-.192v-.083c.026-.095.043-.213.056-.378v-61.691l21.402-12.357.217-.148.052-.1c.088-.1.144-.196.183-.266.03-.052.074-.135.118-.253l.083-3.096a1.24 1.24 0 0 0-.044-.348l-.261-.505-15.34-8.96-36.402-24.602 20.117-11.613.218-.148.056-.109c.087-.1.144-.192.188-.279.035-.056.087-.152.122-.265l.07-2.822c0-.074-.005-.14-.014-.204l-.056-.57-.501-.336-117.952-68.1-.03-.196.06-.096-.1-.68h-.378l-2.182-3.287-.008-11.908-.349-.88-.178-.013-.027-.018-8.025-4.645-.12-.231h-.35a1.339 1.339 0 0 0-.391-.052c-.105 0-.2.008-.192.013l-7.711 4.35-.218-1.307-.884 1.799h-.305v.383l-.183.126.11.279-.027.113-.03 3.827-22.603-13.05-.118-.23-.753-.057c-.1 0-.205.013-.252.026l-21.232 12.175-52.83-30.493-.004-.318-.897-.008-.1.004-.091.009a.818.818 0 0 0-.249.065l-30.98 17.857-3.492-2.016-.688-.162-7.668 1.076a.68.68 0 0 0-.2.048L102.68 40.26a1.218 1.218 0 0 0-.278.235l-.157.21c-.079.13-.135.278-.157.4l-.03 4.315-98.963 57.132h-.566l-.044.644a.98.98 0 0 0-.095.34l-.022 2.686.017.27.061.105c.044.13.1.226.144.3.03.052.083.144.17.235l6.056 3.588v13.35l-1.45.836-.252.179a1.021 1.021 0 0 0-.153.174l-.174.265a1.337 1.337 0 0 0-.122.558v33.976l-3.44 1.985-.309.188-.117.091-.28.248v.122c-.038.074-.069.153-.117.31l-.034.234.013 30.04.144.449c.1.183.243.344.517.527l117.565 67.878v11.721c.017.218.087.431.178.58.087.147.2.282.5.496l61.322 35.404.16.091c.07.035.14.061.192.079l.422.065c.105 0 .218-.017.292-.04l10.442-5.956 77.57 44.783.227.114.465.078z"/></g></g><g><g><path fill="#8c9297" d="M141.041 136.12l9.714 5.607v39.045l-9.714-5.608zm20.46 26.795l-9.71 16.82v-38.008l9.71-5.608zm-.217-27.867l-9.492 5.482v-4.293l7.433-4.298zm-2.416-4.097l-7.076 4.088v-10.946l7.076-4.084zm-.519-11.84l-7.075 4.085-7.076-4.084 7.076-4.085zm-14.669.898l7.075 4.084v10.946l-7.075-4.088zm-.357 11.93l7.432 4.298v4.293l-9.496-5.482zm-3.314 3.283v40.246c0 .1.03.196.083.28v.003c.044.066.1.122.174.162l10.738 6.191.013.009c.078.048.165.07.257.07.174 0 .305-.1.396-.231.013-.017.039-.009.052-.026l10.742-18.602a.574.574 0 0 0 .06-.17v-.004a.428.428 0 0 0 .014-.104V135.23a.59.59 0 0 0-.013-.126h-.004v-.005a.44.44 0 0 0-.079-.178l-2.538-3.832v-11.978l-.01-.096h-.003v-.018a.495.495 0 0 0-.074-.17v-.004a.4.4 0 0 0-.083-.091l-.004-.004-.01-.01-.003-.004v-.004h-.005l-.009-.009-.004-.004h-.004v-.004h-.004l-.005-.005-.004-.004h-.01l-.003-.004-.027-.018-8.111-4.685h-.005l-.004-.004v-.005a.573.573 0 0 0-.248-.056.526.526 0 0 0-.257.065l-8.108 4.68c-.039.027-.078.053-.113.084v.004h-.004a.877.877 0 0 0-.092.13v.005a.444.444 0 0 0-.039.096v.004l-.005.004v.005c-.004.035-.013.078-.013.117v11.983l-2.547 3.845-.008.009-.005.008c-.017.03-.035.061-.043.096l-.005.005v.008l-.004.005v.008h-.004v.013l-.005.005v.008l-.009.044v.022z"/></g><g><path fill="#8c9297" d="M151.273 115.968l5.443 3.144-5.443 3.143-5.447-3.143zm-6.78 5.456l5.448 3.144v9.056l-5.447-3.143zm13.56 0v9.057l-5.447 3.143v-9.056zm.914 11.608l1.159 1.742-7.52 4.345v-2.412zm-15.388 0l6.362 3.675v2.412l-7.52-4.345zm17.108 4.502v25.164l-8.081 13.99v-34.49zm-18.827 0l8.08 4.668v37.155l-8.08-4.664zm10.28 45.123l11.033-18.932c.07-.126.122-.266.149-.387l.03-28.111c0-.066-.004-.135-.013-.196l-2.621-4.185v-11.734l-.004-.105.056-.026-.244-.579-.022-.527h-.596l-8.16-4.715h-.065c-.34-.11-.697-.088-1.076.113l-8.134 4.694c-.06.039-.113.078-.165.121l-.444-.1-.035 12.858-2.255 3.397h-.357l-.027 41.225c0 .157.031.314.087.466l.362.627h.126l.092.057 10.646 6.144.13.078c.2.105.423.161.64.161.327 0 .627-.126.867-.344z"/></g></g><g><g><path fill="#8c9297" d="M283.795 34.361l-4.93-2.839 4.93-2.848 4.924 2.848zm0 1.115a.442.442 0 0 0 .126-.018c.052-.008.1-.03.148-.06l5.943-3.427.022-.018h.005l.004-.004h.004l.004-.005.005-.008h.004l.005-.005s-.014.005.008-.004l.005-.004.004-.005.005-.004h.004a.554.554 0 0 0 .13-.174.504.504 0 0 0 .048-.21v-.004a.457.457 0 0 0-.07-.265l-.004-.013-.004-.005h-.004v-.004l-.005-.004v-.005l-.035-.043v-.005l-.004-.004h-.004l-.005-.009-.008-.008-.005-.005a.4.4 0 0 0-.113-.082l-5.944-3.436a.311.311 0 0 0-.117-.052l-.004-.004a.512.512 0 0 0-.41.048l-5.952 3.44a.404.404 0 0 0-.122.09l-.004.005a.53.53 0 0 0-.144.366v.009a.552.552 0 0 0 .161.357h.005v.004l.004.004c.03.022.061.048.096.07l5.952 3.427.017.008.005.005c.078.039.161.06.244.06z"/></g><g><path fill="#8c9297" d="M283.794 29.62l3.292 1.902-3.292 1.899-3.296-1.899zm0 6.674c.118 0 .24-.017.318-.039l6.17-3.5.619-.022V32.2c.021-.039.047-.082.065-.126.074-.165.113-.344.122-.527a1.257 1.257 0 0 0-.153-.649l-.34-.766-.356.13-5.687-3.282-.052-.105-.706-.135c-.243 0-.479.07-.666.179l-5.935 3.426-.335.257-.235.353a1.33 1.33 0 0 0-.126.614l.082.418c.048.135.127.266.222.383l.175.349h.257l5.695 3.274.117.24h.353c.126.039.261.06.396.06z"/></g></g><g><g><path fill="#8c9297" d="M296.139 298.928l-9.771 5.639v-15.288l9.77-5.638zm0-16.48l-9.771 5.634v-.932l9.77-5.643zm0-2.134l-9.771 5.639v-17.417l9.77-5.64zm1.032 18.967l.004-.061v-37.211l-.009-.1v-.005a.513.513 0 0 0-.113-.235l-.004-.004a.491.491 0 0 0-.135-.113h-.004a.475.475 0 0 0-.2-.066h-.005c-.018.004-.03-.004-.048-.004a.43.43 0 0 0-.105.013h-.004a.492.492 0 0 0-.157.06l-10.798 6.236a.506.506 0 0 0-.21.23l-.004.005a.371.371 0 0 0-.034.118c-.01.035-.01.07-.01.109v37.202a.505.505 0 0 0 .227.44.513.513 0 0 0 .292.087h.039l.009-.004h.009a.508.508 0 0 0 .213-.07l10.777-6.222c.035-.022.06-.044.091-.065a.473.473 0 0 0 .113-.135v-.005a.546.546 0 0 0 .066-.196z"/></g><g><path fill="#8c9297" d="M295.324 264.312v15.527l-8.138 4.703V269.01zm0 20.744v13.397l-8.138 4.703V289.75zm-8.787 21.74l.053-.217 10.72-6.188.514-.514.021-.048 2.056-3.631-1.912 1.533v-35.722l-.021-.257c-.044-.227-.14-.431-.183-.444l-.65-.57h-.06a1.575 1.575 0 0 0-.418-.07c-.1 0-.205.013-.292.03l-11.195 6.392a1.42 1.42 0 0 0-.548.627c-.026.065-.066.17-.074.235l-.03 37.503a1.347 1.347 0 0 0 .579 1.11c.226.153.482.236.783.236h.017z"/></g></g><g><g><path fill="#8c9297" d="M151.274 121.955l-4.93-2.843 4.93-2.844 4.929 2.844zm0 1.115c.047 0 .1-.009.152-.022a.714.714 0 0 0 .122-.052l5.943-3.436.057-.035h.005v-.004a.502.502 0 0 0 .2-.405v-.009a.544.544 0 0 0-.035-.187.53.53 0 0 0-.222-.257l-5.952-3.435a.405.405 0 0 0-.096-.048h-.004a.47.47 0 0 0-.17-.03.591.591 0 0 0-.188.034v.005h-.004l-.074.034-5.956 3.44a.523.523 0 0 0-.257.444v.009a.506.506 0 0 0 .257.444l5.952 3.436c.035.017.065.035.104.048l.005.004a.65.65 0 0 0 .16.022z"/></g><g><path fill="#8c9297" d="M151.273 117.209l3.297 1.903-3.297 1.903-3.296-1.903zm0 6.68c.14 0 .275-.023.349-.049l6.148-3.505.597-.374v-.14c.039-.065.073-.135.104-.204.061-.161.096-.327.096-.51l-.087-.474a1.374 1.374 0 0 0-.58-.68l-5.882-3.387a1.25 1.25 0 0 0-.283-.153l-.462-.078c-.156 0-.3.026-.452.078l-.549.188-5.63 3.357a1.342 1.342 0 0 0-.6.74 1.504 1.504 0 0 0-.066.418l.078.435c.11.31.318.562.588.714l5.856 3.384.366.174.41.065z"/></g></g><g><g><path fill="#8c9297" d="M284.221 267.3l14.064-8.126v40.995l-14.064 8.12zm15.096 33.244l.004-.087V258.29a.547.547 0 0 0-.07-.27.469.469 0 0 0-.217-.204h-.004c-.035-.018-.074-.027-.113-.035-.153-.074-.322-.1-.48-.018l-15.091 8.717-.061.035a.55.55 0 0 0-.13.153.533.533 0 0 0-.079.24v42.218c0 .2.13.34.296.426.044.035.074.087.122.11l.004.004c.044.013.087.026.135.035h.005l.065.004.1-.009a.484.484 0 0 0 .17-.07l15.083-8.708.056-.035a.496.496 0 0 0 .136-.152h.004v-.005a.661.661 0 0 0 .065-.182z"/></g><g><path fill="#8c9297" d="M297.471 260.59v39.105l-12.436 7.18v-39.106zm-13.724 49.93a1 1 0 0 0 .383-.075l15.483-8.917c.14-.11.253-.235.357-.414.083-.152.135-.305.153-.453l.013-42.349a1.297 1.297 0 0 0-.179-.705 1.316 1.316 0 0 0-.557-.523l-.244-.087a1.29 1.29 0 0 0-1.123.06l-15.231 8.8-.266.245-.083.139c-.109.183-.174.388-.191.701v42.184c0 .435.226.831.614 1.08l.152.152.719.161z"/></g></g><g><g><path fill="#8c9297" d="M343.63 235.822l9.767-5.638v36.031l-9.767 5.639zm-1.032-.374l-.004.087v37.207a.55.55 0 0 0 .07.27c.051.091.13.165.226.204l.004.005c.035.017.074.03.118.039.048 0 .07.009.1.009a.502.502 0 0 0 .222-.053l.035-.017 10.794-6.23a.55.55 0 0 0 .187-.175l.005-.004v-.005a.545.545 0 0 0 .078-.226v-37.264c0-.039 0-.078-.009-.113l-.004-.004v-.004a.474.474 0 0 0-.092-.2l-.004-.005a.42.42 0 0 0-.14-.122.434.434 0 0 0-.217-.074h-.004l-.048-.004a.526.526 0 0 0-.113.013h-.004a.444.444 0 0 0-.149.065l-10.79 6.227-.056.034a.453.453 0 0 0-.135.153h-.004v.004l-.005.004a.577.577 0 0 0-.06.179z"/></g><g><path fill="#8c9297" d="M352.582 231.594v34.15l-8.138 4.699v-34.146zm-9.47 42.493c.204 0 .405-.048.666-.178l10.803-6.24a.911.911 0 0 0 .174-.122l.3-.34c.11-.178.175-.378.197-.705v-37.207l.047-.139-.082-.17a1.412 1.412 0 0 0-.231-.5l-.248-.327-.118-.004a1.202 1.202 0 0 0-.548-.192l-.157-.013h-.009l-.209-.009-.048.04-.043.008-11.273 6.453a1.424 1.424 0 0 0-.305.3l-.183.188v.174c-.022.074-.04.144-.052.222l-.018 37.394c-.004.24.057.483.183.705.035.057.074.114.118.166v.444l1.036.052z"/></g></g><g><g><path fill="#8c9297" d="M331.747 242.68l8.696-5.016v17.417l-8.696 5.02zm0 18.615l8.696-5.016v.931l-8.696 5.02zm0 2.129l8.696-5.016v15.287l-8.696 5.02zm-.9-21.388a.503.503 0 0 0-.131.344v37.224c0 .052.004.105.017.157h.004v.009l.005.004c.008.04.03.078.052.113v.005a.51.51 0 0 0 .387.235l.048.004a.448.448 0 0 0 .13-.017h.005a.524.524 0 0 0 .135-.057l9.71-5.608c.031-.022.057-.035.087-.061.04-.03.074-.07.1-.118l.005-.004v-.004a.453.453 0 0 0 .074-.227l.004-.052v-37.225l-.004-.034v-.013a.528.528 0 0 0-.144-.31l-.004-.004h-.005v-.004l-.008-.009-.004-.004-.035-.026-.005-.005-.009-.008h-.004a.514.514 0 0 0-.244-.088h-.004l-.048-.004c-.035 0-.056.018-.1.009a.473.473 0 0 0-.17.065l-9.705 5.604a.498.498 0 0 0-.122.091l-.005.005-.004.004-.004.005z"/></g><g><path fill="#8c9297" d="M339.628 239.075v15.536l-7.062 4.075v-15.531zm0 20.748v13.398l-7.062 4.08v-13.403zm-8.395 21.122c.11 0 .218-.013.131-.013l10.306-5.808c.062-.04.118-.083.132-.096l.213-.096.074-.23c.117-.184.187-.384.208-.72l-.004-37.267-.039-.27a1.266 1.266 0 0 0-.118-.31v-.557h-.313l-.048-.148-.84.005-.057-.018-10.293 5.796h-.24l-.122.252-.183.118v.2c-.087.174-.139.38-.143.597v37.224c0 .074.004.148.026.24v.748h.4c.087.079.179.144.275.192l.291.152.344.01z"/></g></g><g><g><path fill="#8c9297" d="M355.548 267.46l-38.901 22.46v-41l38.9-22.46zm1.023.397c.009-.04.009-.075.009-.11v-42.17a.535.535 0 0 0-.296-.483h-.005c-.035-.013-.074-.03-.118-.04h-.008a.49.49 0 0 0-.453 0l-39.928 23.052-.048.026a.518.518 0 0 0-.213.366l-.005.07v42.183c0 .279.222.496.497.51.048.012.078.07.126.07a.537.537 0 0 0 .257-.066l39.928-23.056.04-.022.003-.004a.479.479 0 0 0 .18-.218v-.004a.317.317 0 0 0 .034-.104z"/></g><g><path fill="#8c9297" d="M354.73 227.876v39.11l-37.269 21.518V249.39zm-38.6 64.273c.225 0 .447-.061.665-.179l40.024-23.117c.205-.139.366-.335.466-.561l.07-.2.008-.053.035-42.445a1.39 1.39 0 0 0-.187-.714 1.36 1.36 0 0 0-.575-.522l-.335-.118a1.265 1.265 0 0 0-1.01.109l-40.033 23.112a1.367 1.367 0 0 0-.387.423c-.092.156-.148.33-.166.465l-.017 42.402c0 .67.492 1.223.996 1.289l.136.109h.31z"/></g></g><g><g><path fill="#8c9297" d="M318.794 250.16l9.77-5.642v36.035l-9.77 5.64zm-1.032-.286v37.198a.477.477 0 0 0 .07.274c.056.1.148.178.248.218l.004.004h.009l.07.026h.012a.446.446 0 0 0 .3-.03h.014l.009-.005.008-.004.01-.004.003-.005h.005l.013-.008 10.807-6.236a.527.527 0 0 0 .179-.174v-.004a.514.514 0 0 0 .078-.266V243.63c0-.035-.004-.074-.009-.114l-.004-.004v-.004a.545.545 0 0 0-.092-.196l-.004-.005a.492.492 0 0 0-.14-.126.429.429 0 0 0-.217-.07h-.004l-.048-.004a.906.906 0 0 0-.109.009h-.009a.674.674 0 0 0-.152.065l-10.785 6.227-.057.039a.455.455 0 0 0-.135.152h-.005v.005l-.004.004a.571.571 0 0 0-.06.178z"/></g><g><path fill="#8c9297" d="M327.75 245.933v34.15l-8.138 4.694V250.63zm-8.752 42.427h.166l.07-.283 10.52-6.07c.186-.108.347-.265.465-.452.13-.21.2-.453.2-.701V243.63l-.013-.31-.047-.095c-.014-.044-.031-.083-.048-.127l-.406-.605-.134-.013a1.294 1.294 0 0 0-.597-.187l-.092-.005h-.008l-.052-.004-.014.004a1.192 1.192 0 0 0-.221.035l-11.178 6.392-.296-.087-.183.557c-.082.14-.139.292-.17.475l-.017 37.377c-.009.244.052.496.178.718.118.2.28.366.475.484l.157.148.527.034c.078 0 .152-.004.226-.017l.423.1z"/></g></g></g></g></g></svg>