<svg xmlns="http://www.w3.org/2000/svg" width="201" height="55" viewBox="0 0 201 55"><g><g><g><path fill="#ff310c" d="M0 54.695V.6h200.801v54.095z"/></g><g><g><g><path fill="#fff" d="M12.293 41.624V13.672h27.951v27.952z"/></g><g><g><path fill="#ff310c" d="M30.924 18.954H16.07l6.577 8.693h14.855z"/></g><g><path fill="#85101f" d="M37.502 27.647H22.647l-6.577 8.692h14.854z"/></g></g></g><g><g><path fill="#fff" d="M107.53 33.486c1.69 0 2.294-1.118 2.294-2.166 0-1.036-.604-2.143-2.293-2.143h-3.622v4.309h3.622zm-3.621-7.651h3.391c1.422 0 2.27-.75 2.27-2.011 0-1.266-.848-2.016-2.27-2.016h-3.391zm7.212 1.58c.956.483 2.4 1.624 2.4 4.084 0 3.274-2.16 5.304-5.632 5.304h-7.678V18.487h7.368c3.508 0 5.687 1.988 5.687 5.182 0 2.045-1.333 3.3-2.145 3.746zM85.823 30.19c.128-.238 6.436-11.738 6.436-11.738h3.615v18.317h-3.7v-10.94c-.271.478-6.351 11.088-6.351 11.088s-6.11-10.61-6.39-11.09v10.942h-3.696V18.45h3.617s6.33 11.5 6.469 11.738zm-18.32-11.702h3.709v18.316h-3.709zM61.431 32.35l2.577 2.573-.059.057a9.68 9.68 0 0 1-6.33 2.363c-5.406 0-9.804-4.35-9.804-9.696 0-5.347 4.398-9.698 9.804-9.698 2.323 0 4.567.84 6.33 2.364l.059.055-2.577 2.575-.052-.04a5.97 5.97 0 0 0-3.76-1.317c-3.341 0-5.94 2.662-5.94 6.061 0 3.398 2.599 6.058 5.94 6.058a5.976 5.976 0 0 0 3.76-1.314z"/></g><g><g><path fill="#fff" d="M131.392 31.633c0 2.056-1.411 3.366-3.677 3.366h-4.982v-6.707h4.982c2.266 0 3.677 1.283 3.677 3.34zm-.284-8.274c0 2.184-1.57 3.187-3.596 3.187h-4.779v-6.348h4.78c2.025 0 3.595.978 3.595 3.161zm-3.21 13.388c3.238 0 5.448-1.748 5.448-5.063 0-2.184-1.235-3.698-2.985-4.343 1.542-.564 2.7-2.08 2.7-4.005 0-3.06-2.206-4.885-5.394-4.885h-6.886v18.296z"/></g><g><path fill="#fff" d="M143.762 20.713l3.933 9.558h-7.886zm-4.65 11.254h9.302l2.004 4.78h2.156l-7.912-18.193h-1.798l-7.918 18.193h2.162z"/></g><g><path fill="#fff" d="M168.247 33.97h.054V18.555h1.847v18.193h-2.31L156.99 21.176h-.049v15.571h-1.85V18.554h2.317z"/></g><g><path fill="#fff" d="M176.529 26.44h.263l8.557-7.886h2.648l-9.177 8.25 9.688 9.943h-2.725l-8.944-9.378h-.31v9.378h-1.844V18.554h1.844z"/></g></g></g></g></g></g></svg>