<svg xmlns="http://www.w3.org/2000/svg" width="292" height="58" viewBox="0 0 292 58"><defs><linearGradient id="2hdta" x1="-10.95" x2="21.03" y1="32.44" y2="32.44" gradientUnits="userSpaceOnUse"><stop offset="0" stop-color="#fff"/><stop offset=".13" stop-color="#fff3dc"/><stop offset=".43" stop-color="#ffd586"/><stop offset=".85" stop-color="#ffa800"/></linearGradient><linearGradient id="2hdtb" x1="11.63" x2="24.23" y1="37.81" y2="37.81" gradientUnits="userSpaceOnUse"><stop offset="0" stop-color="#fff"/><stop offset=".13" stop-color="#fff3dc"/><stop offset=".43" stop-color="#ffd586"/><stop offset=".85" stop-color="#ffa800"/></linearGradient><linearGradient id="2hdtc" x1="-8.66" x2="7.23" y1="46.86" y2="46.86" gradientUnits="userSpaceOnUse"><stop offset="0" stop-color="#fff"/><stop offset=".13" stop-color="#fff3dc"/><stop offset=".43" stop-color="#ffd586"/><stop offset=".85" stop-color="#ffa800"/></linearGradient><linearGradient id="2hdtd" x1="-2.58" x2="20.76" y1="33.7" y2="33.7" gradientUnits="userSpaceOnUse"><stop offset="0" stop-color="#fff"/><stop offset=".13" stop-color="#fff3dc"/><stop offset=".43" stop-color="#ffd586"/><stop offset=".85" stop-color="#ffa800"/></linearGradient><linearGradient id="2hdte" x1="-7.84" x2="19.81" y1="21.58" y2="21.58" gradientUnits="userSpaceOnUse"><stop offset="0" stop-color="#fff"/><stop offset=".13" stop-color="#fff3dc"/><stop offset=".43" stop-color="#ffd586"/><stop offset=".85" stop-color="#ffa800"/></linearGradient><linearGradient id="2hdtf" x1="-2.89" x2="19.82" y1="16.05" y2="16.05" gradientUnits="userSpaceOnUse"><stop offset="0" stop-color="#fff"/><stop offset=".13" stop-color="#fff3dc"/><stop offset=".43" stop-color="#ffd586"/><stop offset=".85" stop-color="#ffa800"/></linearGradient><linearGradient id="2hdtg" x1="12.96" x2="27.5" y1="7.72" y2="7.72" gradientUnits="userSpaceOnUse"><stop offset="0" stop-color="#fff"/><stop offset=".13" stop-color="#fff3dc"/><stop offset=".43" stop-color="#ffd586"/><stop offset=".85" stop-color="#ffa800"/></linearGradient></defs><g><g><g><path fill="url(#2hdta)" d="M11.789 20.983C7.23 20.971 2.373 24.135.47 31.202.02 34.205-.052 37.135.217 39.88 2.004 46.095 7.28 51.19 21.93 53.32c.892-.723 1.924-1.248 2.74-2.167C-7.797 48.909 1.39 23.506 12.1 23.984c0 0 5.95-.5 10.492 7.482 0 0 4.762 6.81 9.17 8.771.227-.731.464-1.46.648-2.222-4.202-3.121-7.648-8.288-7.648-8.288-6.088-9.812-12.973-8.744-12.973-8.744z"/></g><g><path fill="url(#2hdtb)" d="M15.993 38.43c-2.152-3.641-3.377-5.54-4.443-3.682 0 0-2.993 7.119 14.577 10.275 0 0-7.24-1.712-10.134-6.594z"/></g><g><path fill="url(#2hdtc)" d="M.897 47.346s.378.847.627 1.254c1.113 2.11 2.507 3.884 4.136 5.214 1.99 1.776 4.605 2.57 7.496 2.673 1.851-.034 3.686-.52 5.442-1.402-3.945-.669-11.877-2.675-17.7-7.74z"/></g><g><path fill="url(#2hdtd)" d="M30.174 43.13c-2.15-1-8.34-4.545-12.904-12.265-2.36-3.993-6.553-6.657-9.824-2.259 0 0-12.143 17.748 19.39 20.309.4-.59.713-1.066 1.08-1.703-4.763-.45-20.695-2.772-19.337-13.404 0 0 1.234-7.565 5.21-2.601 0 0 9.263 14 15.519 13.947"/></g><g><path fill="url(#2hdte)" d="M33.538 31.003c-9.997-15.69-20.802-17.268-27.894-13.176-.666 1.04-1.444 2.492-2.006 3.67 1.93-1.322 4.851-3.597 10.462-2.85 0 0 5.886.078 14.131 9.739 0 0 3.891 4.928 5.213 5.972.131-1.03.217-2.052.26-3.057-.052-.1-.103-.201-.166-.298z"/></g><g><path fill="url(#2hdtf)" d="M34.304 26.838c.011-.012.02-.03.03-.045-.135-1.438-.267-2.762-.58-4.088-.133-.23-.374-.51-.533-.702-6.071-9.739-17.375-10.357-21.027-10.349-1.194.838-2.17 1.647-3.237 2.83 3.888-1.197 15.72-1.768 25.347 12.354z"/></g><g><path fill="url(#2hdtg)" d="M32.512 16.282c-2.53-4.304-6.18-7.243-10.58-7.98-1.917-.323-3.841-.204-5.722.299 3.344.257 9.816 1.618 16.302 7.681z"/></g><g><g><path fill="#e9933e" d="M23.688 7.966c3.74.995 6.656 3.866 8.498 7.85.105.119.21.228.315.351-2.316-5.077-6.303-8.523-11.036-8.821a10.575 10.575 0 0 0-3.37.334c.192.026.407.059.632.097 1.663-.293 3.332-.244 4.96.189z"/></g><g/><g/><g><path fill="#e9933e" d="M25.566 29.156c-5.257-10.28-12.207-9.786-12.207-9.786-4.543-.39-9.645 2.364-12.123 9.247-1.117 2.651-1.57 5.634-.97 8.63 1.265 6.34 7.254 12.72 21.677 16.052a21.675 21.675 0 0 0 2.763-2.244c-32.17-4.919-21.918-30.031-11.285-28.67 0 0 5.97-.005 9.837 8.325 0 0 4.258 7.314 8.489 9.632.286-.71.553-1.437.8-2.182-3.93-3.458-6.981-9.004-6.981-9.004z"/></g><g><path fill="#e9933e" d="M16.647 37.273c-1.73-3.86-2.734-5.884-4.002-4.157 0 0-3.772 6.738 13.332 11.845 0 0-7.002-2.51-9.33-7.688z"/></g><g><path fill="#e9933e" d="M1.662 45.783s.3.878.512 1.306c.917 2.201 2.144 4.095 3.646 5.567 1.821 1.948 4.353 2.976 7.224 3.34 1.845.135 3.716-.183 5.545-.902-3.868-1.025-11.585-3.74-16.927-9.311z"/></g><g><path fill="#e9933e" d="M30.444 43.203c-2.046-1.198-7.999-5.301-11.813-13.418-1.973-4.197-5.894-7.248-9.566-3.178 0 0-13.468 16.724 17.684 22.251.453-.548.893-1.121 1.318-1.72-4.699-.9-20.723-4.788-18.367-15.245 0 0 1.943-7.415 5.434-2.096 0 0 7.964 14.87 14.196 15.41"/></g><g><path fill="#e9933e" d="M33.968 31.095C25.425 14.567 14.806 12.022 7.374 15.458c-.758.975-1.663 2.353-2.328 3.474 2.04-1.144 5.155-3.146 10.675-1.896 0 0 5.856.608 13.198 10.974 0 0 3.43 5.257 4.652 6.418.223-1.016.402-2.025.534-3.024-.042-.103-.085-.208-.137-.309z"/></g><g><path fill="#e9933e" d="M34.376 26.958c.011-.011.022-.029.034-.041.001-1.445-.09-2.85-.275-4.199a4.527 4.527 0 0 0-.378-.675c-5.115-10.274-16.31-11.967-19.944-12.306-1.269.72-2.32 1.432-3.493 2.51 3.984-.822 15.816-.264 24.056 14.711z"/></g><g><path fill="#e9933e" d="M32.186 15.815c-1.842-3.983-4.758-6.854-8.498-7.85-1.63-.432-3.298-.481-4.96-.188 2.864.49 8.341 2.199 13.458 8.038z"/></g></g><g><g><path fill="#53575a" d="M61.667 47.99h-5.923V33.395c0-1.372-.416-2.373-1.245-3.004a4.502 4.502 0 0 0-2.79-.944c-1.03 0-1.946.315-2.747.944-.802.63-1.202 1.632-1.202 3.004V47.99h-6.009V34.597c0-3.89 1.015-6.494 3.048-7.811 2.03-1.316 4.277-2.03 6.738-2.147 1.316 0 2.604.144 3.863.43a8.122 8.122 0 0 1 3.435 1.717c.858-.743 1.874-1.274 3.047-1.589 1.172-.314 2.39-.5 3.648-.558 2.518 0 4.836.66 6.954 1.975 2.116 1.317 3.176 3.978 3.176 7.983V47.99h-3.004c-.858 0-1.56-.27-2.103-.816-.545-.543-.816-1.244-.816-2.103V33.395c0-1.372-.416-2.373-1.245-3.004a4.5 4.5 0 0 0-2.79-.944 4.5 4.5 0 0 0-2.79.944c-.83.63-1.245 1.632-1.245 3.004v1.202z"/></g><g><path fill="#53575a" d="M85.125 30.82c.4-.4 1.03-.73 1.888-.987a4.175 4.175 0 0 1 2.576.043c.858.287 1.616.945 2.274 1.975.657 1.03.988 2.575.988 4.635-.058 2.29-.43 3.95-1.116 4.98-.687 1.03-1.474 1.674-2.361 1.931a4.102 4.102 0 0 1-2.618-.086c-.859-.313-1.46-.7-1.803-1.158-.859-1.03-1.346-2.847-1.46-5.452-.115-2.604.43-4.563 1.632-5.88zm-4.12 15.11c1.143 1.03 2.673 1.76 4.591 2.188 1.917.43 3.821.387 5.71-.128 2.116-.458 3.862-1.63 5.236-3.52.63-.915 1.144-2.03 1.545-3.348.4-1.315.602-2.89.602-4.721 0-2.518-.488-4.722-1.46-6.61-1.03-2.118-2.633-3.607-4.808-4.465-1.888-.687-4.006-.872-6.352-.558-2.348.315-4.264 1.331-5.752 3.048-.916 1.03-1.588 2.317-2.018 3.863a17.266 17.266 0 0 0-.643 4.636c0 1.888.257 3.706.772 5.45.515 1.747 1.374 3.134 2.576 4.165z"/></g><g><path fill="#53575a" d="M100.731 47.99V36.916c0-2.232.329-4.106.987-5.623.658-1.516 1.56-2.733 2.705-3.65 1.086-.857 2.36-1.487 3.82-1.888 1.46-.4 2.962-.6 4.507-.6h.859v6.095h-1.975c-1.66 0-2.89.4-3.692 1.202-.802.801-1.201 2.06-1.201 3.777v11.76z"/></g><g><path fill="#53575a" d="M125.438 47.99c-1.888.114-3.935.086-6.138-.086s-3.305-1.573-3.305-4.207V18.46h3.09c.744 0 1.402.286 1.975.858.572.573.858 1.26.858 2.06v3.863h3.52v1.202c0 .859-.287 1.56-.858 2.104a2.885 2.885 0 0 1-2.06.815h-.602v12.706c0 .973.572 1.459 1.718 1.459h1.802z"/></g><g><path fill="#53575a" d="M132.11 36.744c0-1.831.344-3.462 1.03-4.893.688-1.43 2.004-2.147 3.95-2.147 1.43 0 2.518.516 3.262 1.546.743 1.03 1.215 2.203 1.416 3.52.2 1.316.186 2.647-.042 3.991-.23 1.346-.602 2.332-1.116 2.962-1.088 1.49-2.777 2.018-5.066 1.588-2.29-.43-3.433-2.618-3.433-6.567zm9.787 9.873c-.114 1.83-.558 3.203-1.33 4.12-.773.915-1.631 1.472-2.576 1.674-.944.2-1.889.086-2.833-.344-.944-.43-1.645-1.044-2.103-1.845h-6.267c1.259 4.922 4.52 7.383 9.787 7.383 2.747 0 5.292-.73 7.64-2.189 2.346-1.46 3.52-4.193 3.52-8.199V35.113c0-4.005-1.174-6.753-3.52-8.241-2.348-1.488-4.893-2.233-7.64-2.233-3.606 0-6.224 1.103-7.855 3.306-1.631 2.204-2.447 5.08-2.447 8.628 0 3.033.615 5.48 1.846 7.34 1.23 1.86 2.704 3.132 4.421 3.819 1.717.687 3.448.83 5.194.43 1.745-.4 3.133-1.402 4.163-3.005v1.46z"/></g><g><path fill="#53575a" d="M163.085 38.633c0 1.603-.46 2.862-1.375 3.776-.916.917-2.175 1.374-3.776 1.374-.975 0-1.718-.228-2.232-.686-.516-.516-.772-1.202-.772-2.06 0-.63.2-1.259.6-1.89.458-.457 1.202-.828 2.232-1.116l1.974-.428c1.43-.345 2.546-.716 3.349-1.117zm1.373 8.412c1.144-.57 2.131-1.502 2.962-2.79.828-1.287 1.245-3.075 1.245-5.365v-7.812c0-2.06-.83-3.661-2.49-4.807-1.603-1.087-4.006-1.632-7.211-1.632-2.864 0-5.065.66-6.61 1.975-1.375 1.145-2.176 2.605-2.404 4.378h5.752c.286-.629.743-1.058 1.373-1.288.629-.227 1.344-.343 2.147-.343.743 0 1.558.128 2.446.386.887.258 1.33.816 1.33 1.675 0 1.145-1.259 1.888-3.776 2.231-.516.058-.975.129-1.375.215s-.744.128-1.03.128c-2.175.344-3.963 1.03-5.365 2.06-1.403 1.031-2.103 2.748-2.103 5.152 0 2.575.773 4.421 2.318 5.537 1.545 1.116 3.347 1.674 5.408 1.674 1.03 0 2.218-.072 3.563-.215a10.558 10.558 0 0 0 3.82-1.159z"/></g><g><path fill="#53575a" d="M176.164 36.744c0-1.831.344-3.462 1.03-4.893.686-1.43 2.003-2.147 3.95-2.147 1.43 0 2.517.516 3.261 1.546.743 1.03 1.215 2.203 1.417 3.52.2 1.316.185 2.647-.043 3.991-.23 1.346-.601 2.332-1.116 2.962-1.088 1.49-2.777 2.018-5.065 1.588-2.29-.43-3.434-2.618-3.434-6.567zm9.787 9.873c-.116 1.83-.558 3.203-1.33 4.12-.774.915-1.632 1.472-2.577 1.674-.944.2-1.888.086-2.833-.344-.944-.43-1.646-1.044-2.103-1.845h-6.267c1.259 4.922 4.52 7.383 9.787 7.383 2.747 0 5.293-.73 7.64-2.189 2.347-1.46 3.52-4.193 3.52-8.199V35.113c0-4.005-1.173-6.753-3.52-8.241-2.347-1.488-4.893-2.233-7.64-2.233-3.605 0-6.224 1.103-7.855 3.306-1.631 2.204-2.447 5.08-2.447 8.628 0 3.033.614 5.48 1.846 7.34 1.23 1.86 2.704 3.132 4.421 3.819 1.717.687 3.447.83 5.193.43 1.746-.4 3.135-1.402 4.165-3.005v1.46z"/></g><g><path fill="#53575a" d="M201.225 30.82c.8-.8 1.83-1.202 3.09-1.202 1.373 0 2.432.401 3.176 1.203.687.744 1.086 1.888 1.202 3.433h-8.756c.056-1.487.485-2.632 1.288-3.433zm9.013 10.13c-.686 0-1.216.143-1.588.43-.373.286-.588.515-.644.687l-.472.471c-.143.144-.3.245-.472.3-.687.402-1.517.602-2.49.602-1.488 0-2.604-.458-3.347-1.373-.803-.859-1.232-2.175-1.288-3.95h14.852c.055-.114.085-.314.085-.6v-.944c0-3.778-.916-6.725-2.747-8.843-1.889-2.06-4.55-3.09-7.984-3.09-3.262 0-5.809 1.06-7.64 3.176-1.774 2.06-2.661 4.923-2.661 8.585 0 3.835.914 6.781 2.747 8.842 1.83 2.118 4.378 3.176 7.64 3.176 2.69 0 4.921-.657 6.696-1.975 1.774-1.258 2.975-3.09 3.606-5.494h-4.293z"/></g><g><path fill="#8c9297" d="M232.824 41.242c-.9 1.26-2.13 1.888-3.69 1.888-1.68 0-2.97-.629-3.868-1.888-.9-1.14-1.35-2.85-1.35-5.13 0-2.459.418-4.258 1.259-5.399.9-1.26 2.16-1.89 3.78-1.89 1.678 0 2.969.63 3.869 1.89.9 1.26 1.35 3.06 1.35 5.4 0 2.159-.45 3.869-1.35 5.129zm-8.908 3.6c.72 1.258 1.678 2.19 2.879 2.788 1.139.54 2.459.81 3.96.81 2.818 0 5.128-1.139 6.928-3.42 1.8-2.339 2.7-5.398 2.7-9.178 0-3.658-.901-6.658-2.7-8.997-.9-1.08-2.115-1.905-3.645-2.475-1.529-.57-3.045-.855-4.544-.855-2.88 0-5.548.765-8.008 2.295-2.46 1.53-3.689 4.395-3.689 8.593v22.405h3.06c.838 0 1.558-.301 2.158-.9.6-.6.9-1.32.9-2.159z"/></g><g><path fill="#8c9297" d="M249.672 29.993c.419-.418 1.08-.764 1.98-1.034.9-.27 1.8-.255 2.7.045.9.3 1.693.99 2.384 2.07.69 1.079 1.035 2.698 1.035 4.858-.06 2.4-.45 4.14-1.17 5.22-.72 1.079-1.545 1.754-2.474 2.024-.932.27-1.846.24-2.745-.09-.9-.329-1.53-.733-1.89-1.215-.9-1.08-1.41-2.984-1.53-5.714-.12-2.729.451-4.782 1.71-6.164zm-4.319 15.837c1.2 1.08 2.804 1.845 4.814 2.295 2.01.45 4.004.405 5.984-.135 2.219-.48 4.049-1.71 5.489-3.69.66-.958 1.199-2.128 1.62-3.509.418-1.379.63-3.028.63-4.949 0-2.639-.511-4.949-1.53-6.929-1.08-2.217-2.76-3.779-5.04-4.679-1.979-.72-4.2-.913-6.658-.584-2.46.33-4.47 1.394-6.03 3.195-.959 1.079-1.663 2.429-2.114 4.048-.45 1.62-.673 3.24-.673 4.86 0 1.98.269 3.885.809 5.713.54 1.831 1.44 3.284 2.7 4.364z"/></g><g><path fill="#8c9297" d="M265.34 47.99V36.382c0-2.34.344-4.304 1.034-5.894.689-1.588 1.633-2.864 2.835-3.824 1.138-.9 2.474-1.56 4.004-1.98 1.53-.418 3.103-.629 4.723-.629h.9v6.389h-2.07c-1.74 0-3.029.42-3.868 1.26-.84.84-1.26 2.16-1.26 3.958V47.99z"/></g><g><path fill="#8c9297" d="M291.466 47.99c-1.98.12-4.124.09-6.433-.09-2.31-.18-3.465-1.65-3.465-4.409V17.036h3.24c.779 0 1.47.301 2.07.9.598.6.9 1.32.9 2.16v4.049h3.688v1.26c0 .9-.3 1.635-.9 2.204-.6.571-1.32.855-2.159.855h-.63v13.317c0 1.02.6 1.53 1.8 1.53h1.89z"/></g></g><g><path fill="#8c9297" d="M46.596 5.089c.756 0 1.352.23 1.774.682.38.413.605 1.04.666 1.865l.022.29h-4.913l.01-.279c.031-.804.273-1.438.718-1.883.448-.448 1.028-.675 1.723-.675zm-.042 9.326c1.27 0 2.333-.312 3.166-.93.738-.524 1.27-1.276 1.585-2.238h-1.77c-.278 0-.489.053-.624.158-.19.146-.227.21-.228.21l-.02.062-.28.28a.73.73 0 0 1-.289.19c-.38.223-.841.336-1.37.336-.82 0-1.45-.264-1.857-.768-.442-.472-.681-1.19-.711-2.134l-.01-.277h7.42v-.497c0-1.798-.437-3.215-1.293-4.205-.879-.959-2.145-1.446-3.762-1.446-1.529 0-2.736.5-3.586 1.482-.833.968-1.255 2.341-1.255 4.084 0 1.825.435 3.24 1.297 4.21.862.998 2.036 1.483 3.587 1.483z"/></g><g><path fill="#8c9297" d="M56.274 14.202l-3.772-10.79h2.57l2.457 8.672 2.263-7.845c.187-.561.539-.827 1.104-.827h1.835l-3.813 10.79z"/></g><g><path fill="#8c9297" d="M66.723 5.954c.397-.397.908-.596 1.533-.596.682 0 1.207.199 1.576.596.34.369.539.936.597 1.703h-4.344c.027-.738.24-1.305.638-1.703zm4.657 7.53c.738-.523 1.27-1.275 1.585-2.237h-1.77c-.278 0-.489.053-.624.158-.19.146-.227.21-.228.21l-.02.062-.28.28a.735.735 0 0 1-.288.19c-.381.223-.843.336-1.371.336-.82 0-1.45-.264-1.857-.768-.442-.472-.681-1.19-.711-2.134l-.01-.277h7.42v-.497c0-1.798-.437-3.215-1.292-4.205-.88-.959-2.146-1.446-3.763-1.446-1.529 0-2.736.5-3.586 1.482-.833.968-1.255 2.341-1.255 4.084 0 1.825.435 3.24 1.297 4.21.863.998 2.036 1.483 3.587 1.483 1.27 0 2.333-.312 3.166-.93z"/></g><g><path fill="#8c9297" d="M75.322 14.202V8.977c0-1.065.157-1.968.467-2.682.307-.708.732-1.282 1.263-1.707a5.036 5.036 0 0 1 1.799-.888 8.198 8.198 0 0 1 2.164-.288h.157v2.486h-.71c-.894 0-1.574.227-2.022.675-.448.448-.675 1.142-.675 2.063v5.566z"/></g><g><path fill="#8c9297" d="M84.407 18.29a1.9 1.9 0 0 0-.332-.062l-.08-.008V16.4h.54c.63 0 1.139-.156 1.513-.466.419-.347.511-.883.275-1.591l-3.835-10.93h2.697l2.502 8.71 2.26-7.884c.142-.566.492-.827 1.104-.827h1.67l-4.224 12.549c-.32.877-.72 1.51-1.188 1.875-.448.298-1.243.454-2.347.454z"/></g><g><path fill="#8c9297" d="M100.233 14.415a6.912 6.912 0 0 1-3.65-1.025c-1.074-.655-1.618-1.952-1.618-3.86V.048h1.18c.325 0 .597.114.832.347.233.234.347.506.347.832v4.409l.5-.866c.288-.496.713-.907 1.264-1.222.466-.259 1.053-.39 1.74-.39 1.259 0 2.261.508 3.067 1.555.81 1.054 1.222 2.447 1.222 4.138 0 1.69-.411 3.083-1.222 4.136-.39.494-.927.858-1.596 1.08a6.551 6.551 0 0 1-2.066.349zm2.214-5.693c0-1.022-.213-1.817-.638-2.385-.426-.596-1.009-.895-1.747-.895-.795 0-1.405.285-1.831.852-.426.596-.639 1.406-.639 2.428 0 1.192.199 2.058.597 2.597.425.596 1.022.894 1.788.894.794 0 1.406-.298 1.832-.894.425-.596.638-1.462.638-2.597z"/></g><g><path fill="#8c9297" d="M111.539 14.411c-.408 0-.823-.047-1.233-.138-.902-.203-1.627-.547-2.157-1.024-.559-.479-.96-1.131-1.2-1.942a9.273 9.273 0 0 1-.372-2.628c0-.738.104-1.488.31-2.228.2-.723.517-1.332.942-1.809.693-.8 1.596-1.278 2.688-1.425.352-.046.697-.07 1.027-.07.715 0 1.387.112 1.997.334 1.002.395 1.756 1.097 2.235 2.08.463.9.697 1.961.697 3.16 0 .877-.097 1.639-.287 2.265-.19.623-.435 1.158-.73 1.586-.635.872-1.454 1.424-2.433 1.635-.5.137-.995.204-1.484.204zm-1.526-8.457c-.596.653-.867 1.625-.81 2.917.057 1.292.299 2.193.725 2.704.17.227.468.419.894.575.426.156.858.17 1.299.042.44-.128.83-.447 1.17-.958.342-.51.526-1.334.555-2.47 0-1.022-.164-1.788-.49-2.3-.327-.51-.703-.836-1.129-.979a2.067 2.067 0 0 0-1.277-.021c-.426.127-.739.292-.937.49z"/></g><g><path fill="#8c9297" d="M123.155 14.415a6.465 6.465 0 0 1-2.086-.349c-.655-.221-1.186-.585-1.578-1.083-.781-.995-1.177-2.386-1.177-4.133 0-1.72.397-3.112 1.18-4.138.804-1.047 1.807-1.556 3.065-1.556.662 0 1.25.134 1.748.395.516.31.945.725 1.261 1.226l.497.785V.047h1.178c.323 0 .594.12.828.365.237.248.351.515.351.814v8.305c0 1.906-.544 3.204-1.617 3.859a6.915 6.915 0 0 1-3.65 1.025zm-2.215-5.693c0 1.135.214 2.001.639 2.597.426.596 1.036.894 1.831.894.767 0 1.364-.298 1.79-.894.397-.596.596-1.462.596-2.597 0-1.022-.214-1.832-.64-2.428-.454-.567-1.064-.852-1.831-.852-.738 0-1.32.299-1.746.895-.425.568-.639 1.363-.639 2.385z"/></g><g><path fill="#8c9297" d="M132.167 18.29a1.9 1.9 0 0 0-.332-.062l-.079-.008V16.4h.54c.63 0 1.138-.156 1.513-.466.418-.347.511-.883.276-1.591l-3.837-10.93h2.697l2.503 8.71 2.259-7.884c.141-.566.491-.827 1.103-.827h1.67l-4.223 12.549c-.318.877-.72 1.51-1.187 1.875-.448.298-1.244.454-2.348.454z"/></g><g><path fill="#8c9297" d="M141.99 3.898c.047-.056.09-.104.128-.147.088-.096.163-.187.227-.275.073-.101.132-.21.176-.324.045-.12.076-.269.092-.454l.001-.86h-.588V0h1.86v2.107c0 .506-.117.99-.35 1.436a2.787 2.787 0 0 1-.895.991z"/></g><g><path fill="#8c9297" d="M149.203 14.415c-1.548 0-2.709-.31-3.45-.918-.734-.584-1.105-1.402-1.134-2.505h2.382c.079.528.323.94.726 1.227.475.318 1.098.476 1.859.476.553 0 1.04-.11 1.448-.33.54-.315.653-.742.653-1.046 0-.662-.655-1.123-2.001-1.412-.508-.085-.882-.168-1.122-.248-1.47-.36-2.444-.781-2.918-1.255-.524-.472-.773-1.075-.773-1.854 0-1.007.374-1.817 1.141-2.48.788-.603 1.85-.914 3.146-.914 1.41 0 2.545.312 3.375.927.688.595 1.082 1.347 1.189 2.283h-1.54c-.448 0-.767-.188-1.004-.591l-.017-.03-.365-.364c-.415-.315-.943-.462-1.595-.462-.623 0-1.087.096-1.416.293-.34.227-.514.57-.514.997 0 .623.749 1.058 2.428 1.413.151.053.31.098.446.127.13.03.26.046.383.049 1.384.355 2.354.763 2.885 1.214.477.453.715 1.058.715 1.839 0 1.17-.411 2.046-1.256 2.68-.798.586-2.033.884-3.67.884z"/></g><g><path fill="#8c9297" d="M167.53 14.415a6.469 6.469 0 0 1-2.085-.349c-.656-.221-1.187-.585-1.578-1.083-.781-.995-1.177-2.386-1.177-4.133 0-1.72.396-3.112 1.179-4.138.805-1.047 1.808-1.556 3.066-1.556.661 0 1.25.134 1.749.395.514.31.943.725 1.26 1.226l.496.785V.047h1.179c.323 0 .594.12.827.365.237.248.352.515.352.814v8.305c0 1.906-.544 3.204-1.617 3.859a6.916 6.916 0 0 1-3.65 1.025zm-2.214-5.693c0 1.135.214 2.001.64 2.597.425.596 1.035.894 1.83.894.767 0 1.363-.298 1.789-.894.397-.596.596-1.462.596-2.597 0-1.022-.213-1.832-.639-2.428-.454-.567-1.064-.852-1.831-.852-.738 0-1.32.299-1.745.895-.426.568-.64 1.363-.64 2.385z"/></g><g><path fill="#8c9297" d="M177.635 1.894V1.27c0-.326-.113-.598-.346-.832a1.129 1.129 0 0 0-.832-.347h-1.265v1.804zm0 12.308v-9.61c0-.327-.113-.599-.346-.833a1.125 1.125 0 0 0-.832-.347h-1.265v10.79z"/></g><g><path fill="#8c9297" d="M179.94 14.202v-11.4c0-.94.244-1.649.725-2.105.457-.431 1.24-.65 2.328-.65.265 0 .48.013.637.039.203.002.367.008.499.017v1.834h-.498c-.455 0-.782.07-1 .216-.23.182-.333.474-.333.905v1.036h1.83v.37c0 .351-.111.628-.341.848a1.11 1.11 0 0 1-.794.33h-.695v8.56z"/></g><g><path fill="#8c9297" d="M185.97 14.202v-11.4c0-.94.244-1.649.725-2.105.457-.431 1.24-.65 2.328-.65.265 0 .48.013.637.039.203.002.366.008.499.017v1.834h-.498c-.455 0-.782.07-1 .216-.23.182-.333.474-.333.905v1.036h1.83v.37c0 .351-.11.628-.34.848-.236.222-.495.33-.795.33h-.695v8.56z"/></g><g><path fill="#8c9297" d="M195.656 14.415c-1.551 0-2.724-.485-3.587-1.482-.861-.97-1.297-2.386-1.297-4.211 0-1.743.422-3.116 1.255-4.084.85-.983 2.057-1.482 3.586-1.482 1.617 0 2.883.487 3.762 1.446.856.99 1.292 2.407 1.292 4.205v.497h-7.418l.009.277c.03.944.27 1.662.71 2.134.41.504 1.038.768 1.858.768.53 0 .99-.113 1.37-.335a.737.737 0 0 0 .29-.191l.279-.28.02-.06s.037-.065.228-.212c.135-.105.346-.158.623-.158h1.771c-.315.962-.847 1.714-1.585 2.238-.833.618-1.897.93-3.166.93zm2.214-6.758c-.057-.767-.255-1.334-.596-1.703-.37-.397-.894-.596-1.575-.596-.625 0-1.136.199-1.534.596-.398.398-.61.965-.638 1.703z"/></g><g><path fill="#8c9297" d="M202.34 14.202V8.977c0-1.066.158-1.968.468-2.682.307-.708.731-1.282 1.263-1.707a5.03 5.03 0 0 1 1.798-.888 8.204 8.204 0 0 1 2.164-.288h.157v2.486h-.71c-.893 0-1.574.227-2.022.675-.448.448-.674 1.142-.674 2.063v5.566z"/></g><g><path fill="#8c9297" d="M214.321 14.415c-1.55 0-2.724-.485-3.587-1.482-.86-.97-1.296-2.386-1.296-4.211 0-1.743.422-3.116 1.254-4.084.85-.983 2.057-1.482 3.587-1.482 1.617 0 2.883.487 3.762 1.446.855.99 1.292 2.407 1.292 4.205v.497h-7.419l.01.277c.03.944.269 1.662.71 2.134.409.504 1.037.768 1.857.768.53 0 .99-.113 1.37-.335a.738.738 0 0 0 .29-.191l.28-.28.02-.06s.037-.065.228-.212c.135-.105.345-.158.623-.158h1.77c-.314.962-.847 1.714-1.585 2.238-.833.618-1.897.93-3.166.93zm2.214-6.758c-.056-.767-.255-1.334-.596-1.703-.369-.397-.894-.596-1.575-.596-.625 0-1.136.199-1.533.596-.398.398-.611.965-.639 1.703z"/></g><g><path fill="#8c9297" d="M229.126 14.202c-.355 0-.634-.106-.852-.326-.22-.22-.327-.498-.327-.853V7.23c0-.766-.243-1.34-.723-1.704a2.512 2.512 0 0 0-1.547-.524c-.57 0-1.085.178-1.529.527-.464.363-.699.936-.699 1.701v6.971h-2.443V7.828c0-1.825.467-3.053 1.39-3.65a6.368 6.368 0 0 1 3.208-1.022c1.18 0 2.292.317 3.296.94.96.597 1.447 1.853 1.447 3.732v6.374z"/></g><g><path fill="#8c9297" d="M236.038 14.235c-.59 0-1.217-.025-1.862-.075-.597-.046-1.391-.285-1.391-1.819V.091h1.264c.296 0 .554.113.79.346.232.234.346.506.346.832v2.185h1.746v.328c0 .352-.113.629-.342.848-.235.223-.508.331-.837.331h-.567v6.571c0 .631.408.993 1.12.993h.626v1.69c-.29.014-.588.02-.893.02z"/></g></g></g></svg>