<svg xmlns="http://www.w3.org/2000/svg" width="39" height="39" viewBox="0 0 39 39"><g><g><g><path fill="#fff" d="M35.23.744a3.026 3.026 0 0 1 3.03 3.026v32.204A3.026 3.026 0 0 1 35.234 39H3.026A3.026 3.026 0 0 1 0 35.978V3.77A3.026 3.026 0 0 1 3.026.744zm.003 2.486h-.003zm0 0H3.027a.54.54 0 0 0-.54.54v32.208c0 .298.242.54.54.54H35.23a.54.54 0 0 0 .54-.54V3.77a.54.54 0 0 0-.536-.54zm.001 0z"/></g><g><path fill="#fff" d="M8.902 30.633V14.67h4.488v15.964z"/></g><g><path fill="#fff" d="M24.19 14.669c-3.845 0-3.914 2.223-3.914 2.376v-2.376h-4.59v15.964h4.59v-9.112c0-.712.21-2.242 2.383-2.242s2.154 2.192 2.154 2.192v9.182h4.541v-9.947c0-4.717-2.574-6.037-5.164-6.037z"/></g><g><path fill="#fff" d="M8.902 11.352a2.242 2.242 0 1 1 4.484 0 2.242 2.242 0 0 1-4.484 0z"/></g></g></g></svg>