<?xml version="1.0" encoding="UTF-8"?>
<svg id="SVGDoc" width="38" height="39" xmlns="http://www.w3.org/2000/svg" version="1.1" xmlns:xlink="http://www.w3.org/1999/xlink" xmlns:avocode="https://avocode.com/" viewBox="0 0 38 39"><defs></defs><desc>Generated with Avocode.</desc><g><g><title>Path 2321</title><path d="M25.80682,12.59179c1.84644,1.84213 2.88457,4.34289 2.88558,6.95111c0.0021,5.4238 -4.39156,9.82316 -9.81536,9.82808c-5.4238,0.00492 -9.82544,-4.38645 -9.83318,-9.81025c-0.00774,-5.4238 4.38134,-9.82772 9.80513,-9.83828c2.60821,-0.00508 5.11139,1.02721 6.95783,2.86934zM18.849,12.78298c-3.73129,0.00632 -6.75431,3.02992 -6.75993,6.7612c-0.00141,3.73651 3.02724,6.7663 6.7612,6.7663c3.73651,0.00141 6.7663,-3.02724 6.7663,-6.76503c-0.0007,-3.73652 -3.03106,-6.76459 -6.76758,-6.76248z" fill="#ffffff" fill-opacity="1"></path></g><g><title>Path 2320</title><path d="M28.74595,7.24726c-1.21066,0 -2.19211,0.98144 -2.19211,2.1921c0,1.21066 0.98145,2.1921 2.19211,2.1921c1.21066,0 2.19209,-0.98143 2.19209,-2.1921c0,-1.21066 -0.98143,-2.1921 -2.19209,-2.1921z" fill="#ffffff" fill-opacity="1"></path></g><g><title>Path 2319</title><path d="M26.01444,0.74366c6.3307,0.0189 11.45805,5.14625 11.47696,11.47695v14.53747c-0.01891,6.3307 -5.14626,11.45805 -11.47696,11.47696h-14.53747c-6.3307,-0.01891 -11.45805,-5.14626 -11.47696,-11.47696v-14.53748c0.0189,-6.3307 5.14625,-11.45804 11.47695,-11.47695h14.53747zM26.01444,3.80418h-14.53747c-4.64827,0 -8.41644,3.76816 -8.41644,8.41643v14.53748c0,4.64827 3.76816,8.41643 8.41643,8.41643h14.53748c4.64826,0 8.41643,-3.76817 8.41643,-8.41644v-14.53748c0,-4.64826 -3.76817,-8.41643 -8.41644,-8.41643z" fill="#ffffff" fill-opacity="1"></path></g></g></svg>