<svg xmlns="http://www.w3.org/2000/svg" width="49" height="36" viewBox="0 0 49 36"><g><g><path fill="#fff" d="M45.759 4.56l2.678-1.247-1.96 5.574c-.187.532-.883 1.924-3.42 4.109a26.367 26.367 0 0 1-2.895 10.96 21.83 21.83 0 0 1-12.128 10.678 24.102 24.102 0 0 1-8.179 1.453c-4.533.02-8.971-1.3-12.758-3.79L0 27.081l8.772.73c.475.039.945.058 1.4.058a14.247 14.247 0 0 0 3.11-.33 10.012 10.012 0 0 1-3.198-4.93l-.382-1.492a10.039 10.039 0 0 1-2.177-6.382l.142-3.645a9.637 9.637 0 0 1 1.3-6.374l1.798-2.804 2.181 2.529a18.841 18.841 0 0 0 10.632 6.346c.424-3.416 2.559-6.262 6.07-7.911a8.298 8.298 0 0 1 3.559-.765c2.196.022 4.324.767 6.056 2.12.853-.22 1.67-.562 2.425-1.015l4.947-3.473zm-12.564.027a5.872 5.872 0 0 0-2.502.536c-3.76 1.77-5.157 5.026-4.59 8.416h-.127c-1.052 0-8.7-.256-14.92-7.475 0 0-3.324 5.214 2.196 9.583-.16.027-.32.04-.482.038a5.146 5.146 0 0 1-2.754-.864s-.226 5.8 5.818 7.23a7.805 7.805 0 0 1-1.912.28c-.5.03-.998-.093-1.427-.353 0 0 1.304 5.127 6.66 5.127h.233c.169 0-2.892 3.244-9.212 3.244-.516 0-1.033 0-1.607-.058a20.54 20.54 0 0 0 11.286 3.317c2.5-.01 4.979-.453 7.326-1.312 10.69-3.84 13.578-14.633 13.39-20.47C43.674 9.357 44.13 8.06 44.13 8.06c-2.372 1.11-3.88 1.147-4.086 1.147h-.023c2.69-1.721 3.095-3.97 3.095-3.97-1.614 1.136-4.537 1.71-4.537 1.71a7.49 7.49 0 0 0-5.356-2.361z"/></g></g></svg>