<svg xmlns="http://www.w3.org/2000/svg" width="95" height="97" viewBox="0 0 95 97"><g><g><g><path fill="none" stroke="#e9933e" stroke-miterlimit="20" stroke-width="2" d="M32.528 82.643c.792-.794 1.605-2.07 4.14-2.07h30.464c2.302 0 14.953-12.69 16.562-14.493 1.546-1.733 8.44-12.09 10.35-16.56-1.2-1.616-4.445-2.96-8.28-2.07-3.66.85-5.813 3.478-8.282 8.28l-9.488 4.928v0"/></g><g><path fill="none" stroke="#e9933e" stroke-miterlimit="20" stroke-width="2" d="M44.362 68.15v0h18.63c8.28 0 8.28-10.35 0-10.35h-12.42c-1.725 0-4.96-4.141-7.693-4.141H32.53c-2.8 0-6.273 2.27-8.283 4.141-3.101 3.104-8.573 8.28-8.573 8.28v0"/></g><g><path fill="none" stroke="#e9933e" stroke-miterlimit="20" stroke-width="2" d="M24.247 95.063v0L1.475 72.29v0l10.351-10.35v0l22.772 22.771v0z"/></g><g><path fill="none" stroke="#e9933e" stroke-miterlimit="20" stroke-width="2" d="M11.826 72.291l4.14 4.14"/></g><g><g><path fill="none" stroke="#e9933e" stroke-miterlimit="20" stroke-width="2" d="M25.5 8.386c0 4.041 6.007 7.318 13.418 7.318 7.41 0 13.417-3.277 13.417-7.318"/></g><g><path fill="none" stroke="#e9933e" stroke-miterlimit="20" stroke-width="2" d="M25.5 14.484c0 4.042 6.007 7.32 13.418 7.32 7.41 0 13.417-3.278 13.417-7.32"/></g><g><path fill="none" stroke="#e9933e" stroke-miterlimit="20" stroke-width="2" d="M25.5 20.583c0 4.043 6.007 7.32 13.418 7.32 1.12 0 2.21-.075 3.251-.218"/></g><g><path fill="none" stroke="#e9933e" stroke-miterlimit="20" stroke-width="2" d="M25.5 26.682c0 4.04 6.007 7.318 13.418 7.318 1.12 0 2.21-.075 3.251-.216"/></g><g><path fill="none" stroke="#e9933e" stroke-miterlimit="20" stroke-width="2" d="M60.873 23.024c7.411 0 13.42 3.274 13.42 7.317V42.54c0 4.04-6.009 7.317-13.42 7.317-7.409 0-13.417-3.277-13.417-7.317V30.34c0-4.043 6.008-7.317 13.417-7.317z"/></g><g><path fill="none" stroke="#e9933e" stroke-miterlimit="20" stroke-width="2" d="M47.456 30.341c0 4.043 6.008 7.32 13.417 7.32 7.411 0 13.42-3.277 13.42-7.32"/></g><g><path fill="none" stroke="#e9933e" stroke-miterlimit="20" stroke-width="2" d="M47.456 36.44c0 4.043 6.008 7.318 13.417 7.318 7.411 0 13.42-3.275 13.42-7.317"/></g><g><path fill="none" stroke="#e9933e" stroke-miterlimit="20" stroke-width="2" d="M42.17 39.884c-1.043.14-2.132.215-3.252.215-7.41 0-13.419-3.277-13.419-7.317V8.386c0-4.042 6.008-7.32 13.42-7.32 7.408 0 13.416 3.278 13.416 7.32v6.098"/></g></g></g></g></svg>