<svg xmlns="http://www.w3.org/2000/svg" width="115" height="115" viewBox="0 0 115 115"><g><g><g><g><path fill="#fff" d="M80.677 50.637a16.25 16.25 0 0 1-9.385-2.96.9.9 0 0 1 1.034-1.47c6.582 4.612 15.658 3.016 20.27-3.567 4.613-6.582 3.016-15.657-3.566-20.269a14.557 14.557 0 0 0-8.353-2.635 14.612 14.612 0 0 0-13.646 9.489.9.9 0 1 1-1.685-.625c3.141-8.467 12.55-12.785 21.017-9.645 8.467 3.14 12.785 12.55 9.645 21.017a16.353 16.353 0 0 1-15.33 10.665zm14.3 13.948a13.862 13.862 0 0 1-2.907-.338.901.901 0 0 1-.572-.425l-2.37-4.105a26.946 26.946 0 0 1-3.07.813.901.901 0 0 1-1.782-.164v-.58a.9.9 0 0 1 .743-.885 24.955 24.955 0 0 0 4.208-1.117.899.899 0 0 1 1.085.395l2.541 4.4c1.24.236 3.168.37 4.07-.151.902-.521 1.75-2.258 2.165-3.45l-2.546-4.409a.9.9 0 0 1 .2-1.137 25.356 25.356 0 0 0 3.08-3.078.899.899 0 0 1 1.136-.2l4.41 2.546c1.191-.416 2.93-1.263 3.45-2.165.52-.902.385-2.83.15-4.07l-4.4-2.541a.9.9 0 0 1-.4-1.085 24.815 24.815 0 0 0 1.117-4.208.9.9 0 0 1 .885-.743h5.092c.825-.956 1.906-2.559 1.906-3.6 0-1.136-1.226-2.8-1.906-3.6h-5.09a.902.902 0 0 1-.886-.743 24.76 24.76 0 0 0-1.117-4.208.9.9 0 0 1 .4-1.085l4.4-2.541c.235-1.24.37-3.168-.15-4.07-.522-.902-2.259-1.749-3.45-2.165l-4.41 2.546a.9.9 0 0 1-1.137-.2 25.213 25.213 0 0 0-3.079-3.078.9.9 0 0 1-.2-1.137l2.546-4.41c-.416-1.191-1.264-2.929-2.165-3.449-.9-.52-2.83-.387-4.07-.151l-2.54 4.4a.9.9 0 0 1-1.086.395 24.76 24.76 0 0 0-4.208-1.117.9.9 0 0 1-.743-.885V3.698c-.957-.824-2.559-1.9-3.6-1.9-1.04 0-2.643 1.081-3.6 1.9V8.79a.9.9 0 0 1-.743.885 24.76 24.76 0 0 0-4.208 1.117.9.9 0 0 1-1.085-.395l-2.54-4.4c-1.24-.236-3.169-.37-4.07.151-.985.567-1.816 2.463-2.165 3.451l2.545 4.409a.9.9 0 0 1-.2 1.137 25.218 25.218 0 0 0-3.079 3.078.9.9 0 0 1-1.137.2l-4.41-2.546c-1.192.416-2.93 1.264-3.45 2.165-.647 1.123-.29 3.5-.116 4.239a.901.901 0 0 1-1.718.538.744.744 0 0 1-.029-.124c-.087-.364-.812-3.613.307-5.551 1.12-1.938 4.471-2.991 4.85-3.105a.9.9 0 0 1 .707.083l4.114 2.375a26.7 26.7 0 0 1 2.232-2.232l-2.375-4.114a.9.9 0 0 1-.083-.708c.113-.378 1.167-3.73 3.105-4.849 1.938-1.119 5.367-.354 5.751-.265.24.057.447.211.571.425l2.371 4.105a26.62 26.62 0 0 1 3.055-.81V3.3a.9.9 0 0 1 .283-.654C75.848 2.376 78.436 0 80.673 0c2.236 0 4.826 2.376 5.113 2.646.181.17.283.406.283.654v4.749c1.033.209 2.053.48 3.055.81l2.371-4.105a.901.901 0 0 1 .572-.425c.383-.091 3.816-.854 5.751.265 1.935 1.119 2.991 4.471 3.1 4.849a.9.9 0 0 1-.083.708l-2.375 4.114c.786.7 1.532 1.445 2.232 2.232l4.113-2.375a.9.9 0 0 1 .708-.083c.378.114 3.73 1.168 4.85 3.105 1.12 1.937.355 5.366.265 5.752a.9.9 0 0 1-.426.572l-4.1 2.371c.33 1 .6 2.021.81 3.054h4.75c.246 0 .484.102.654.282.27.288 2.646 2.877 2.646 5.114s-2.376 4.825-2.646 5.113a.903.903 0 0 1-.655.282h-4.749a26.803 26.803 0 0 1-.81 3.054l4.1 2.37a.9.9 0 0 1 .426.573c.09.385.854 3.814-.265 5.75-1.12 1.938-4.472 2.992-4.85 3.106a.904.904 0 0 1-.708-.082l-4.113-2.375c-.7.787-1.446 1.532-2.232 2.232l2.375 4.114a.9.9 0 0 1 .083.708c-.114.378-1.168 3.73-3.1 4.849a5.847 5.847 0 0 1-2.84.603zm-28.625.019a5.547 5.547 0 0 1-2.839-.634 7.501 7.501 0 0 1-2.538-3.314.9.9 0 0 1 1.67-.661 5.81 5.81 0 0 0 1.806 2.444c.88.538 2.807.39 4.046.143l2.544-4.406a.899.899 0 0 1 1.085-.395c1.367.494 2.775.868 4.208 1.117a.9.9 0 0 1 .743.885v.686a.9.9 0 0 1-1.794.059 26.845 26.845 0 0 1-3.056-.811l-2.37 4.105a.906.906 0 0 1-.564.423 13.36 13.36 0 0 1-2.94.359z"/></g></g><g><g><g><path fill="#fff" d="M64.82 90.216c-.31.12-1.988.576-3.122.874l-2.48-.665a.9.9 0 0 0-1.06.518 25.784 25.784 0 0 1-3.226 5.579.901.901 0 0 0 .081 1.178l1.855 1.856c.83 2.132 1.3 4.505.988 4.938-.445.322-2.819-.145-4.953-.974l-1.855-1.856a.899.899 0 0 0-1.178-.081 25.908 25.908 0 0 1-5.579 3.225.898.898 0 0 0-.518 1.06l.678 2.531c-.349 2.261-1.127 4.552-1.615 4.771-.543.039-2.368-1.537-3.8-3.319l-.68-2.538a.899.899 0 0 0-.978-.659c-2.14.264-4.304.264-6.443 0a.903.903 0 0 0-.979.659l-.68 2.538c-1.41 1.754-3.192 3.325-3.756 3.325h-.028c-.5-.223-1.282-2.514-1.633-4.775l.68-2.531a.9.9 0 0 0-.52-1.061 25.826 25.826 0 0 1-5.579-3.225.9.9 0 0 0-1.178.082l-1.855 1.855c-2.134.828-4.508 1.301-4.939.988-.326-.445.146-2.818.974-4.952l1.855-1.855a.899.899 0 0 0 .081-1.178 25.826 25.826 0 0 1-3.225-5.579.9.9 0 0 0-1.06-.518l-2.53.679C4.3 90.757 2.01 89.979 1.79 89.491c-.059-.548 1.535-2.368 3.32-3.8l2.536-.68a.9.9 0 0 0 .66-.979 26.308 26.308 0 0 1 0-6.443.9.9 0 0 0-.66-.978l-2.537-.68c-1.784-1.433-3.378-3.252-3.324-3.784.223-.5 2.514-1.282 4.775-1.633l2.53.679a.9.9 0 0 0 1.061-.518 25.785 25.785 0 0 1 3.225-5.579.9.9 0 0 0-.08-1.178l-1.856-1.855c-.828-2.134-1.3-4.507-.987-4.939.444-.322 2.818.146 4.952.974l1.855 1.856a.899.899 0 0 0 1.178.081c.235-.178.471-.351.71-.52a.9.9 0 0 0-1.036-1.468l-.128.091-1.442-1.442a.897.897 0 0 0-.3-.2c-1.652-.661-5.652-2.046-7.05-.648-1.398 1.398-.014 5.4.648 7.051a.868.868 0 0 0 .2.3l1.441 1.442a27.63 27.63 0 0 0-2.668 4.615l-1.967-.526a.898.898 0 0 0-.36-.022c-1.764.254-5.92 1.052-6.432 2.964-.512 1.913 2.688 4.682 4.087 5.783a.9.9 0 0 0 .323.161l1.974.53a28.057 28.057 0 0 0 0 5.328l-1.974.529a.9.9 0 0 0-.323.161c-1.4 1.1-4.6 3.871-4.087 5.783.513 1.912 4.668 2.71 6.431 2.965a.954.954 0 0 0 .361-.022l1.967-.527a27.64 27.64 0 0 0 2.668 4.616l-1.443 1.443a.896.896 0 0 0-.2.3c-.662 1.653-2.048 5.651-.648 7.051 1.4 1.4 5.4.013 7.051-.648a.918.918 0 0 0 .3-.2l1.442-1.442a27.673 27.673 0 0 0 4.616 2.668l-.527 1.966a.91.91 0 0 0-.022.36c.255 1.763 1.053 5.92 2.965 6.431.14.037.286.056.431.055 1.876 0 4.331-2.845 5.352-4.143a.918.918 0 0 0 .162-.323l.53-1.974a28.22 28.22 0 0 0 5.327 0l.53 1.974a.91.91 0 0 0 .161.323c1.1 1.4 3.87 4.6 5.783 4.088 1.913-.512 2.71-4.668 2.964-6.431a.893.893 0 0 0-.022-.36l-.527-1.966a27.671 27.671 0 0 0 4.616-2.668l1.442 1.442a.918.918 0 0 0 .3.2c1.654.661 5.653 2.047 7.052.648 1.4-1.399.012-5.4-.649-7.051a.881.881 0 0 0-.2-.3l-1.442-1.442a27.537 27.537 0 0 0 2.67-4.616l1.966.527a.9.9 0 0 0 .461 0c.5-.131 3.018-.795 3.541-1a.899.899 0 1 0-.647-1.675z"/></g></g><g><g><path fill="#fff" d="M67.693 71.492c-.516-1.924-4.288-2.591-5.887-2.788a.933.933 0 0 0-.34.024l-2.713.727a.9.9 0 1 0 .467 1.735l2.54-.681c2.176.294 4.063 1.021 4.2 1.449a.928.928 0 0 0 .872.643.87.87 0 0 0 .243-.035.88.88 0 0 0 .618-1.074z"/></g></g><g><g><path fill="#fff" d="M60.78 83.981a.9.9 0 0 0 1.002-.781 20.015 20.015 0 0 0 0-5.835.9.9 0 1 0-1.782.221 18.323 18.323 0 0 1 0 5.393.901.901 0 0 0 .78 1.002z"/></g></g><g><g><path fill="#fff" d="M36.62 77.073l-6.2 6.2a4.475 4.475 0 0 1 6.2-6.2zm1.271 1.27a4.475 4.475 0 0 1-6.2 6.2zM19.268 95.696c-7.952-7.981-8.216-20.807-.6-29.108L29.14 77.059a6.264 6.264 0 0 0 8.77 8.768l10.472 10.472c-8.304 7.618-21.133 7.351-29.114-.604zm-1.27 1.27c8.927 8.921 23.396 8.916 32.317-.012 8.278-8.283 8.954-21.483 1.566-30.569a.9.9 0 0 0-1.394 1.135c6.624 8.095 6.266 19.834-.839 27.511L39.173 84.557a6.262 6.262 0 0 0-8.768-8.768L19.92 65.303a20.783 20.783 0 0 1 7.585-4.476.9.9 0 0 0-.566-1.705 22.625 22.625 0 0 0-8.94 5.528c-8.909 8.93-8.909 23.386 0 32.316z"/></g></g></g><g><g><path fill="#fff" d="M86.146 74.135a8.49 8.49 0 0 1-.01 12.008 8.494 8.494 0 1 1 .01-12.008zm-6.015 16.291c2.73.007 5.35-1.079 7.275-3.015a10.29 10.29 0 0 0 3.014-7.278c0-5.684-4.608-10.292-10.292-10.291-5.684 0-10.292 4.608-10.292 10.292.001 5.684 4.61 10.292 10.293 10.292zm2.24 5.156a.899.899 0 0 0-.944-.662c-.86.074-1.727.074-2.587 0a.9.9 0 0 0-.945.662l-.758 2.832a2.223 2.223 0 0 1-3.548-.951l.757-2.826a.899.899 0 0 0-.489-1.046 14.92 14.92 0 0 1-2.236-1.3.9.9 0 0 0-1.15.1l-2.075 2.074a2.225 2.225 0 0 1-2.6-2.6l2.073-2.073a.9.9 0 0 0 .1-1.151 14.879 14.879 0 0 1-1.299-2.236.899.899 0 0 0-1.046-.488l-2.827.757a2.225 2.225 0 0 1-.95-3.548l2.832-.759a.903.903 0 0 0 .663-.945 15.093 15.093 0 0 1 0-2.587.901.901 0 0 0-.663-.945l-2.832-.759a2.223 2.223 0 0 1 .952-3.547l2.826.757a.901.901 0 0 0 1.046-.488c.367-.783.802-1.531 1.3-2.238a.9.9 0 0 0-.1-1.151l-2.074-2.073a2.223 2.223 0 0 1 2.6-2.599l2.073 2.073a.9.9 0 0 0 1.151.099 14.92 14.92 0 0 1 2.236-1.3.9.9 0 0 0 .488-1.046l-.757-2.826a2.223 2.223 0 0 1 3.548-.95l.758 2.832a.893.893 0 0 0 .945.662c.86-.073 1.726-.073 2.587 0a.892.892 0 0 0 .943-.662l.758-2.832a3.924 3.924 0 0 1 2.026-.462 4.004 4.004 0 0 1 1.522 1.412l-.756 2.826a.9.9 0 0 0 .487 1.046c.782.368 1.53.803 2.236 1.3a.9.9 0 0 0 1.151-.099l2.071-2.073a2.222 2.222 0 0 1 2.601 2.599l-2.072 2.073a.9.9 0 0 0-.1 1.151c.497.707.932 1.455 1.3 2.236a.898.898 0 0 0 1.045.489l2.828-.756a2.224 2.224 0 0 1 .951 3.547l-2.833.759a.899.899 0 0 0-.662.944 15.32 15.32 0 0 1 0 2.588.899.899 0 0 0 .662.944l2.833.759a2.222 2.222 0 0 1-.951 3.548l-2.828-.756a.898.898 0 0 0-1.045.489c-.368.781-.803 1.529-1.3 2.235a.9.9 0 0 0 .1 1.151l2.073 2.073a2.223 2.223 0 0 1-2.6 2.599l-2.072-2.073a.9.9 0 0 0-1.152-.099c-.705.497-1.452.932-2.234 1.3a.899.899 0 0 0-.487 1.046l.756 2.827a3.978 3.978 0 0 1-1.522 1.411 4.04 4.04 0 0 1-2.026-.462zm-7.008 5.116a7.147 7.147 0 0 0 2.96-.868.901.901 0 0 0 .442-.559l.673-2.516c.463.019.927.019 1.387 0l.673 2.516a.901.901 0 0 0 .442.559c.366.197 2.264 1.158 3.678.779 1.414-.379 2.577-2.16 2.794-2.513a.899.899 0 0 0 .1-.705l-.67-2.509c.405-.216.805-.449 1.2-.7l1.838 1.839a.909.909 0 0 0 .662.263c.414-.013 2.538-.129 3.574-1.164s1.151-3.159 1.164-3.574a.9.9 0 0 0-.263-.662l-1.839-1.839c.254-.393.487-.795.7-1.2l2.51.672a.907.907 0 0 0 .705-.1c.353-.218 2.134-1.379 2.513-2.794.38-1.415-.578-3.312-.779-3.678a.896.896 0 0 0-.559-.442l-2.516-.674a16.9 16.9 0 0 0 0-1.387l2.516-.674a.896.896 0 0 0 .56-.442c.195-.366 1.158-2.258.778-3.677-.379-1.419-2.16-2.581-2.513-2.8a.899.899 0 0 0-.705-.1l-2.51.673c-.218-.405-.45-.807-.7-1.2l1.84-1.84a.9.9 0 0 0 .262-.662c-.013-.414-.13-2.539-1.164-3.574-1.034-1.035-3.158-1.151-3.574-1.164a.909.909 0 0 0-.662.263l-1.84 1.84a15.73 15.73 0 0 0-1.2-.7l.671-2.51a.899.899 0 0 0-.1-.705c-.217-.352-1.379-2.134-2.794-2.513-1.415-.38-3.313.58-3.678.78a.901.901 0 0 0-.442.559l-.673 2.515c-.46-.02-.926-.02-1.387 0l-.673-2.515a.903.903 0 0 0-.44-.56c-.366-.196-2.258-1.158-3.678-.779-1.42.379-2.582 2.16-2.8 2.513a.9.9 0 0 0-.1.705l.673 2.51c-.406.216-.806.449-1.2.7l-1.84-1.84a.882.882 0 0 0-.663-.263c-.414.013-2.539.128-3.575 1.164-1.035 1.036-1.15 3.159-1.164 3.574a.904.904 0 0 0 .263.662l1.84 1.84c-.253.394-.486.794-.7 1.2l-2.51-.673a.9.9 0 0 0-.705.1c-.352.223-2.134 1.385-2.513 2.8-.379 1.415.58 3.311.78 3.677.118.218.32.378.56.442l2.514.674c-.02.462-.02.925 0 1.387l-2.515.674a.901.901 0 0 0-.559.442c-.197.366-1.159 2.264-.78 3.678.38 1.414 2.16 2.576 2.513 2.794a.908.908 0 0 0 .705.1l2.51-.672c.216.405.45.806.7 1.2l-1.84 1.84a.904.904 0 0 0-.263.662c.013.415.128 2.538 1.164 3.574s3.16 1.151 3.575 1.164a.881.881 0 0 0 .663-.263l1.84-1.839c.392.254.794.486 1.2.7l-.673 2.509a.9.9 0 0 0 .1.705c.223.353 1.385 2.134 2.8 2.513.234.06.475.09.717.088z"/></g></g><g><g><g><path fill="#fff" d="M45.53 60.637V50.061a5.507 5.507 0 0 0 4.523-4.523h10.583c-.464 8.141-6.96 14.639-15.102 15.105zm-16.9-15.105h10.583a5.509 5.509 0 0 0 4.523 4.523v10.582c-8.139-.465-14.637-6.96-15.104-15.099zm15.108-16.896h-.002v-.004zm-.002 10.579a5.507 5.507 0 0 0-4.523 4.523H28.63c.467-8.141 6.965-14.638 15.106-15.102zm.9 9.126a3.706 3.706 0 1 1 3.7-3.71v.01a3.71 3.71 0 0 1-3.7 3.704zm5.417-4.6a5.505 5.505 0 0 0-4.523-4.523V28.636c8.144.462 14.645 6.961 15.11 15.105zm-5.417-16.947c-9.856 0-17.846 7.99-17.846 17.846s7.991 17.846 17.847 17.846c9.856 0 17.845-7.99 17.845-17.846-.01-9.852-7.994-17.835-17.846-17.846z"/></g></g><g><g><path fill="#fff" d="M66.612 47.687a22.064 22.064 0 0 1-1.417 5.3.9.9 0 0 0 .381 1.116l1.92 1.108c1.11 1.521 1.992 3.275 1.9 3.684-.345.339-2.306.454-4.176.253l-1.925-1.11a.9.9 0 0 0-1.158.226 22.407 22.407 0 0 1-3.88 3.88.899.899 0 0 0-.226 1.158l1.11 1.925c.201 1.87.088 3.83-.192 4.141-.469.125-2.223-.758-3.744-1.868l-1.108-1.92a.9.9 0 0 0-1.117-.382 22.05 22.05 0 0 1-5.3 1.417.898.898 0 0 0-.774.889v2.221c-.763 1.721-1.839 3.361-2.237 3.49-.467-.129-1.546-1.769-2.309-3.49v-2.218a.9.9 0 0 0-.776-.889 22.064 22.064 0 0 1-5.3-1.417.9.9 0 0 0-1.117.382l-1.108 1.92c-1.518 1.109-3.265 2.005-3.682 1.9-.339-.345-.455-2.305-.254-4.177l1.111-1.925a.902.902 0 0 0-.226-1.157 22.344 22.344 0 0 1-3.88-3.881.9.9 0 0 0-1.159-.226l-1.925 1.11c-1.87.2-3.83.089-4.142-.19-.12-.469.758-2.224 1.87-3.746l1.92-1.108a.9.9 0 0 0 .382-1.116 22.062 22.062 0 0 1-1.417-5.3.899.899 0 0 0-.89-.776h-2.22c-1.722-.762-3.362-1.839-3.49-2.237.128-.466 1.77-1.546 3.49-2.309h2.22a.9.9 0 0 0 .89-.775c.25-1.819.726-3.599 1.417-5.3a.9.9 0 0 0-.382-1.117l-1.92-1.109c-1.11-1.519-1.992-3.273-1.9-3.682.344-.34 2.3-.458 4.177-.254l1.925 1.111a.901.901 0 0 0 1.158-.225 22.326 22.326 0 0 1 3.88-3.88.901.901 0 0 0 .226-1.158l-1.11-1.925c-.2-1.872-.089-3.831.19-4.142.465-.114 2.226.76 3.746 1.869l1.108 1.919a.9.9 0 0 0 1.117.383 22.051 22.051 0 0 1 5.3-1.417.9.9 0 0 0 .775-.89v-2.221c.763-1.721 1.84-3.361 2.237-3.49.466.129 1.546 1.769 2.31 3.49v2.221a.901.901 0 0 0 .774.89c1.82.25 3.6.726 5.3 1.417a.9.9 0 0 0 1.117-.383l1.108-1.919c1.521-1.111 3.292-1.993 3.682-1.905.34.346.455 2.306.253 4.178l-1.11 1.925a.9.9 0 0 0 .226 1.158 22.331 22.331 0 0 1 3.88 3.88.901.901 0 0 0 1.158.225l1.925-1.112c1.872-.2 3.831-.088 4.141.193.123.468-.758 2.224-1.869 3.745l-1.92 1.109a.9.9 0 0 0-.38 1.117 22.051 22.051 0 0 1 1.416 5.3.9.9 0 0 0 .89.775h2.221c1.721.762 3.361 1.839 3.49 2.237-.129.467-1.769 1.547-3.49 2.309h-2.22a.898.898 0 0 0-.889.775zm3.3 1.02a.888.888 0 0 0 .352-.072c1.772-.759 4.744-2.288 4.744-4 0-1.712-2.972-3.238-4.744-4a.873.873 0 0 0-.353-.073h-1.638a23.834 23.834 0 0 0-1.13-4.227l1.416-.818a.903.903 0 0 0 .271-.24c1.154-1.542 2.963-4.351 2.108-5.832-.855-1.481-4.193-1.317-6.1-1.09a.897.897 0 0 0-.343.114l-1.422.821a24.062 24.062 0 0 0-3.09-3.091l.82-1.422a.89.89 0 0 0 .113-.343c.228-1.913.39-5.252-1.09-6.106-1.48-.854-4.288.955-5.832 2.109a.912.912 0 0 0-.24.27l-.818 1.416a23.744 23.744 0 0 0-4.227-1.13v-1.638a.897.897 0 0 0-.073-.354c-.759-1.772-2.288-4.743-4-4.743-1.712 0-3.237 2.97-4 4.743a.894.894 0 0 0-.073.354v1.638a23.745 23.745 0 0 0-4.227 1.13l-.817-1.416a.927.927 0 0 0-.24-.27c-1.543-1.154-4.354-2.958-5.833-2.109-1.479.849-1.318 4.193-1.09 6.106a.907.907 0 0 0 .113.343l.821 1.422a24.143 24.143 0 0 0-3.092 3.091l-1.42-.821a.915.915 0 0 0-.343-.114c-1.913-.226-5.252-.39-6.106 1.091-.854 1.481.956 4.289 2.11 5.831a.903.903 0 0 0 .271.24l1.415.818a23.837 23.837 0 0 0-1.129 4.227h-1.638a.878.878 0 0 0-.354.073c-1.77.759-4.743 2.288-4.743 4 0 1.712 2.972 3.238 4.743 4a.893.893 0 0 0 .354.073h1.638c.246 1.44.624 2.855 1.13 4.227l-1.416.817a.891.891 0 0 0-.27.24c-1.155 1.543-2.964 4.352-2.11 5.833.852 1.481 4.2 1.319 6.105 1.089a.933.933 0 0 0 .343-.114l1.42-.82a24.338 24.338 0 0 0 3.092 3.091l-.82 1.422a.901.901 0 0 0-.114.343c-.228 1.913-.39 5.251 1.09 6.1 1.48.849 4.291-.955 5.833-2.109a.912.912 0 0 0 .24-.27l.817-1.416c1.371.505 2.786.883 4.227 1.13v1.646c0 .121.025.241.073.353.76 1.772 2.287 4.743 4 4.743s3.238-2.971 4-4.743a.896.896 0 0 0 .073-.353v-1.64a23.922 23.922 0 0 0 4.227-1.13l.818 1.416a.912.912 0 0 0 .24.27c1.542 1.154 4.35 2.964 5.832 2.109 1.483-.855 1.317-4.192 1.09-6.1a.885.885 0 0 0-.114-.343l-.819-1.422a24.189 24.189 0 0 0 3.09-3.091l1.422.82c.106.06.223.099.343.114 1.914.23 5.252.391 6.1-1.089.848-1.48-.955-4.29-2.108-5.833a.89.89 0 0 0-.27-.24l-1.417-.817a23.88 23.88 0 0 0 1.13-4.227z"/></g></g></g></g></g></svg>