<svg xmlns="http://www.w3.org/2000/svg" width="38" height="54" viewBox="0 0 38 54"><g><g><g><path fill="#fff" d="M28.306 24.084c-6.434-10.406-13.392-10.736-13.392-10.736-4.984-.428-10.58 2.593-13.3 10.145C.389 26.4-.108 29.674.55 32.96c1.382 6.926 7.9 13.895 23.577 17.564.128.03.266.005.375-.07a23.546 23.546 0 0 0 2.152-1.693.461.461 0 0 0-.23-.801C-7.729 42.22 3.45 14.937 14.981 16.655c8.895 1.132 10.067 12.944 19.642 19.43.24.149.56.034.662-.23a63.8 63.8 0 0 0 .725-2.035.473.473 0 0 0-.128-.485c-3.917-3.949-6.411-7.366-7.576-9.25z"/></g><g><path fill="#fff" d="M18.898 33.406c-1.728-2.26-3.377-6.872-4.767-4.977 0 0-3.122 5.582 8.281 10.681 1.122.501 1.538-.198.643-.942-1.071-.89-2.625-2.76-4.157-4.762z"/></g><g><path fill="#fff" d="M6.643 49.866c-1.956-1.725-3.228-4.166-3.92-5.799-.175-.415.336-.769.668-.464 5.126 4.682 11.694 7.287 15.85 8.538.443.133.432.756-.013.882-1.54.44-3.096.618-4.637.509l-.023-.001c-3.078-.993-5.9-2.459-7.925-3.665z"/></g><g><path fill="#fff" d="M33.382 39.991c.153-.275.093-.66-.192-.79-3.222-1.471-8.323-6.885-12.492-14.426-2.46-4.448-6.66-7.818-10.684-3.376-.01.011-13.903 18.247 19.315 24.251a.472.472 0 0 0 .45-.163c.288-.356.571-.72.85-1.095a.459.459 0 0 0-.281-.72c-5.872-1.212-21.91-5.584-19.452-16.57l.007-.028c.095-.353 2.51-6.94 5.94-2.087 0 0 8.416 15.481 15.188 16.653a.587.587 0 0 0 .603-.304z"/></g><g><path fill="#fff" d="M37.593 26.348C28.252 8.173 16.625 5.302 8.457 9.006a.463.463 0 0 0-.18.142 35.191 35.191 0 0 0-1.547 2.214c-.258.396.177.875.596.656 2.213-1.154 5.361-2.322 10.179-1.23 0 0 6.425.666 14.48 12.038 0 0 2.863 4.389 4.484 6.355a.46.46 0 0 0 .805-.204c.15-.764.277-1.524.381-2.28z"/></g><g><path fill="#fff" d="M37.077 20.12c.17.284.903.316.89-.258a32.438 32.438 0 0 0-.25-2.764.499.499 0 0 0-.043-.147c-.114-.24-.21-.449-.34-.708-5.546-11.14-17.65-13.047-21.78-13.45a.455.455 0 0 0-.273.06 20.636 20.636 0 0 0-2.487 1.649c-.36.281-.132.857.324.821 5.17-.4 15.897 1.408 23.96 14.798z"/></g><g><path fill="#fff" d="M33.066 6.895c.403.366 1-.164.683-.607-1.934-2.715-4.472-4.645-7.504-5.452A12.18 12.18 0 0 0 23.867.45c-.537-.033-.687.731-.177.897 2.627.85 5.986 2.471 9.376 5.548z"/></g></g></g></svg>