<svg xmlns="http://www.w3.org/2000/svg" width="66" height="63" viewBox="0 0 66 63"><g><g><g><path fill="#53575a" d="M26.724 57.643h-3.401v-22.45h3.4zm-5.442 1.02c0 .939-.764 1.7-1.701 1.7H2.914v-26.53h18.368zM36.82 31.908c.466-.93 1.39-2.222 2.678-3.732a11.976 11.976 0 0 0 2.872-7.754v-3.925c.007-.402.151-1.711 1.7-1.711 1.832 0 3.062 3.417 3.062 8.503 0 2.025-.192 4.084-.567 6.123a3.73 3.73 0 0 0 .8 3.074 3.724 3.724 0 0 0 2.876 1.347h10.831c.797 0 1.539.395 1.984 1.056.461.686.53 1.521.194 2.348-.33.813-1.205 1.357-2.26 1.358a1.02 1.02 0 0 0 0 2.041 2.385 2.385 0 0 1 2.37 2.631c-.12 1.195-1.246 2.13-2.564 2.13h-1.167a1.02 1.02 0 0 0 0 2.042 2.385 2.385 0 0 1 2.37 2.631c-.12 1.195-1.245 2.13-2.564 2.13h-1.167a1.02 1.02 0 0 0 0 2.041 2.385 2.385 0 0 1 2.37 2.632c-.12 1.194-1.245 2.13-2.563 2.13H38.65c-2.744 0-5.362-.877-7.571-2.54a.98.98 0 0 0-.596-.197.987.987 0 0 0-.19.016h-1.528v-20.19c2.747-.645 6.945-1.965 8.055-4.184zm-35.946.905v28.571c0 .564.457 1.02 1.02 1.02h17.687c1.708 0 3.135-1.154 3.582-2.72h4.581a1.02 1.02 0 0 0 1.02-1.02v-.341h1.402a14.51 14.51 0 0 0 8.484 2.721h19.425c2.352 0 4.371-1.743 4.593-3.97a4.44 4.44 0 0 0-1.065-3.356c1.32-.68 2.277-1.954 2.426-3.447a4.441 4.441 0 0 0-1.066-3.356c1.321-.679 2.278-1.954 2.426-3.446a4.443 4.443 0 0 0-1.12-3.42 4.711 4.711 0 0 0-.391-.38 4.085 4.085 0 0 0 1.263-1.663c.59-1.457.447-3.008-.393-4.257a4.424 4.424 0 0 0-3.676-1.957H50.241a1.695 1.695 0 0 1-1.67-2.008c.4-2.162.602-4.347.602-6.495 0-6.601-1.908-10.544-5.102-10.544-2.746 0-3.742 2.238-3.742 3.741v3.936a9.922 9.922 0 0 1-2.385 6.429c-1.41 1.66-2.404 3.054-2.95 4.146-.59 1.178-3.504 2.293-6.266 2.995-.088-.473-.484-.839-.984-.839h-4.421v-.34a1.02 1.02 0 0 0-1.02-1.02H1.893a1.02 1.02 0 0 0-1.02 1.02z"/></g><g><path fill="#53575a" d="M16.86 53.561a1.02 1.02 0 0 0-1.02 1.02v1.361c0 .121.03.233.069.34.14.395.509.68.95.68.443 0 .812-.285.952-.68.038-.107.07-.219.07-.34v-1.36a1.02 1.02 0 0 0-1.021-1.02z"/></g><g><path fill="#53575a" d="M22.302 2.54c6.19 0 11.225 5.036 11.225 11.225 0 6.19-5.036 11.225-11.225 11.225s-11.224-5.036-11.224-11.225S16.113 2.541 22.302 2.541zm13.265 11.225C35.567 6.451 29.617.5 22.302.5 14.988.5 9.037 6.451 9.037 13.765c0 7.315 5.95 13.266 13.265 13.266 7.314 0 13.265-5.951 13.265-13.266z"/></g><g><path fill="#53575a" d="M22.302 18.284c-1.29 0-2.38-.78-2.38-1.701a1.02 1.02 0 1 0-2.042 0c0 1.763 1.456 3.238 3.402 3.63v.546a1.02 1.02 0 0 0 2.04 0v-.546c1.946-.392 3.402-1.867 3.402-3.63 0-2.052-2.148-2.912-4.044-3.67-1.228-.49-2.759-1.103-2.759-1.772 0-.923 1.091-1.7 2.381-1.7 1.29 0 2.381.777 2.381 1.7a1.02 1.02 0 0 0 2.04 0c0-1.765-1.455-3.24-3.4-3.631v-.547a1.02 1.02 0 0 0-2.041 0v.547c-1.946.391-3.402 1.866-3.402 3.63 0 2.051 2.149 2.911 4.044 3.669 1.228.491 2.76 1.103 2.76 1.774 0 .921-1.092 1.7-2.382 1.7z"/></g></g></g></svg>