<svg xmlns="http://www.w3.org/2000/svg" width="67" height="52" viewBox="0 0 67 52"><g><g><g><path fill="#53575a" d="M57.194 14.956H1.064a1.064 1.064 0 1 1 0-2.13h56.13a1.065 1.065 0 0 1 0 2.13z"/></g><g><path fill="#53575a" d="M64.166 37.138c0 7.021-5.711 12.732-12.732 12.732-7.022 0-12.733-5.71-12.733-12.732 0-7.021 5.711-12.732 12.733-12.732 7.02 0 12.732 5.71 12.732 12.732zm2.13 0c0-8.195-6.668-14.862-14.862-14.862-8.195 0-14.862 6.667-14.862 14.862C36.572 45.334 43.239 52 51.434 52c8.194 0 14.862-6.666 14.862-14.862z"/></g><g><path fill="#53575a" d="M10.074 21.305v.161a1.308 1.308 0 0 1-2.616 0v-.161a1.31 1.31 0 0 1 1.308-1.31 1.31 1.31 0 0 1 1.308 1.31zm2.13.161v-.161a3.442 3.442 0 0 0-3.438-3.439 3.442 3.442 0 0 0-3.438 3.439v.161a3.442 3.442 0 0 0 3.438 3.438 3.442 3.442 0 0 0 3.438-3.438z"/></g><g><path fill="#53575a" d="M10.074 31.072v.162a1.308 1.308 0 0 1-2.616 0v-.162a1.308 1.308 0 0 1 2.616 0zm2.13.162v-.162a3.441 3.441 0 0 0-3.438-3.437 3.441 3.441 0 0 0-3.438 3.437v.162a3.442 3.442 0 0 0 3.438 3.437 3.442 3.442 0 0 0 3.438-3.437z"/></g><g><path fill="#53575a" d="M20.89 21.305v.161a1.308 1.308 0 0 1-2.615 0v-.161a1.31 1.31 0 0 1 1.307-1.31 1.31 1.31 0 0 1 1.308 1.31zm2.13.161v-.161a3.442 3.442 0 0 0-3.438-3.439 3.441 3.441 0 0 0-3.437 3.439v.161a3.441 3.441 0 0 0 3.437 3.438 3.442 3.442 0 0 0 3.439-3.438z"/></g><g><path fill="#53575a" d="M20.89 31.072v.162a1.308 1.308 0 0 1-2.615 0v-.162a1.308 1.308 0 0 1 2.615 0zm2.13.162v-.162a3.441 3.441 0 0 0-3.438-3.437 3.44 3.44 0 0 0-3.437 3.437v.162a3.44 3.44 0 0 0 3.437 3.437 3.442 3.442 0 0 0 3.439-3.437z"/></g><g><path fill="#53575a" d="M31.707 21.305v.161a1.308 1.308 0 0 1-2.616 0v-.161a1.31 1.31 0 0 1 1.307-1.31 1.31 1.31 0 0 1 1.309 1.31zm2.13.161v-.161a3.442 3.442 0 0 0-3.439-3.439 3.442 3.442 0 0 0-3.437 3.439v.161a3.442 3.442 0 0 0 3.437 3.438 3.442 3.442 0 0 0 3.439-3.438z"/></g><g><path fill="#53575a" d="M39.76 24.406c-.227 0-.457-.072-.652-.224a3.413 3.413 0 0 1-1.331-2.716v-.161a3.442 3.442 0 0 1 3.437-3.439c1.086 0 2.087.498 2.742 1.364a1.065 1.065 0 0 1-1.697 1.286c-.25-.33-.63-.52-1.044-.52a1.31 1.31 0 0 0-1.309 1.309v.161c0 .407.186.783.508 1.035a1.064 1.064 0 0 1-.654 1.905z"/></g><g><path fill="#53575a" d="M31.707 31.072v.162a1.308 1.308 0 0 1-2.616 0v-.162a1.308 1.308 0 0 1 2.616 0zm2.13.162v-.162a3.441 3.441 0 0 0-3.439-3.437 3.44 3.44 0 0 0-3.437 3.437v.162a3.442 3.442 0 0 0 3.437 3.437 3.442 3.442 0 0 0 3.439-3.437z"/></g><g><path fill="#53575a" d="M10.074 40.84V41a1.308 1.308 0 0 1-2.616 0v-.162a1.308 1.308 0 0 1 2.616 0zm2.13.161v-.162a3.442 3.442 0 0 0-3.438-3.437 3.442 3.442 0 0 0-3.438 3.437v.162a3.442 3.442 0 0 0 3.438 3.439A3.442 3.442 0 0 0 12.204 41z"/></g><g><path fill="#53575a" d="M20.89 40.84V41a1.308 1.308 0 0 1-2.615 0v-.162a1.308 1.308 0 0 1 2.615 0zm2.13.161v-.162a3.442 3.442 0 0 0-3.438-3.437 3.441 3.441 0 0 0-3.437 3.437v.162a3.441 3.441 0 0 0 3.437 3.439A3.442 3.442 0 0 0 23.021 41z"/></g><g><path fill="#53575a" d="M31.707 40.84V41a1.308 1.308 0 0 1-2.616 0v-.162a1.308 1.308 0 0 1 2.616 0zm2.13.161v-.162a3.442 3.442 0 0 0-3.439-3.437 3.442 3.442 0 0 0-3.437 3.437v.162a3.442 3.442 0 0 0 3.437 3.439A3.442 3.442 0 0 0 33.837 41z"/></g><g><path fill="#53575a" d="M44.88 44.757a1.065 1.065 0 0 1-.753-1.818L57.234 29.83a1.065 1.065 0 0 1 1.506 1.506L45.633 44.445c-.207.207-.48.312-.753.312z"/></g><g><path fill="#53575a" d="M50.477 31.508a1.029 1.029 0 0 1-2.055 0 1.03 1.03 0 0 1 1.028-1.029c.566 0 1.027.462 1.027 1.029zm2.13 0a3.16 3.16 0 0 0-3.157-3.158 3.16 3.16 0 0 0-3.158 3.158 3.16 3.16 0 0 0 3.158 3.157 3.16 3.16 0 0 0 3.157-3.157z"/></g><g><path fill="#53575a" d="M54.445 42.768a1.029 1.029 0 1 1-1.028-1.027c.567 0 1.028.461 1.028 1.027zm2.13 0a3.16 3.16 0 0 0-3.158-3.157 3.16 3.16 0 0 0-3.157 3.157 3.16 3.16 0 0 0 3.157 3.158 3.16 3.16 0 0 0 3.158-3.158z"/></g><g><path fill="#53575a" d="M9.312 3.142v5.006a1.012 1.012 0 0 1-2.022 0V3.142a1.012 1.012 0 0 1 2.022 0zm2.13 5.006V3.142A3.145 3.145 0 0 0 8.3 0 3.146 3.146 0 0 0 5.16 3.142v5.006c0 1.732 1.41 3.14 3.141 3.14a3.144 3.144 0 0 0 3.142-3.14z"/></g><g><path fill="#53575a" d="M19.726 3.142v5.006a1.012 1.012 0 0 1-2.022 0V3.142a1.012 1.012 0 0 1 2.022 0zm2.13 5.006V3.142A3.145 3.145 0 0 0 18.714 0a3.146 3.146 0 0 0-3.141 3.142v5.006c0 1.732 1.41 3.14 3.141 3.14a3.144 3.144 0 0 0 3.142-3.14z"/></g><g><path fill="#53575a" d="M30.14 3.142v5.006a1.012 1.012 0 0 1-2.022 0V3.142a1.012 1.012 0 0 1 2.022 0zm2.13 5.006V3.142A3.145 3.145 0 0 0 29.13 0a3.145 3.145 0 0 0-3.14 3.142v5.006a3.144 3.144 0 0 0 3.14 3.14 3.144 3.144 0 0 0 3.141-3.14z"/></g><g><path fill="#53575a" d="M40.555 3.142v5.006a1.012 1.012 0 0 1-2.023 0V3.142a1.012 1.012 0 0 1 2.023 0zm2.13 5.006V3.142A3.146 3.146 0 0 0 39.545 0a3.145 3.145 0 0 0-3.142 3.142v5.006a3.144 3.144 0 0 0 3.142 3.14 3.145 3.145 0 0 0 3.142-3.14z"/></g><g><path fill="#53575a" d="M50.969 3.142v5.006a1.012 1.012 0 0 1-2.023 0V3.142a1.012 1.012 0 0 1 2.023 0zm2.13 5.006V3.142A3.146 3.146 0 0 0 49.96 0a3.145 3.145 0 0 0-3.143 3.142v5.006a3.144 3.144 0 0 0 3.142 3.14 3.145 3.145 0 0 0 3.142-3.14z"/></g><g><path fill="#53575a" d="M40.307 52H4.296A4.3 4.3 0 0 1 0 47.704V9.359a4.302 4.302 0 0 1 4.296-4.296h1.928c.588 0 1.066.478 1.066 1.065v2.019a1.012 1.012 0 0 0 2.022 0V6.128c0-.587.478-1.065 1.065-1.065h6.262c.587 0 1.065.478 1.065 1.065v2.019a1.012 1.012 0 0 0 2.022 0V6.128c0-.587.478-1.065 1.065-1.065h6.262c.587 0 1.065.478 1.065 1.065v2.019a1.012 1.012 0 0 0 2.022 0V6.128c0-.587.478-1.065 1.065-1.065h6.262c.588 0 1.065.478 1.065 1.065v2.019a1.012 1.012 0 0 0 2.023 0V6.128c0-.587.477-1.065 1.064-1.065h6.262c.589 0 1.065.478 1.065 1.065v2.019a1.012 1.012 0 0 0 2.022 0V6.128c0-.587.478-1.065 1.067-1.065h1.928a4.302 4.302 0 0 1 4.296 4.296v10.786a1.064 1.064 0 1 1-2.13 0V9.359a2.17 2.17 0 0 0-2.166-2.166H53.1v.954a3.146 3.146 0 0 1-3.142 3.141 3.145 3.145 0 0 1-3.142-3.141v-.954h-4.13v.954a3.146 3.146 0 0 1-3.142 3.141 3.145 3.145 0 0 1-3.142-3.141v-.954H32.27v.954a3.145 3.145 0 0 1-3.141 3.141 3.145 3.145 0 0 1-3.14-3.141v-.954h-4.133v.954a3.145 3.145 0 0 1-3.142 3.141 3.146 3.146 0 0 1-3.141-3.141v-.954h-4.131v.954A3.145 3.145 0 0 1 8.3 11.288 3.146 3.146 0 0 1 5.16 8.147v-.954h-.863a2.17 2.17 0 0 0-2.167 2.166v38.345c0 1.195.972 2.166 2.167 2.166h36.011a1.066 1.066 0 1 1 0 2.13z"/></g></g></g></svg>