<svg xmlns="http://www.w3.org/2000/svg" width="100" height="92" viewBox="0 0 100 92"><g><g><g><g><path fill="#e9933e" d="M16.436 37.256h-2.691V7.702H30.54v15.45h-2.692V10.395H16.436z"/></g></g><g><g><path fill="#e9933e" d="M24.84 91.908H13.745V55.095L4.45 55.07a3.709 3.709 0 0 1-3.47-2.329 3.712 3.712 0 0 1 .819-4.099L50.35.093 98.889 48.63c1.096 1.098 1.41 2.672.816 4.104-.592 1.432-1.925 2.323-3.478 2.326l-43.184.016v-2.692l43.184-.016c.665 0 .926-.508.99-.664.065-.157.24-.7-.23-1.171L50.35 3.898 3.703 50.546a1.048 1.048 0 0 0-.232 1.168c.062.156.323.662.988.665l11.977.032v36.805h8.404z"/></g></g><g><g><g><path fill="#e9933e" d="M32.435 80.942c0-.333.272-.605.606-.605h8.233v-33.25l-7.97 4.296-4.473-7.948 12.22-6.724a6.542 6.542 0 0 1 3.157-.813h7.475v44.439h7.59c.334 0 .606.272.606.605v8.274H32.435zm30.135 0a3.303 3.303 0 0 0-3.297-3.297h-4.899V33.207H44.208a9.246 9.246 0 0 0-4.454 1.147l-14.6 8.034 7.1 12.62 6.329-3.415v26.052H33.04a3.303 3.303 0 0 0-3.297 3.297v10.966H62.57z"/></g></g></g><g><g><g><path fill="#e9933e" d="M79.684 91.908H66.713v-2.692h12.97a2.618 2.618 0 0 0 2.617-2.613 2.62 2.62 0 0 0-2.616-2.617H74.36v-2.691h5.324a5.312 5.312 0 0 1 5.307 5.308 5.311 5.311 0 0 1-5.307 5.305z"/></g></g><g><g><path fill="#e9933e" d="M77.363 83.99h-5.326a5.313 5.313 0 0 1-5.305-5.309 5.31 5.31 0 0 1 5.305-5.305h11.609v2.692h-11.61a2.616 2.616 0 0 0-2.613 2.613 2.618 2.618 0 0 0 2.614 2.616h5.326z"/></g></g><g><g><path fill="#e9933e" d="M99.862 91.908h-3.014c-4.377 0-7.935-3.561-7.935-7.935v-16.08h2.692v16.08a5.25 5.25 0 0 0 5.243 5.243h3.014z"/></g></g><g><g><path fill="#e9933e" d="M83.646 76.067v-2.692h16.215v2.692z"/></g></g></g></g></g></svg>