<svg xmlns="http://www.w3.org/2000/svg" width="84" height="89" viewBox="0 0 84 89"><g><g><g><g><path fill="none" stroke="#e9933e" stroke-miterlimit="20" stroke-width="2" d="M42.152 18.69c.956 0 1.73.775 1.73 1.73v50.647a1.73 1.73 0 0 1-1.73 1.73H3.53a1.73 1.73 0 0 1-1.73-1.73V20.42c0-.956.774-1.73 1.73-1.73z"/></g><g><path fill="none" stroke="#e9933e" stroke-miterlimit="20" stroke-width="2" d="M43.882 36.726H1.8"/></g><g><path fill="none" stroke="#e9933e" stroke-miterlimit="20" stroke-width="2" d="M43.882 48.75H1.8"/></g><g><path fill="none" stroke="#e9933e" stroke-miterlimit="20" stroke-width="2" d="M43.882 60.773H15.827"/></g><g><path fill="none" stroke="#e9933e" stroke-miterlimit="20" stroke-width="2" d="M29.855 72.797v-36.07"/></g><g><path fill="none" stroke="#e9933e" stroke-miterlimit="20" stroke-width="2" d="M15.827 72.797v-36.07"/></g></g><g><path fill="none" stroke="#e9933e" stroke-miterlimit="20" stroke-width="2" d="M22.606 79.733v7.587h59.867v0l-.075-66.281a9.364 9.364 0 0 0-2.725-6.59L69.184 3.91a9.353 9.353 0 0 0-6.632-2.758H22.6v10.604"/></g><g><path fill="none" stroke="#e9933e" stroke-miterlimit="20" stroke-width="2" d="M82.397 19.187v0h-17.96v0-10.95 0"/></g><g><g><path fill="none" stroke="#e9933e" stroke-miterlimit="20" stroke-width="2" d="M55.366 60.273a5 5 0 0 0 5 5h4.999a5 5 0 0 0 5-5v-2.5c0-2.152-1.378-4.32-3.418-5l-8.162-2.722c-2.042-.68-3.42-2.627-3.42-4.777v-2.5c0-2.762 2.238-5 5-5h5c2.762 0 5 2.238 5 5"/></g><g><path fill="none" stroke="#e9933e" stroke-miterlimit="20" stroke-width="2" d="M62.865 65.271V30.274"/></g><g><path fill="none" stroke="#e9933e" stroke-miterlimit="20" stroke-width="2" d="M62.865 65.271v7.5"/></g></g></g></g></svg>