<svg xmlns="http://www.w3.org/2000/svg" width="84" height="118" viewBox="0 0 84 118"><g><g><g><path fill="none" stroke="#fff" stroke-miterlimit="20" stroke-width="2" d="M62.088 52.657c-13.98-22.61-29.1-23.329-29.1-23.329C22.16 28.4 9.999 34.964 4.09 51.373c-2.661 6.32-3.74 13.43-2.312 20.57 3.004 15.05 17.168 30.191 51.23 38.163.279.065.578.013.815-.152a51.174 51.174 0 0 0 4.676-3.678 1.002 1.002 0 0 0-.5-1.74c-74.21-12.47-49.92-71.754-24.864-68.021 19.329 2.46 21.874 28.125 42.679 42.217.52.325 1.217.076 1.438-.497.445-1.145 1.174-3.238 1.576-4.423.128-.375.002-.772-.277-1.054-8.511-8.58-13.932-16.006-16.463-20.1z"/></g><g><path fill="none" stroke="#fff" stroke-miterlimit="20" stroke-width="2" d="M41.646 72.913c-3.754-4.91-7.337-14.933-10.359-10.816 0 0-6.782 12.13 17.995 23.21 2.437 1.089 3.34-.43 1.397-2.046-2.327-1.935-5.705-5.997-9.033-10.348z"/></g><g><path fill="none" stroke="#fff" stroke-miterlimit="20" stroke-width="2" d="M15.018 108.677c-4.25-3.748-7.013-9.052-8.516-12.6-.383-.901.727-1.67 1.45-1.008 11.139 10.173 25.41 15.834 34.44 18.551.962.29.937 1.643-.03 1.918-3.346.956-6.726 1.343-10.074 1.105l-.05-.003c-6.69-2.156-12.82-5.342-17.22-7.963z"/></g><g><path fill="none" stroke="#fff" stroke-miterlimit="20" stroke-width="2" d="M73.118 87.22c.332-.596.202-1.432-.418-1.716-7-3.196-18.083-14.96-27.143-31.347-5.343-9.664-14.47-16.985-23.214-7.334-.021.024-30.21 39.647 41.968 52.694.365.066.743-.068.977-.355a70.573 70.573 0 0 0 1.846-2.378c.433-.583.103-1.418-.61-1.565-12.757-2.633-47.608-12.134-42.264-36.005l.015-.06c.206-.768 5.452-15.08 12.905-4.535 0 0 18.288 33.639 33.002 36.184.528.092 1.05-.192 1.31-.66z"/></g><g><path fill="none" stroke="#fff" stroke-miterlimit="20" stroke-width="2" d="M82.269 57.576c-20.3-39.492-45.562-45.73-63.31-37.682-.155.07-.287.173-.39.308-1.072 1.395-2.255 3.105-3.362 4.812-.56.86.386 1.9 1.296 1.425 4.807-2.508 11.648-5.045 22.116-2.674 0 0 13.961 1.45 31.462 26.16 0 0 6.223 9.535 9.745 13.807.532.646 1.586.379 1.748-.443.328-1.66.603-3.313.828-4.953z"/></g><g><path fill="none" stroke="#fff" stroke-miterlimit="20" stroke-width="2" d="M81.147 44.045c.369.615 1.962.685 1.934-.563a70.488 70.488 0 0 0-.543-6.004 1.084 1.084 0 0 0-.093-.32c-.248-.52-.459-.975-.74-1.538C69.656 11.415 43.356 7.27 34.383 6.394a.987.987 0 0 0-.594.133c-1.935 1.11-3.663 2.223-5.405 3.581-.784.61-.287 1.862.703 1.785C40.32 11.02 63.63 14.95 81.147 44.045z"/></g><g><path fill="none" stroke="#fff" stroke-miterlimit="20" stroke-width="2" d="M72.43 15.308c.876.795 2.172-.356 1.485-1.319-4.202-5.9-9.717-10.092-16.304-11.846a26.468 26.468 0 0 0-5.169-.84c-1.165-.072-1.493 1.59-.384 1.95 5.708 1.848 13.007 5.37 20.373 12.055z"/></g></g></g></svg>