<svg xmlns="http://www.w3.org/2000/svg" width="77" height="77" viewBox="0 0 77 77"><g><g><g><path fill="#53575a" d="M49.403 39.53c.444.13.906.195 1.373.195 2.8 0 5.078-2.279 5.078-5.081 0-2.799-2.278-5.078-5.078-5.078-.467 0-.929.066-1.373.193v-7.455h8.706c.395 0 .762-.19.99-.51.225-.322.28-.732.147-1.104a2.65 2.65 0 0 1-.166-.885 2.665 2.665 0 0 1 2.664-2.663 2.665 2.665 0 0 1 2.664 2.663c0 .28-.056.57-.168.885a1.207 1.207 0 0 0 1.137 1.614h8.707v24.682h-9.473c-.477 0-.91.281-1.105.718-.193.435-.113.945.208 1.298.315.353.694.944.694 1.773a2.665 2.665 0 0 1-2.664 2.662 2.665 2.665 0 0 1-2.664-2.662c0-.83.377-1.42.694-1.773.321-.353.401-.863.208-1.298a1.213 1.213 0 0 0-1.105-.718h-9.474zM21.795 64.39a1.219 1.219 0 0 0-1.103-.15c-.316.113-.606.17-.884.17a2.67 2.67 0 0 1-2.664-2.668 2.665 2.665 0 0 1 2.664-2.662c.278 0 .568.055.884.167a1.207 1.207 0 0 0 1.614-1.137v-8.708h6.809a5 5 0 0 0-.193 1.374c0 2.8 2.279 5.078 5.08 5.078 2.8 0 5.079-2.279 5.079-5.078a5 5 0 0 0-.193-1.374h8.099v7.455a4.981 4.981 0 0 0-1.372-.193 5.086 5.086 0 0 0-5.081 5.078 5.088 5.088 0 0 0 5.08 5.083c.468 0 .928-.066 1.373-.195v7.455H22.306v-8.708c0-.393-.19-.76-.511-.987zm26.893-.884a1.219 1.219 0 0 0-1.302.206 2.627 2.627 0 0 1-1.771.697 2.671 2.671 0 0 1-2.666-2.667 2.667 2.667 0 0 1 2.666-2.662c.826 0 1.419.377 1.771.696.356.317.862.396 1.302.207.434-.196.715-.63.715-1.106v-9.475h7.455a5 5 0 0 0-.193 1.374c0 2.8 2.278 5.078 5.08 5.078 2.8 0 5.079-2.279 5.079-5.078 0-.467-.066-.928-.195-1.374h7.455v24.683H49.403V64.61c0-.477-.28-.91-.715-1.105zM76.5 75.292V21.096c0-.666-.541-1.208-1.208-1.208h-8.468v-.083c0-2.8-2.28-5.078-5.08-5.078-2.8 0-5.08 2.279-5.08 5.078v.083h-8.47c-.666 0-1.207.542-1.207 1.208V31.78c0 .477.282.908.717 1.103.433.192.943.114 1.3-.206a2.624 2.624 0 0 1 1.772-.694 2.664 2.664 0 0 1 0 5.327c-.829 0-1.42-.378-1.773-.694a1.215 1.215 0 0 0-1.3-.207 1.213 1.213 0 0 0-.716 1.104v9.474h-10.12a1.21 1.21 0 0 0-.898 2.017c.32.352.696.943.696 1.772a2.665 2.665 0 0 1-2.664 2.662 2.665 2.665 0 0 1-2.664-2.662c0-.831.379-1.422.695-1.772a1.208 1.208 0 0 0-.897-2.018H21.097c-.667 0-1.208.542-1.208 1.208v8.47c-2.796-.013-5.162 2.253-5.162 5.078 0 2.828 2.366 5.056 5.162 5.083v8.468c0 .667.54 1.208 1.208 1.208h54.194c.667 0 1.208-.541 1.208-1.208z"/></g><g><path fill="#53575a" d="M2.416 2.416H33.82V14.54a1.21 1.21 0 0 0 2.016.899 3.597 3.597 0 0 1 2.413-.944 3.627 3.627 0 0 1 3.623 3.623 3.628 3.628 0 0 1-3.623 3.624 3.604 3.604 0 0 1-2.413-.944 1.208 1.208 0 0 0-2.016.897v12.126H20.89a1.206 1.206 0 0 0-.897 2.016c.609.674.944 1.532.944 2.413a3.628 3.628 0 0 1-3.624 3.624 3.63 3.63 0 0 1-3.624-3.624c0-.88.335-1.74.944-2.413a1.208 1.208 0 0 0-.895-2.016H2.416zM0 35.029c0 .667.54 1.208 1.208 1.208h10.418a5.964 5.964 0 0 0-.353 2.013c0 3.329 2.711 6.04 6.04 6.04 3.33 0 6.04-2.711 6.04-6.04 0-.69-.121-1.37-.352-2.013H35.03c.666 0 1.208-.541 1.208-1.208V23.805c.644.23 1.323.353 2.013.353 3.33 0 6.04-2.71 6.04-6.04s-2.71-6.039-6.04-6.039c-.69 0-1.37.122-2.013.351V1.208C36.237.54 35.695 0 35.029 0H1.208C.54 0 0 .541 0 1.208z"/></g><g><path fill="#53575a" d="M16.339 25.59a1.208 1.208 0 0 0 2.415 0v-.645c2.303-.463 4.027-2.21 4.027-4.298 0-2.429-2.543-3.447-4.787-4.344-1.454-.581-3.266-1.306-3.266-2.098 0-1.092 1.292-2.013 2.818-2.013 1.527 0 2.819.92 2.819 2.013a1.208 1.208 0 0 0 2.416 0c0-2.089-1.724-3.835-4.027-4.299v-.645a1.208 1.208 0 0 0-2.415 0v.645c-2.303.464-4.027 2.21-4.027 4.299 0 2.429 2.543 3.446 4.787 4.342 1.454.581 3.266 1.308 3.266 2.1 0 1.092-1.292 2.013-2.819 2.013-1.526 0-2.818-.921-2.818-2.013a1.208 1.208 0 0 0-2.416 0c0 2.089 1.723 3.835 4.027 4.298z"/></g></g></g></svg>