<svg xmlns="http://www.w3.org/2000/svg" width="448" height="177" viewBox="0 0 448 177"><defs><linearGradient id="qfhxa" x1="128.01" x2="375.72" y1="46.19" y2="46.19" gradientUnits="userSpaceOnUse"><stop offset="0" stop-color="#fff"/><stop offset="1" stop-color="#ffc259"/></linearGradient><linearGradient id="qfhxb" x1="124.42" x2="341.5" y1="115.52" y2="115.52" gradientUnits="userSpaceOnUse"><stop offset="0" stop-color="#fff"/><stop offset=".33" stop-color="#d8dee2"/></linearGradient><linearGradient id="qfhxc" x1="142.73" x2="447.74" y1="80.85" y2="80.85" gradientUnits="userSpaceOnUse"><stop offset="0" stop-color="#fff"/><stop offset=".33" stop-color="#d8dee2"/></linearGradient></defs><g><g><g><path fill="url(#qfhxa)" d="M360.75 61.154H138.595c-8.233 0-9.286-6.737-9.286-14.97s-4.63-14.97 3.603-14.97H360.75c8.233 0 14.97 6.737 14.97 14.97s-6.737 14.97-14.97 14.97z"/></g><g><path fill="url(#qfhxb)" d="M326.534 130.48h-192.83c-8.235 0-9.287-6.736-9.287-14.97h11.643c0-8.233-.077-14.97 8.156-14.97h182.318c8.233 0 14.97 6.737 14.97 14.97 0 8.234-6.737 14.97-14.97 14.97z"/></g><g><path fill="url(#qfhxc)" d="M151.352 95.817a7.902 7.902 0 0 1-7.902-7.902V73.779a7.902 7.902 0 0 1 7.902-7.902h288.492a7.902 7.902 0 0 1 7.902 7.902v14.136a7.902 7.902 0 0 1-7.902 7.902z"/></g><g><g><path fill="#f6780d" d="M93.74 73.839c-10.974-17.75-22.842-18.314-22.842-18.314-8.5-.73-18.049 4.425-22.686 17.306-2.09 4.96-2.937 10.542-1.815 16.148 2.358 11.814 13.477 23.7 40.215 29.959.22.05.455.01.64-.12a40.129 40.129 0 0 0 3.672-2.889.787.787 0 0 0-.393-1.366c-58.255-9.788-39.188-56.327-19.518-53.396 15.173 1.93 17.171 22.08 33.501 33.141.41.254.957.059 1.131-.39.349-.9.92-2.543 1.235-3.473.1-.293.002-.606-.217-.828-6.68-6.734-10.935-12.563-12.922-15.778z"/></g><g><path fill="#f6780d" d="M77.693 89.74c-2.948-3.855-5.76-11.722-8.131-8.49 0 0-5.325 9.521 14.125 18.218 1.913.857 2.624-.337 1.097-1.606-1.826-1.517-4.479-4.706-7.091-8.122z"/></g><g><path fill="#f6780d" d="M56.79 117.814c-3.336-2.942-5.505-7.104-6.686-9.889-.299-.708.572-1.313 1.139-.794 8.745 7.987 19.948 12.43 27.035 14.565.756.227.735 1.288-.022 1.506-2.626.75-5.282 1.053-7.91.866l-.04-.002c-5.249-1.692-10.06-4.193-13.516-6.252z"/></g><g><path fill="#f6780d" d="M102.398 100.97c.262-.467.16-1.125-.328-1.346-5.493-2.508-14.195-11.744-21.308-24.607-4.192-7.587-11.357-13.335-18.22-5.759-.018.019-23.715 31.124 32.943 41.367a.805.805 0 0 0 .766-.28c.492-.605.975-1.228 1.45-1.867.34-.456.08-1.113-.478-1.229-10.014-2.067-37.372-9.525-33.178-28.263l.012-.047c.163-.603 4.28-11.837 10.13-3.56 0 0 14.357 26.406 25.908 28.405.413.072.824-.152 1.028-.519z"/></g><g><path fill="#f6780d" d="M109.582 77.7C93.648 46.699 73.815 41.802 59.883 48.12a.801.801 0 0 0-.307.242c-.84 1.095-1.767 2.436-2.638 3.776-.438.676.303 1.493 1.019 1.12 3.773-1.969 9.142-3.96 17.36-2.1 0 0 10.96 1.14 24.698 20.536 0 0 4.884 7.485 7.65 10.838a.784.784 0 0 0 1.371-.347c.258-1.303.474-2.6.65-3.889z"/></g><g><path fill="#f6780d" d="M108.701 67.08c.29.48 1.54.537 1.52-.442a56.235 56.235 0 0 0-.427-4.715.81.81 0 0 0-.074-.25c-.195-.41-.36-.766-.58-1.209-9.46-19-30.104-22.254-37.15-22.942a.787.787 0 0 0-.465.105c-1.52.871-2.876 1.746-4.244 2.811-.616.48-.225 1.46.553 1.4 8.817-.684 27.117 2.4 40.867 25.241z"/></g><g><path fill="#f6780d" d="M101.858 44.52c.688.624 1.705-.28 1.167-1.036-3.3-4.632-7.629-7.923-12.799-9.3a20.842 20.842 0 0 0-4.057-.659c-.915-.057-1.173 1.249-.302 1.53 4.48 1.452 10.21 4.216 15.991 9.465z"/></g></g><g><path fill="#d8dee2" d="M130.877 78.505c0 29.269-23.728 52.993-52.997 52.993-29.267 0-52.994-23.724-52.994-52.993 0-29.27 23.727-52.997 52.994-52.997 29.27 0 52.997 23.728 52.997 52.997zM77.88.623C34.87.623 0 35.492 0 78.505c0 43.013 34.87 77.878 77.88 77.878 43.014 0 77.88-34.865 77.88-77.878S120.895.623 77.88.623z"/></g><g><g><path fill="#37691e" d="M166.726 120.218c-1.438 0-2.2-1.35-2.2-2.718 0-1.957 1.091-2.787 2.234-2.787 1.282 0 2.182 1.09 2.182 2.77 0 1.748-1.006 2.735-2.216 2.735zm-4.33 4.382c0 .483.26.726.726.726h.745c.485 0 .73-.243.73-.726v-3.118c0-.45-.054-.762-.054-.762h.034s.71 1.351 2.546 1.351c2.321 0 4.053-1.817 4.053-4.624 0-2.734-1.542-4.623-3.931-4.623-2.062 0-2.84 1.56-2.84 1.56h-.034s.017-.156.017-.347v-.4c0-.345-.243-.604-.71-.604h-.556c-.466 0-.725.26-.725.727z"/></g><g><path fill="#37691e" d="M174.608 116.444c.207-1.178 1.004-1.956 2.13-1.956 1.004 0 1.748.727 1.782 1.956zm2.18-3.62c-2.648 0-4.483 1.906-4.483 4.623 0 2.51 1.818 4.624 4.743 4.624a5.576 5.576 0 0 0 2.995-.883c.383-.225.451-.572.243-.97l-.207-.346c-.225-.398-.538-.451-.97-.241-.414.258-1.09.568-1.905.568-1.332 0-2.51-.83-2.649-2.423h5.386a.764.764 0 0 0 .762-.744c0-2.425-1.404-4.208-3.914-4.208z"/></g><g><path fill="#37691e" d="M182.298 113.76c0-.468.242-.727.71-.727h.677c.466 0 .727.26.727.727v.83c0 .33-.053.608-.053.608h.034c.347-1.057 1.317-2.236 2.563-2.236.485 0 .66.243.66.728v.674c0 .468-.279.728-.745.728-1.612 0-2.39 1.595-2.39 3.203v2.84c0 .485-.243.728-.711.728h-.762c-.468 0-.71-.243-.71-.728z"/></g><g><path fill="#37691e" d="M188.362 120.184l.206-.312c.26-.364.555-.398.99-.173.414.226 1.071.606 1.973.606.76 0 1.228-.348 1.228-.901 0-1.436-4.38-.9-4.38-3.931 0-1.732 1.525-2.649 3.376-2.649 1.178 0 1.993.381 2.459.642.398.207.45.57.261.969l-.174.31c-.207.417-.536.47-.97.279-.38-.175-.953-.434-1.68-.434-.762 0-1.194.313-1.194.866 0 1.455 4.38.882 4.38 3.896 0 1.558-1.315 2.719-3.359 2.719a5.18 5.18 0 0 1-2.944-.9c-.398-.225-.434-.606-.172-.987z"/></g><g><path fill="#37691e" d="M198.166 117.447c0-1.626 1.176-2.753 2.614-2.753s2.63 1.127 2.63 2.753c0 1.646-1.192 2.752-2.63 2.752s-2.614-1.106-2.614-2.752zm-2.236 0c0 2.72 2.165 4.624 4.85 4.624 2.682 0 4.865-1.904 4.865-4.624 0-2.702-2.183-4.623-4.865-4.623-2.685 0-4.85 1.921-4.85 4.623z"/></g><g><path fill="#37691e" d="M207.26 113.76c0-.468.243-.727.71-.727h.674c.468 0 .71.26.71.727v.536c0 .192-.034.398-.034.398h.034a3.447 3.447 0 0 1 3.133-1.87c1.96 0 3.083 1.023 3.083 3.359v4.952c0 .485-.243.728-.726.728h-.744c-.468 0-.728-.243-.728-.728v-4.501c0-1.074-.276-1.802-1.385-1.802-1.559 0-2.546 1.3-2.546 2.893v3.41c0 .485-.242.728-.71.728h-.762c-.466 0-.708-.243-.708-.728z"/></g><g><path fill="#37691e" d="M220.474 120.39c-.884 0-1.333-.57-1.333-1.159 0-1.317 1.887-1.49 2.995-1.49h.365v.329c0 1.076-.797 2.32-2.027 2.32zm1.645-3.981c-1.974 0-5.159.433-5.159 3.012 0 1.612 1.315 2.65 2.925 2.65 1.94 0 2.772-1.662 2.772-1.662h.034s-.034.139-.034.381v.345c0 .485.242.728.71.728h.587c.485 0 .728-.243.728-.728v-4.797c0-2.231-1.368-3.514-3.654-3.514a6.254 6.254 0 0 0-2.891.728c-.417.225-.485.57-.279.97l.174.327c.209.417.537.487.97.296.417-.225 1.092-.502 1.836-.502.9 0 1.644.398 1.644 1.557v.209z"/></g><g><path fill="#37691e" d="M226.71 110.297c0-.468.243-.727.711-.727h.764c.468 0 .71.259.71.727v8.638c0 .866.362 1.022.692 1.058.31.036.536.225.536.623v.59c0 .45-.207.744-.728.744-1.176 0-2.684-.313-2.684-2.84z"/></g><g><path fill="#37691e" d="M231.563 113.76c0-.468.242-.727.708-.727h.762c.468 0 .71.259.71.727v7.375c0 .485-.242.727-.71.727h-.762c-.466 0-.708-.242-.708-.727zm0-2.944v-.52c0-.467.242-.726.708-.726h.762c.468 0 .727.259.727.727v.519c0 .466-.26.709-.727.709h-.762c-.466 0-.708-.243-.708-.709z"/></g><g><path fill="#37691e" d="M235.545 120.184l.208-.312c.258-.364.555-.398.987-.173.415.226 1.074.606 1.974.606.762 0 1.23-.348 1.23-.901 0-1.436-4.382-.9-4.382-3.931 0-1.732 1.525-2.649 3.376-2.649 1.178 0 1.993.381 2.459.642.397.207.452.57.26.969l-.173.31c-.207.417-.536.47-.97.279-.381-.175-.953-.434-1.679-.434-.763 0-1.195.313-1.195.866 0 1.455 4.38.882 4.38 3.896 0 1.558-1.315 2.719-3.359 2.719a5.18 5.18 0 0 1-2.944-.9c-.398-.225-.432-.606-.172-.987z"/></g><g><path fill="#37691e" d="M245.434 116.444c.208-1.178 1.004-1.956 2.13-1.956 1.003 0 1.75.727 1.785 1.956zm2.182-3.62c-2.649 0-4.484 1.906-4.484 4.623 0 2.51 1.817 4.624 4.743 4.624a5.576 5.576 0 0 0 2.996-.883c.38-.225.45-.572.242-.97l-.206-.346c-.226-.398-.537-.451-.97-.241-.417.258-1.092.568-1.906.568-1.332 0-2.51-.83-2.649-2.423h5.386a.764.764 0 0 0 .762-.744c0-2.425-1.402-4.208-3.914-4.208z"/></g><g><path fill="#37691e" d="M257.022 120.218c-1.298 0-2.2-1.091-2.2-2.772 0-1.748 1.021-2.733 2.217-2.733 1.489 0 2.2 1.35 2.2 2.717 0 1.958-1.075 2.788-2.217 2.788zm-.415-7.394c-2.34 0-4.001 1.819-4.001 4.622 0 2.738 1.542 4.625 3.929 4.625 2.027 0 2.771-1.523 2.771-1.523h.036s-.036.138-.036.31v.347c0 .432.243.657.71.657h.641c.468 0 .71-.242.71-.727v-10.838c0-.468-.242-.727-.71-.727h-.761c-.468 0-.71.259-.71.727v3.289c0 .278.033.504.033.504h-.034s-.64-1.266-2.578-1.266z"/></g><g><path fill="#37691e" d="M269.408 119.231c0-1.317 1.886-1.49 2.995-1.49h.365v.329c0 1.076-.797 2.32-2.027 2.32-.882 0-1.333-.57-1.333-1.159zm-2.18.19c0 1.612 1.314 2.65 2.924 2.65 1.94 0 2.772-1.662 2.772-1.662h.034s-.034.139-.034.381v.345c0 .485.242.728.71.728h.587c.485 0 .728-.243.728-.728v-4.797c0-2.231-1.368-3.514-3.655-3.514a6.254 6.254 0 0 0-2.89.728c-.417.225-.485.57-.277.97l.172.327c.209.417.538.487.97.296.417-.225 1.092-.502 1.836-.502.9 0 1.644.398 1.644 1.557v.209h-.361c-1.974 0-5.16.433-5.16 3.012z"/></g><g><path fill="#37691e" d="M280.892 120.218c-1.298 0-2.198-1.091-2.198-2.772 0-1.748 1.021-2.733 2.217-2.733 1.489 0 2.197 1.35 2.197 2.717 0 1.958-1.074 2.788-2.216 2.788zm-.415-7.394c-2.338 0-4 1.819-4 4.622 0 2.738 1.54 4.625 3.93 4.625 2.025 0 2.771-1.523 2.771-1.523h.034s-.034.138-.034.31v.347c0 .432.243.657.71.657h.641c.468 0 .71-.242.71-.727v-10.838c0-.468-.242-.727-.71-.727h-.763c-.468 0-.71.259-.71.727v3.289c0 .278.035.504.035.504h-.036s-.638-1.266-2.578-1.266z"/></g><g><path fill="#37691e" d="M286.662 113.864c-.172-.502.034-.831.572-.831h.813c.417 0 .693.19.814.604l1.645 4.867c.174.519.33 1.333.33 1.333h.034s.14-.814.312-1.333l1.645-4.867c.12-.413.4-.604.812-.604h.815c.536 0 .761.33.59.831l-2.668 7.411c-.139.413-.398.587-.813.587h-1.387c-.413 0-.691-.174-.81-.587z"/></g><g><path fill="#37691e" d="M296.45 113.76c0-.468.243-.727.71-.727h.76c.469 0 .711.259.711.727v7.375c0 .485-.242.727-.71.727h-.762c-.466 0-.708-.242-.708-.727zm0-2.944v-.52c0-.467.243-.726.71-.726h.76c.469 0 .728.259.728.727v.519c0 .466-.26.709-.727.709h-.762c-.466 0-.708-.243-.708-.709z"/></g><g><path fill="#37691e" d="M305.057 112.824c1.419 0 2.372.52 2.89.885.365.242.382.604.14.985l-.226.347c-.258.4-.555.4-.968.19a3.096 3.096 0 0 0-1.717-.537c-1.627 0-2.684 1.231-2.684 2.736 0 1.49 1.057 2.77 2.754 2.77.866 0 1.56-.38 1.974-.675.434-.242.762-.19.987.225l.175.33c.206.38.155.727-.192.97a5.254 5.254 0 0 1-3.133 1.021c-2.927 0-4.797-2.06-4.797-4.624 0-2.51 1.87-4.623 4.797-4.623z"/></g><g><path fill="#37691e" d="M311.672 116.444c.209-1.178 1.004-1.956 2.132-1.956 1.002 0 1.748.727 1.782 1.956zm2.183-3.62c-2.649 0-4.484 1.906-4.484 4.623 0 2.51 1.816 4.624 4.743 4.624a5.582 5.582 0 0 0 2.995-.883c.381-.225.45-.572.243-.97l-.207-.346c-.227-.398-.538-.451-.97-.241-.416.258-1.09.568-1.905.568-1.332 0-2.51-.83-2.649-2.423h5.384a.765.765 0 0 0 .764-.744c0-2.425-1.404-4.208-3.914-4.208z"/></g></g><g><g><path fill="#778086" d="M166.74 44.431c0-.468.241-.727.711-.727h.76c.468 0 .71.26.71.727v7.377c0 .485-.242.728-.71.728h-.76c-.47 0-.71-.243-.71-.728zm0-2.942v-.52c0-.469.241-.728.711-.728h.76c.468 0 .73.26.73.727v.521c0 .466-.262.709-.73.709h-.76c-.47 0-.71-.243-.71-.709z"/></g><g><path fill="#778086" d="M171.105 44.431c0-.468.243-.727.71-.727h.675c.468 0 .71.26.71.727v.536c0 .192-.033.398-.033.398h.034a3.447 3.447 0 0 1 3.133-1.87c1.957 0 3.082 1.023 3.082 3.361v4.952c0 .485-.242.728-.727.728h-.745c-.466 0-.727-.243-.727-.728v-4.503c0-1.074-.277-1.8-1.385-1.8-1.557 0-2.544 1.298-2.544 2.891v3.412c0 .485-.243.728-.71.728h-.762c-.468 0-.71-.243-.71-.728z"/></g><g><path fill="#778086" d="M181.394 47.824v-.485c0-.468.26-.71.728-.71h3.758c.466 0 .726.242.726.71v.485c0 .485-.26.728-.726.728h-3.758c-.468 0-.728-.243-.728-.728z"/></g><g><path fill="#778086" d="M188.705 40.968c0-.468.26-.727.727-.727h.745c.485 0 .727.26.727.727v3.567c0 .432-.053.743-.053.743h.036c.432-.847 1.54-1.783 3.063-1.783 1.96 0 3.083 1.023 3.083 3.361v4.952c0 .485-.258.728-.728.728h-.744c-.485 0-.728-.243-.728-.728v-4.503c0-1.074-.274-1.8-1.383-1.8-1.542 0-2.546 1.247-2.546 2.927v3.376c0 .485-.242.728-.727.728h-.745c-.468 0-.727-.243-.727-.728z"/></g><g><path fill="#778086" d="M200.76 48.12c0-1.628 1.177-2.755 2.615-2.755 1.438 0 2.632 1.127 2.632 2.755 0 1.646-1.194 2.752-2.632 2.752-1.438 0-2.616-1.106-2.616-2.752zm-2.234 0c0 2.718 2.165 4.622 4.85 4.622 2.682 0 4.864-1.904 4.864-4.622 0-2.702-2.182-4.625-4.865-4.625-2.684 0-4.85 1.923-4.85 4.625z"/></g><g><path fill="#778086" d="M209.733 44.431c0-.468.261-.727.727-.727h.747c.485 0 .727.26.727.727v4.501c0 1.077.277 1.802 1.366 1.802 1.593 0 2.478-1.402 2.478-2.978v-3.325c0-.468.243-.727.728-.727h.742c.468 0 .728.26.728.727v7.377c0 .485-.26.728-.728.728h-.674c-.468 0-.71-.243-.71-.728v-.52c0-.207.033-.399.033-.399h-.034c-.415.902-1.559 1.853-3.063 1.853-1.889 0-3.067-.95-3.067-3.359z"/></g><g><path fill="#778086" d="M219.764 50.855l.208-.31c.258-.366.555-.4.987-.175.415.226 1.075.607 1.974.607.762 0 1.23-.347 1.23-.9 0-1.438-4.382-.902-4.382-3.931 0-1.734 1.525-2.65 3.376-2.65a4.89 4.89 0 0 1 2.459.642c.398.206.45.572.261.97l-.174.31c-.206.415-.536.468-.97.277-.38-.174-.953-.432-1.678-.432-.764 0-1.196.313-1.196.866 0 1.453 4.38.882 4.38 3.895 0 1.559-1.315 2.718-3.359 2.718a5.166 5.166 0 0 1-2.944-.9c-.397-.225-.432-.606-.172-.987z"/></g><g><path fill="#778086" d="M229.653 47.116c.208-1.178 1.004-1.957 2.131-1.957 1.002 0 1.749.727 1.783 1.957zm2.182-3.62c-2.648 0-4.484 1.905-4.484 4.624 0 2.51 1.817 4.622 4.744 4.622a5.56 5.56 0 0 0 2.995-.883c.38-.225.449-.572.242-.97l-.206-.344c-.225-.4-.538-.451-.97-.243-.417.26-1.091.57-1.906.57-1.332 0-2.51-.831-2.648-2.424h5.384a.765.765 0 0 0 .763-.743c0-2.427-1.402-4.21-3.914-4.21z"/></g><g><path fill="#778086" d="M241.658 40.968c0-.468.242-.727.71-.727h.762c.468 0 .71.26.71.727v8.64c0 .867.364 1.022.694 1.056.31.036.536.225.536.623v.59c0 .45-.209.744-.728.744-1.176 0-2.684-.313-2.684-2.84z"/></g><g><path fill="#778086" d="M248.135 48.12c0-1.628 1.178-2.755 2.616-2.755 1.438 0 2.63 1.127 2.63 2.755 0 1.646-1.192 2.752-2.63 2.752s-2.616-1.106-2.616-2.752zm-2.234 0c0 2.718 2.166 4.622 4.85 4.622 2.683 0 4.865-1.904 4.865-4.622 0-2.702-2.182-4.625-4.865-4.625-2.684 0-4.85 1.923-4.85 4.625z"/></g><g><path fill="#778086" d="M258.738 49.902c0-1.314 1.887-1.489 2.995-1.489h.364v.33c0 1.074-.798 2.319-2.025 2.319-.885 0-1.334-.57-1.334-1.16zm2.978-2.82c-1.974 0-5.16.432-5.16 3.012 0 1.61 1.316 2.648 2.925 2.648 1.942 0 2.771-1.661 2.771-1.661h.036s-.036.138-.036.38v.347c0 .485.243.728.71.728h.59c.483 0 .725-.243.725-.728v-4.797c0-2.233-1.365-3.516-3.652-3.516-1.317 0-2.32.434-2.893.728-.415.225-.485.572-.276.972l.174.326c.206.416.536.486.968.297.417-.225 1.091-.504 1.836-.504.901 0 1.644.398 1.644 1.557v.21h-.362z"/></g><g><path fill="#778086" d="M266.325 44.431c0-.468.243-.727.709-.727h.676c.468 0 .71.26.71.727v.536c0 .192-.035.398-.035.398h.036a3.447 3.447 0 0 1 3.133-1.87c1.957 0 3.082 1.023 3.082 3.361v4.952c0 .485-.242.728-.727.728h-.743c-.468 0-.73-.243-.73-.728v-4.503c0-1.074-.276-1.8-1.382-1.8-1.561 0-2.546 1.298-2.546 2.891v3.412c0 .485-.243.728-.71.728h-.764c-.466 0-.709-.243-.709-.728z"/></g><g><path fill="#778086" d="M282.538 49.902c0-1.314 1.887-1.489 2.995-1.489h.364v.33c0 1.074-.796 2.319-2.025 2.319-.885 0-1.334-.57-1.334-1.16zm2.978-2.82c-1.974 0-5.159.432-5.159 3.012 0 1.61 1.315 2.648 2.925 2.648 1.94 0 2.772-1.661 2.772-1.661h.034s-.034.138-.034.38v.347c0 .485.24.728.71.728h.588c.485 0 .727-.243.727-.728v-4.797c0-2.233-1.368-3.516-3.654-3.516-1.315 0-2.319.434-2.891.728-.417.225-.485.572-.279.972l.175.326c.206.416.536.486.97.297.416-.225 1.09-.504 1.835-.504.9 0 1.645.398 1.645 1.557v.21h-.364z"/></g><g><path fill="#778086" d="M292.256 48.17c0-1.954 1.09-2.786 2.234-2.786 1.28 0 2.18 1.09 2.18 2.77 0 1.748-1.002 2.735-2.216 2.735-1.436 0-2.198-1.348-2.198-2.718zm-2.129 7.101c0 .485.26.728.727.728h.743c.485 0 .728-.243.728-.728v-3.118c0-.449-.052-.762-.052-.762h.034s.71 1.351 2.547 1.351c2.32 0 4.052-1.816 4.052-4.622 0-2.736-1.542-4.625-3.933-4.625-2.06 0-2.84 1.56-2.84 1.56h-.032s.017-.156.017-.345v-.4c0-.347-.242-.606-.71-.606h-.554c-.467 0-.727.26-.727.727z"/></g><g><path fill="#778086" d="M302.702 48.17c0-1.954 1.09-2.786 2.232-2.786 1.282 0 2.182 1.09 2.182 2.77 0 1.748-1.004 2.735-2.216 2.735-1.436 0-2.198-1.348-2.198-2.718zm-2.13 7.101c0 .485.258.728.726.728h.745c.485 0 .727-.243.727-.728v-3.118c0-.449-.053-.762-.053-.762h.036s.71 1.351 2.546 1.351c2.32 0 4.05-1.816 4.05-4.622 0-2.736-1.54-4.625-3.93-4.625-2.061 0-2.84 1.56-2.84 1.56h-.032s.015-.156.015-.345v-.4c0-.347-.242-.606-.71-.606h-.554c-.467 0-.725.26-.725.727z"/></g><g><path fill="#778086" d="M311.017 44.431c0-.468.242-.727.708-.727h.677c.468 0 .725.26.725.727v.832c0 .33-.05.606-.05.606h.035c.345-1.057 1.315-2.235 2.561-2.235.485 0 .66.242.66.727v.676c0 .468-.279.726-.745.726-1.61 0-2.389 1.595-2.389 3.206v2.84c0 .484-.242.727-.71.727h-.764c-.466 0-.708-.243-.708-.728z"/></g><g><path fill="#778086" d="M318.862 48.12c0-1.628 1.178-2.755 2.616-2.755 1.438 0 2.63 1.127 2.63 2.755 0 1.646-1.192 2.752-2.63 2.752s-2.616-1.106-2.616-2.752zm-2.234 0c0 2.718 2.166 4.622 4.85 4.622 2.683 0 4.865-1.904 4.865-4.622 0-2.702-2.183-4.625-4.865-4.625-2.684 0-4.85 1.923-4.85 4.625z"/></g><g><path fill="#778086" d="M327.108 44.535c-.17-.501.036-.831.572-.831h.815c.417 0 .693.191.815.606l1.644 4.865c.172.52.33 1.334.33 1.334h.034s.138-.813.31-1.334l1.645-4.865c.123-.415.4-.606.814-.606h.815c.536 0 .761.33.587.831l-2.665 7.412c-.139.414-.398.589-.815.589h-1.385c-.415 0-.691-.175-.812-.59z"/></g><g><path fill="#778086" d="M338.403 49.902c0-1.314 1.887-1.489 2.995-1.489h.366v.33c0 1.074-.798 2.319-2.027 2.319-.883 0-1.334-.57-1.334-1.16zm2.98-2.82c-1.974 0-5.16.432-5.16 3.012 0 1.61 1.314 2.648 2.924 2.648 1.94 0 2.772-1.661 2.772-1.661h.034s-.034.138-.034.38v.347c0 .485.242.728.71.728h.588c.485 0 .727-.243.727-.728v-4.797c0-2.233-1.368-3.516-3.654-3.516-1.315 0-2.32.434-2.891.728-.417.225-.485.572-.277.972l.173.326c.208.416.538.486.97.297.416-.225 1.09-.504 1.835-.504.9 0 1.645.398 1.645 1.557v.21h-.362z"/></g><g><path fill="#778086" d="M345.973 40.968c0-.468.242-.727.71-.727h.764c.468 0 .71.26.71.727v8.64c0 .867.362 1.022.692 1.056.31.036.536.225.536.623v.59c0 .45-.207.744-.728.744-1.176 0-2.684-.313-2.684-2.84z"/></g></g><g><g><path fill="#f6780d" d="M170.713 79.183c-.14-.485.103-.815.607-.815h.83c.433 0 .693.209.78.64l1.419 5.16c.104.469.172.937.172.937h.036s.068-.468.19-.936l1.489-5.16c.087-.417.363-.624.797-.624h.658c.431 0 .693.207.797.624l1.472 5.16c.136.468.19.936.19.936h.034s.07-.468.19-.936l1.403-5.16c.104-.432.364-.64.795-.64h.798c.52 0 .745.329.606.814l-2.27 7.409c-.12.417-.397.606-.812.606h-1.161c-.432 0-.709-.206-.813-.623l-1.334-4.416c-.138-.466-.206-.951-.206-.951h-.036s-.087.485-.224.951l-1.335 4.416c-.103.417-.362.623-.796.623h-1.193c-.417 0-.677-.19-.798-.606z"/></g><g><path fill="#f6780d" d="M185.452 79.096c0-.468.243-.728.71-.728h.762c.468 0 .71.26.71.728v7.377c0 .483-.242.725-.71.725h-.762c-.468 0-.71-.242-.71-.725zm0-2.944v-.52c0-.467.243-.727.71-.727h.762c.468 0 .73.26.73.728v.519c0 .466-.262.708-.73.708h-.762c-.468 0-.71-.242-.71-.708z"/></g><g><path fill="#f6780d" d="M193.714 85.554c-1.298 0-2.198-1.091-2.198-2.772 0-1.746 1.021-2.734 2.217-2.734 1.489 0 2.197 1.351 2.197 2.719 0 1.957-1.074 2.787-2.216 2.787zm-.415-7.394c-2.338 0-4 1.818-4 4.622 0 2.738 1.54 4.624 3.93 4.624 2.027 0 2.771-1.523 2.771-1.523h.034s-.034.139-.034.311v.347c0 .432.243.657.71.657h.64c.469 0 .711-.242.711-.725v-10.84c0-.468-.242-.728-.71-.728h-.764c-.466 0-.708.26-.708.728v3.288c0 .279.034.504.034.504h-.034s-.64-1.265-2.58-1.265z"/></g><g><path fill="#f6780d" d="M202.028 81.78c.21-1.178 1.006-1.957 2.132-1.957 1.004 0 1.748.728 1.784 1.957zm2.185-3.62c-2.65 0-4.485 1.906-4.485 4.622 0 2.512 1.817 4.625 4.744 4.625a5.582 5.582 0 0 0 2.995-.883c.381-.226.45-.572.243-.97l-.209-.345c-.225-.4-.536-.453-.97-.242-.415.257-1.09.57-1.904.57-1.333 0-2.512-.832-2.65-2.425h5.386a.764.764 0 0 0 .762-.743c0-2.427-1.402-4.21-3.912-4.21z"/></g><g><path fill="#f6780d" d="M214.052 79.096c0-.468.243-.728.709-.728h.676c.468 0 .726.26.726.728v.831c0 .328-.051.607-.051.607h.036c.344-1.057 1.314-2.236 2.56-2.236.486 0 .66.243.66.728v.674c0 .468-.278.727-.744.727-1.61 0-2.39 1.596-2.39 3.206v2.84c0 .483-.242.725-.71.725h-.763c-.466 0-.709-.242-.709-.725z"/></g><g><path fill="#f6780d" d="M221.967 84.567c0-1.317 1.887-1.49 2.995-1.49h.364v.329c0 1.075-.798 2.32-2.025 2.32-.885 0-1.334-.57-1.334-1.16zm2.978-2.821c-1.974 0-5.158.432-5.158 3.01 0 1.612 1.314 2.65 2.923 2.65 1.942 0 2.771-1.66 2.771-1.66h.036s-.036.137-.036.38v.347c0 .483.243.725.71.725h.59c.485 0 .727-.242.727-.725v-4.799c0-2.232-1.367-3.514-3.654-3.514-1.315 0-2.32.432-2.89.73-.418.223-.486.567-.28.967l.175.328c.206.417.536.487.97.297.415-.227 1.091-.503 1.834-.503.901 0 1.646.397 1.646 1.557v.21h-.364z"/></g><g><path fill="#f6780d" d="M229.556 79.096c0-.468.243-.728.709-.728h.674c.468 0 .71.26.71.728v.536c0 .191-.033.398-.033.398h.034a3.448 3.448 0 0 1 3.135-1.87c1.957 0 3.08 1.023 3.08 3.359v4.954c0 .483-.24.725-.725.725h-.745c-.468 0-.73-.242-.73-.725v-4.504c0-1.074-.274-1.801-1.382-1.801-1.56 0-2.546 1.3-2.546 2.893v3.412c0 .483-.243.725-.71.725h-.762c-.466 0-.709-.242-.709-.725z"/></g><g><path fill="#f6780d" d="M245.905 82.593c0 1.974-1.006 2.58-2.044 2.58-1.419 0-2.216-1.125-2.216-2.717 0-1.456.744-2.426 2.112-2.426 1.142 0 2.148.536 2.148 2.563zm-4.33 6.043c-.468-.155-.726-.034-.917.398l-.139.398c-.19.45-.07.746.381.936.605.26 1.593.466 2.579.466 2.184 0 4.57-1.14 4.57-4.172v-7.566c0-.468-.24-.728-.71-.728h-.587c-.466 0-.71.26-.71.59v.329c0 .138.019.224.019.224h-.036s-.554-1.351-2.615-1.351c-2.631 0-3.982 1.974-3.982 4.38 0 2.444 1.421 4.486 4 4.486 1.178 0 1.937-.485 2.424-1.317h.034s-.034.243-.034.451v.657c0 1.576-1.142 2.149-2.493 2.149-.814 0-1.37-.175-1.784-.33z"/></g><g><path fill="#f6780d" d="M252.002 81.78c.21-1.178 1.005-1.957 2.13-1.957 1.005 0 1.75.728 1.785 1.957zm2.184-3.62c-2.65 0-4.484 1.906-4.484 4.622 0 2.512 1.816 4.625 4.741 4.625a5.57 5.57 0 0 0 2.996-.883c.382-.226.45-.572.242-.97l-.206-.345c-.226-.4-.537-.453-.97-.242-.415.257-1.092.57-1.906.57-1.332 0-2.51-.832-2.649-2.425h5.386a.764.764 0 0 0 .762-.743c0-2.427-1.402-4.21-3.912-4.21z"/></g><g><path fill="#f6780d" d="M265.704 82.782c0-1.625 1.178-2.752 2.616-2.752 1.436 0 2.63 1.127 2.63 2.752 0 1.647-1.194 2.755-2.63 2.755-1.438 0-2.616-1.108-2.616-2.755zm-2.234 0c0 2.72 2.166 4.625 4.85 4.625 2.683 0 4.865-1.904 4.865-4.625 0-2.7-2.182-4.622-4.865-4.622-2.684 0-4.85 1.923-4.85 4.622z"/></g><g><path fill="#f6780d" d="M275.199 80.24h-.434c-.466 0-.708-.244-.708-.73v-.293c0-.468.242-.727.708-.727h.434v-.415c0-2.806 2.476-3.24 3.376-3.24h.26c.47 0 .71.243.71.728v.45c0 .468-.26.677-.745.71-.536.035-1.402.156-1.402 1.437v.33h1.177c.468 0 .71.259.71.727v.294c0 .485-.242.729-.71.729h-1.177v6.233c0 .483-.26.725-.727.725h-.762c-.47 0-.71-.242-.71-.725z"/></g><g><path fill="#f6780d" d="M291.48 76.86h.763c.466 0 .726-.242.726-.708v-.52c0-.467-.26-.727-.726-.727h-.763c-.468 0-.71.26-.71.728v.519c0 .466.242.708.71.708zm-6.097 9.613c0 .483.243.725.71.725h.764c.468 0 .728-.242.728-.725v-6.356h3.184v6.356c0 .483.243.725.71.725h.764c.466 0 .726-.242.726-.725v-7.377c0-.468-.26-.728-.726-.728h-4.658v-.208c0-1.28.865-1.402 1.402-1.436.485-.034.744-.243.744-.71v-.451c0-.485-.242-.728-.71-.728h-.26c-.9 0-3.378.434-3.378 3.24v.293h-.432c-.466 0-.708.26-.708.728v.293c0 .485.242.728.708.728h.432z"/></g><g><path fill="#f6780d" d="M295.138 79.096c0-.468.242-.728.708-.728h.675c.468 0 .71.26.71.728v.536c0 .191-.034.398-.034.398h.034a3.45 3.45 0 0 1 3.135-1.87c1.957 0 3.083 1.023 3.083 3.359v4.954c0 .483-.243.725-.728.725h-.744c-.468 0-.728-.242-.728-.725v-4.504c0-1.074-.276-1.801-1.385-1.801-1.559 0-2.546 1.3-2.546 2.893v3.412c0 .483-.242.725-.71.725h-.762c-.466 0-.708-.242-.708-.725z"/></g><g><path fill="#f6780d" d="M307.018 84.567c0-1.317 1.887-1.49 2.995-1.49h.365v.329c0 1.075-.797 2.32-2.027 2.32-.882 0-1.333-.57-1.333-1.16zm2.98-2.821c-1.974 0-5.16.432-5.16 3.01 0 1.612 1.314 2.65 2.924 2.65 1.94 0 2.772-1.66 2.772-1.66h.034s-.034.137-.034.38v.347c0 .483.242.725.71.725h.587c.485 0 .728-.242.728-.725v-4.799c0-2.232-1.366-3.514-3.654-3.514a6.23 6.23 0 0 0-2.891.73c-.417.223-.485.567-.277.967l.172.328c.209.417.539.487.97.297.417-.227 1.092-.503 1.836-.503.9 0 1.645.397 1.645 1.557v.21h-.362z"/></g><g><path fill="#f6780d" d="M314.607 79.096c0-.468.242-.728.708-.728h.677c.468 0 .71.26.71.728v.536c0 .191-.036.398-.036.398h.036a3.447 3.447 0 0 1 3.133-1.87c1.957 0 3.083 1.023 3.083 3.359v4.954c0 .483-.243.725-.728.725h-.742c-.468 0-.728-.242-.728-.725v-4.504c0-1.074-.278-1.801-1.387-1.801-1.559 0-2.544 1.3-2.544 2.893v3.412c0 .483-.242.725-.71.725h-.764c-.466 0-.708-.242-.708-.725z"/></g><g><path fill="#f6780d" d="M329.224 78.16c1.42 0 2.372.519 2.891.884.364.243.383.605.14.986l-.225.346c-.26.4-.555.4-.97.19a3.11 3.11 0 0 0-1.714-.536c-1.63 0-2.683 1.231-2.683 2.737 0 1.49 1.053 2.77 2.753 2.77.865 0 1.557-.381 1.974-.677.432-.242.76-.189.985.226l.174.33c.206.38.155.727-.191.97a5.247 5.247 0 0 1-3.134 1.02c-2.927 0-4.796-2.059-4.796-4.624 0-2.51 1.87-4.622 4.796-4.622z"/></g><g><path fill="#f6780d" d="M334.163 79.096c0-.468.24-.728.709-.728h.761c.468 0 .71.26.71.728v7.377c0 .483-.242.725-.71.725h-.761c-.468 0-.709-.242-.709-.725zm0-2.944v-.52c0-.467.24-.727.709-.727h.761c.468 0 .728.26.728.728v.519c0 .466-.26.708-.728.708h-.761c-.468 0-.709-.242-.709-.708z"/></g><g><path fill="#f6780d" d="M340.032 84.567c0-1.317 1.887-1.49 2.995-1.49h.366v.329c0 1.075-.798 2.32-2.027 2.32-.885 0-1.334-.57-1.334-1.16zm2.978-2.821c-1.974 0-5.158.432-5.158 3.01 0 1.612 1.314 2.65 2.925 2.65 1.94 0 2.771-1.66 2.771-1.66h.034s-.034.137-.034.38v.347c0 .483.243.725.71.725h.588c.485 0 .727-.242.727-.725v-4.799c0-2.232-1.368-3.514-3.654-3.514a6.23 6.23 0 0 0-2.891.73c-.417.223-.485.567-.279.967l.175.328c.208.417.536.487.97.297.417-.227 1.09-.503 1.835-.503.9 0 1.645.397 1.645 1.557v.21h-.364z"/></g><g><path fill="#f6780d" d="M347.602 75.633c0-.468.243-.728.71-.728h.764c.468 0 .71.26.71.728v8.64c0 .866.362 1.021.692 1.055.31.036.536.226.536.624v.589c0 .45-.206.744-.727.744-1.177 0-2.685-.312-2.685-2.84z"/></g><g><path fill="#f6780d" d="M356.404 85.52l.206-.311c.26-.366.555-.4.99-.174.412.225 1.071.606 1.971.606.762 0 1.23-.347 1.23-.9 0-1.438-4.38-.902-4.38-3.933 0-1.731 1.523-2.648 3.376-2.648 1.178 0 1.99.38 2.459.642.397.207.45.572.26.97l-.173.31c-.209.416-.538.469-.97.277-.381-.174-.953-.432-1.68-.432-.762 0-1.196.313-1.196.866 0 1.453 4.382.881 4.382 3.895 0 1.557-1.317 2.719-3.36 2.719a5.16 5.16 0 0 1-2.943-.9c-.398-.226-.434-.607-.172-.987z"/></g><g><path fill="#f6780d" d="M366.206 82.782c0-1.625 1.178-2.752 2.614-2.752 1.438 0 2.631 1.127 2.631 2.752 0 1.647-1.193 2.755-2.631 2.755-1.436 0-2.614-1.108-2.614-2.755zm-2.234 0c0 2.72 2.163 4.625 4.848 4.625 2.682 0 4.867-1.904 4.867-4.625 0-2.7-2.185-4.622-4.867-4.622-2.685 0-4.848 1.923-4.848 4.622z"/></g><g><path fill="#f6780d" d="M375.284 75.633c0-.468.242-.728.71-.728h.762c.468 0 .71.26.71.728v8.64c0 .866.362 1.021.692 1.055.31.036.536.226.536.624v.589c0 .45-.207.744-.726.744-1.178 0-2.684-.312-2.684-2.84z"/></g><g><path fill="#f6780d" d="M380.012 79.096c0-.468.26-.728.726-.728h.746c.485 0 .728.26.728.728v4.5c0 1.075.276 1.802 1.365 1.802 1.594 0 2.478-1.401 2.478-2.978v-3.324c0-.468.243-.728.728-.728h.742c.47 0 .728.26.728.728v7.377c0 .483-.258.725-.728.725h-.674c-.468 0-.71-.242-.71-.725v-.521c0-.207.036-.398.036-.398h-.036c-.415.902-1.558 1.853-3.064 1.853-1.886 0-3.065-.951-3.065-3.36z"/></g><g><path fill="#f6780d" d="M390.909 80.24h-.468c-.47 0-.71-.244-.71-.73v-.293c0-.468.24-.728.725-.728h.504v-1.8c0-.467.26-.727.728-.727h.691c.468 0 .727.26.727.728v1.8h1.283c.468 0 .726.259.726.727v.294c0 .485-.258.729-.71.729h-1.299v3.427c0 1.317.813 1.574 1.421 1.644.536.053.728.226.728.71v.539c0 .517-.296.725-.902.725-1.574 0-3.444-.848-3.444-3.237z"/></g><g><path fill="#f6780d" d="M396.729 79.096c0-.468.242-.728.708-.728h.762c.468 0 .71.26.71.728v7.377c0 .483-.242.725-.71.725h-.762c-.466 0-.708-.242-.708-.725zm0-2.944v-.52c0-.467.242-.727.708-.727h.762c.468 0 .727.26.727.728v.519c0 .466-.26.708-.727.708h-.762c-.466 0-.708-.242-.708-.708z"/></g><g><path fill="#f6780d" d="M402.772 82.782c0-1.625 1.176-2.752 2.614-2.752s2.632 1.127 2.632 2.752c0 1.647-1.194 2.755-2.632 2.755-1.438 0-2.614-1.108-2.614-2.755zm-2.234 0c0 2.72 2.164 4.625 4.848 4.625 2.683 0 4.867-1.904 4.867-4.625 0-2.7-2.184-4.622-4.867-4.622-2.684 0-4.848 1.923-4.848 4.622z"/></g><g><path fill="#f6780d" d="M411.867 79.096c0-.468.243-.728.709-.728h.676c.468 0 .71.26.71.728v.536c0 .191-.036.398-.036.398h.036a3.445 3.445 0 0 1 3.134-1.87c1.957 0 3.082 1.023 3.082 3.359v4.954c0 .483-.243.725-.728.725h-.744c-.468 0-.726-.242-.726-.725v-4.504c0-1.074-.278-1.801-1.386-1.801-1.56 0-2.546 1.3-2.546 2.893v3.412c0 .483-.241.725-.71.725h-.762c-.466 0-.709-.242-.709-.725z"/></g><g><path fill="#f6780d" d="M421.86 85.52l.209-.311c.259-.366.555-.4.987-.174.414.225 1.074.606 1.972.606.763 0 1.231-.347 1.231-.9 0-1.438-4.382-.902-4.382-3.933 0-1.731 1.525-2.648 3.378-2.648 1.178 0 1.99.38 2.457.642.398.207.453.572.261.97l-.174.31c-.206.416-.536.469-.968.277-.383-.174-.953-.432-1.68-.432-.764 0-1.196.313-1.196.866 0 1.453 4.38.881 4.38 3.895 0 1.557-1.314 2.719-3.359 2.719a5.172 5.172 0 0 1-2.944-.9c-.397-.226-.431-.607-.172-.987z"/></g></g><g><g><path fill="#778086" d="M47.444 140.358l3.212-6.919 1.2.555c1.969.912 2.71 2.677 1.658 4.945-1.06 2.283-2.85 2.91-4.868 1.974zm-3.652.229c-.277.6-.108 1.067.49 1.341l3.32 1.542c3.75 1.74 7.19.622 8.93-3.133 1.741-3.75.352-7.047-3.399-8.788l-3.319-1.542c-.598-.277-1.062-.108-1.34.494z"/></g><g><path fill="#778086" d="M60.427 135.536c.184-.634.616-.875 1.252-.691l1.148.331c.635.18.876.614.692 1.25l-3.073 10.685c-.184.637-.616.876-1.25.696l-1.148-.334c-.635-.182-.876-.614-.694-1.248z"/></g><g><path fill="#778086" d="M65.817 137.07c.102-.654.502-.944 1.153-.844l5.957.93c.653.104.943.5.84 1.154l-.111.73c-.102.651-.502.94-1.156.839l-3.775-.59-.425 2.723 2.958.462c.653.102.945.502.843 1.158l-.114.723c-.102.654-.5.944-1.154.843l-2.959-.462-.595 3.811c-.104.656-.502.944-1.157.842l-1.179-.184c-.653-.103-.945-.5-.843-1.154z"/></g><g><path fill="#778086" d="M75.043 138.34c-.002-.663.346-1.013 1.007-1.015l6.025-.012c.66-.001 1.01.345 1.011 1.006l.002.734c.002.663-.345 1.013-1.008 1.015l-3.82.008.007 2.754 2.993-.008c.663 0 1.012.347 1.014 1.008l.002.735c.001.66-.347 1.01-1.008 1.012l-2.995.008.011 3.859c0 .659-.347 1.01-1.008 1.007l-1.193.004c-.663.002-1.012-.346-1.014-1.004z"/></g><g><path fill="#778086" d="M84.33 138.166c-.11-.654.177-1.053.83-1.163l6.124-1.017c.651-.11 1.053.176 1.163.83l.12.725c.109.652-.18 1.051-.833 1.161l-3.95.657.393 2.355 2.953-.492c.652-.108 1.055.182 1.163.831l.122.726c.108.652-.18 1.055-.832 1.163l-2.954.49.406 2.446 4.206-.698c.65-.109 1.053.177 1.16.833l.12.724c.11.65-.176 1.051-.83 1.16l-6.376 1.062c-.654.108-1.055-.178-1.163-.834z"/></g><g><path fill="#778086" d="M98.751 140.007l-1.076-3.01 1.023-.367c.5-.178.881-.258 1.201-.233.654.02.978.432 1.2 1.057.352.985-.061 1.739-1.031 2.084zm-.949 6.904c.222.621.669.831 1.294.61l1.124-.402c.623-.223.835-.669.611-1.294l-1.151-3.218 1.42-.508 3.087 2.841c.426.374.846.46 1.365.271l1.315-.47c.747-.265.866-.855.25-1.377l-2.904-2.553c-.48-.415-.735-.578-.735-.578l-.011-.036c1.006-1.063 1.115-2.722.646-4.037-.644-1.802-1.98-2.749-3.573-2.787-.612-.013-1.247.116-2.512.568l-3.36 1.2c-.622.223-.833.672-.611 1.293z"/></g><g><path fill="#778086" d="M104.704 132.396c-.326-.574-.195-1.05.379-1.38l5.395-3.07c.574-.33 1.05-.197 1.377.377l.364.638c.328.576.197 1.051-.379 1.38l-3.48 1.98 1.182 2.075 2.601-1.481c.576-.328 1.052-.195 1.38.377l.363.638c.326.576.197 1.052-.379 1.377l-2.6 1.484 1.225 2.154 3.703-2.107c.574-.33 1.052-.199 1.378.377l.363.64c.328.572.197 1.048-.377 1.376l-5.619 3.197c-.574.33-1.05.197-1.377-.376z"/></g><g><path fill="#778086" d="M113.244 127.476c-.432-.5-.396-.993.106-1.427l1.087-.936c.432-.371.843-.458 1.364-.274l6.019 2.025c.953.32 2.298.98 2.298.98l.028-.023s-1.036-.978-1.576-1.605l-3.347-3.887c-.434-.5-.396-.995.106-1.429l.905-.778c.5-.43.995-.396 1.427.106l7.26 8.43c.433.502.395.995-.107 1.426l-1.085.936c-.419.36-.83.447-1.351.264l-6.019-2c-.953-.32-2.3-.978-2.3-.978l-.028.024s1.036.976 1.576 1.603l3.336 3.874c.432.5.394.993-.106 1.427l-.905.778c-.502.434-.995.396-1.427-.108z"/></g><g><path fill="#778086" d="M125.741 113.074c1.22-1.614 2.643-2.31 3.535-2.603.605-.193 1.021.08 1.247.663l.324.823c.244.619.011 1.02-.61 1.265-.644.273-1.472.73-2.06 1.508-1.583 2.095-.755 4.08.755 5.22 1.555 1.175 3.86 1.443 5.39-.579.664-.88.844-1.943.867-2.709.025-.67.328-1.042 1.002-1.015l.881.019c.621.03 1.02.356 1.029.985a7.406 7.406 0 0 1-1.522 4.607c-2.548 3.372-6.484 3.74-9.593 1.389-3.052-2.302-3.692-6.333-1.245-9.573z"/></g><g><path fill="#778086" d="M130.21 108.67c-.593-.296-.75-.764-.454-1.357l2.773-5.566c.294-.593.764-.75 1.358-.452l.658.327c.593.296.748.764.454 1.359l-1.788 3.586 2.14 1.068 1.336-2.684c.298-.593.766-.75 1.359-.457l.659.33c.591.296.748.761.453 1.356l-1.336 2.685 2.222 1.108 1.902-3.821c.296-.591.766-.75 1.357-.455l.659.33c.593.294.75.763.453 1.358l-2.885 5.793c-.296.593-.764.75-1.357.457z"/></g></g><g><g><path fill="#778086" d="M12.055 96.564l.714 2.887c.159.643-.097 1.067-.737 1.224l-.712.177c-.643.157-1.065-.095-1.224-.738l-2.202-8.896c-.157-.64.099-1.064.74-1.224l.713-.176c.64-.159 1.063.095 1.222.739l.715 2.887 9.093-2.249c.64-.157 1.063.097 1.222.74l.286 1.157c.159.642-.097 1.064-.739 1.222z"/></g><g><path fill="#778086" d="M8.17 86.743c-.662.025-1.026-.312-1.048-.971l-.044-1.196c-.025-.66.31-1.02.97-1.045l4.242-.158-.179-4.774-4.24.156c-.659.026-1.022-.311-1.049-.97L6.78 76.59c-.025-.663.312-1.023.973-1.047l11.107-.415c.663-.023 1.025.312 1.048.972l.044 1.195c.026.661-.311 1.023-.972 1.048l-4.13.153.178 4.772 4.13-.153c.661-.025 1.023.31 1.05.973l.041 1.194c.025.661-.31 1.021-.97 1.046z"/></g><g><path fill="#778086" d="M8.18 71.222c-.651-.107-.941-.507-.835-1.159l.989-6.138c.106-.65.506-.943 1.161-.835l.724.113c.655.108.943.508.84 1.164l-.64 3.957 2.361.38.478-2.958c.104-.654.505-.944 1.157-.838l.728.116c.653.106.941.506.837 1.161l-.478 2.957 2.45.396.682-4.211c.106-.654.504-.945 1.157-.837l.728.117c.653.106.941.504.835 1.158l-1.03 6.39c-.103.655-.504.945-1.16.837z"/></g><g><path fill="#778086" d="M12.174 53.617c-.557-.327-.705-.784-.428-1.365l.714-1.488c.254-.53.644-.75 1.235-.67l4.964.562c.886.1 2.237.341 2.237.341l.017-.034s-1.036-.901-1.669-1.53l-3.55-3.513c-.434-.41-.506-.854-.254-1.383l.714-1.489c.279-.58.728-.754 1.33-.524L27.89 46.51c.62.235.815.717.53 1.311l-.515 1.078c-.276.58-.725.75-1.33.523l-4.597-1.836c-.925-.361-1.984-.95-1.984-.95l-.017.032s1.052.992 1.67 1.612l2.23 2.273c.41.417.482.86.23 1.39l-.445.927c-.254.53-.644.75-1.228.695l-3.165-.314c-.872-.093-2.304-.292-2.304-.292l-.017.034s1.125.459 1.987.953l4.308 2.427c.557.327.707.788.426 1.366l-.52 1.093c-.287.597-.785.742-1.357.409z"/></g><g><path fill="#778086" d="M31.558 39.347c-1.332 1.59-3.573 1.635-5.293.198-1.65-1.379-1.95-3.544-.62-5.137 1.332-1.597 3.516-1.688 5.17-.307 1.72 1.438 2.075 3.649.743 5.246zm-8.169-6.826c-2.616 3.131-2.15 7.163.743 9.578 2.964 2.474 7.068 2.262 9.684-.87 2.614-3.133 2.091-7.21-.87-9.684-2.894-2.415-6.943-2.156-9.557.976z"/></g><g><path fill="#778086" d="M37.26 27.469l-1.953-2.53.858-.66c.419-.326.758-.518 1.069-.597.625-.182 1.06.111 1.466.634.638.83.477 1.671-.337 2.3zm1.228 6.848c.405.523.896.59 1.417.184l.945-.732c.525-.403.585-.892.182-1.417l-2.088-2.703 1.19-.919 3.808 1.743c.524.226.949.175 1.385-.16l1.106-.853c.623-.485.557-1.08-.191-1.389l-3.549-1.529c-.583-.242-.875-.32-.875-.32l-.023-.03c.627-1.32.22-2.93-.632-4.035-1.17-1.51-2.73-1.999-4.255-1.542-.586.176-1.15.494-2.213 1.314l-2.817 2.18c-.523.404-.587.893-.184 1.418z"/></g><g><path fill="#778086" d="M45.65 18.044L43 19.396c-.589.304-1.059.152-1.362-.437l-.333-.654c-.302-.589-.148-1.059.44-1.364l8.164-4.173c.586-.303 1.057-.148 1.358.44l.334.653c.303.59.15 1.059-.438 1.36l-2.652 1.357 4.268 8.34c.301.592.15 1.062-.437 1.363l-1.067.543c-.585.302-1.055.15-1.356-.437z"/></g><g><path fill="#778086" d="M59.525 9.297c2.016-.568 3.802-.27 4.42-.045.64.24.807.63.627 1.275l-.254.856c-.187.623-.6.778-1.271.644-.667-.136-1.43-.263-2.527.045-2.53.717-3.164 2.732-2.624 4.64.661 2.336 2.741 3.332 4.668 2.787 1.803-.508 2.31-1.762 2.31-1.762l-.247-.866-.813.23c-.634.181-1.068-.06-1.248-.698l-.193-.69c-.182-.636.058-1.064.697-1.246l2.58-.731c.637-.18 1.07.06 1.248.697l1.474 5.2c.178.637-.062 1.069-.699 1.249l-.583.165c-.637.177-1.067-.061-1.19-.484l-.01-.037c-.028-.107-.03-.184-.03-.184l-.036.011s-.778 1.5-3.027 2.135c-3.253.923-6.926-.716-8.051-4.692-1.092-3.855.905-7.402 4.78-8.499z"/></g><g><path fill="#778086" d="M73.2 14.973l.588-2.597c.186-.84.389-2.29.389-2.29l.036-.004s.384 1.413.676 2.224l.896 2.504zm-4.197 4.45c-.193.712.167 1.15.9 1.104l1.212-.077c.588-.036.936-.336 1.065-.913l.428-1.946 4.092-.26.673 1.874c.22.557.604.809 1.191.771l1.21-.078c.736-.043 1.035-.526.755-1.21L76.02 7.793c-.22-.555-.602-.79-1.19-.752l-1.652.104c-.587.038-.937.318-1.083.898z"/></g><g><path fill="#778086" d="M89.338 7.564c2.074.3 3.58 1.3 4.052 1.758.489.48.481.905.053 1.419l-.581.674c-.423.498-.866.47-1.423.074-.553-.396-1.195-.822-2.323-.987-2.6-.379-3.999 1.197-4.285 3.162-.348 2.4 1.14 4.156 3.124 4.446 1.853.27 2.823-.667 2.823-.667l.129-.89-.836-.123c-.653-.093-.949-.489-.852-1.144l.102-.71c.095-.653.49-.95 1.146-.853l2.652.384c.656.099.951.49.855 1.148l-.777 5.344c-.097.654-.49.95-1.146.853l-.599-.087c-.655-.093-.95-.489-.885-.927l.004-.034c.015-.11.046-.18.046-.18l-.038-.003s-1.322 1.05-3.632.714c-3.343-.49-6.026-3.477-5.433-7.567.578-3.963 3.844-6.384 7.824-5.804z"/></g><g><path fill="#778086" d="M98.435 10.743c.22-.624.667-.836 1.29-.614l5.854 2.074c.623.222.837.665.616 1.29l-.245.694c-.223.623-.668.837-1.292.615l-3.775-1.339-.8 2.25 2.825 1.003c.623.221.835.667.612 1.288l-.243.695c-.223.624-.669.836-1.292.614l-2.822-1.002-.83 2.34 4.018 1.424c.623.222.837.669.616 1.29l-.245.694c-.223.623-.667.837-1.29.615l-6.1-2.163c-.623-.218-.834-.667-.614-1.29z"/></g><g><path fill="#778086" d="M109.732 21.247l1.758-3.097 1.422.807c.929.527 1.052 1.423.536 2.332-.519.911-1.37 1.292-2.343.74zm-5.663 3.458c-.326.575-.195 1.051.379 1.379l1.038.589c.576.328 1.05.197 1.377-.379l1.508-2.648 1.946 1.106c2.22 1.262 4.666.453 5.973-1.847 1.305-2.3.731-4.78-1.487-6.043l-3.867-2.196c-.574-.326-1.05-.195-1.377.379z"/></g><g><path fill="#778086" d="M119.302 27.704c1.432-1.601 3.607-1.827 5.155-.44 1.546 1.385 1.563 3.571.129 5.174-1.495 1.669-3.719 1.947-5.267.562-1.547-1.382-1.515-3.626-.017-5.296zm7.116-2.632c-3.039-2.72-7.084-2.393-9.596.413-2.574 2.876-2.504 6.985.537 9.705 3.038 2.725 7.13 2.344 9.705-.536 2.512-2.804 2.394-6.86-.646-9.582z"/></g><g><path fill="#778086" d="M130.985 39.108l2.596-1.866.632.879c.311.434.49.779.56 1.091.158.633-.15 1.06-.687 1.444-.85.61-1.686.42-2.288-.415zm-6.89.99c-.536.385-.616.872-.231 1.408l.697.97c.385.537.874.618 1.41.231l2.775-1.993.879 1.222-1.877 3.748c-.243.515-.207.941.113 1.388l.817 1.133c.46.642 1.059.599 1.39-.14l1.652-3.495c.265-.57.354-.862.354-.862l.029-.021c1.298.674 2.921.322 4.056-.493 1.55-1.116 2.093-2.658 1.688-4.2-.152-.589-.455-1.167-1.237-2.256l-2.078-2.897c-.387-.534-.874-.615-1.412-.227z"/></g><g><path fill="#778086" d="M140.116 47.828l-1.263-2.696c-.282-.598-.114-1.06.489-1.345l.663-.31c.6-.279 1.064-.112 1.345.486l3.889 8.307c.28.6.114 1.063-.487 1.346l-.665.31c-.6.279-1.065.114-1.343-.487l-1.264-2.697-8.49 3.974c-.6.28-1.063.114-1.346-.485l-.505-1.083c-.28-.599-.112-1.065.487-1.344z"/></g></g><g><path fill="#fff" d="M138.257 75.654a5.193 5.193 0 1 1 10.386 0 5.193 5.193 0 0 1-10.386 0z"/></g><g><path fill="#fff" d="M21.132 117.889a5.193 5.193 0 1 1 10.386 0 5.193 5.193 0 0 1-10.386 0z"/></g><g><g><g><g><path fill="none" stroke="#778086" stroke-miterlimit="20" stroke-width=".65" d="M13.22 139.937c31.389 33.024 85.289 36.233 120.484 7.942"/></g><g><g><path fill="#778086" d="M137.64 144.51l-7.54 2.32 3.232 1.209.55 3.404z"/></g></g></g></g></g><g><g><g><g><path fill="none" stroke="#778086" stroke-miterlimit="20" stroke-width=".65" d="M6.765 146.073c34.65 36.451 94.231 39.882 132.936 8.412"/></g><g><g><path fill="#778086" d="M143.626 151.104l-7.535 2.319 3.23 1.21.55 3.404z"/></g></g></g></g></g><g><g><path fill="none" stroke="#69a52b" stroke-miterlimit="20" stroke-width=".66" d="M359.101 127.684c7.315 2.128 11.519 9.777 9.391 17.092-2.127 7.314-9.779 11.518-17.093 9.39-7.315-2.127-11.517-9.78-9.39-17.093 2.126-7.315 9.78-11.516 17.092-9.389z"/></g><g><path fill="#69a52b" d="M330.939 112.426a3.391 3.391 0 0 1-1.895 6.515 3.392 3.392 0 0 1 1.894-6.515z"/></g><g><path fill="none" stroke="#69a52b" stroke-miterlimit="20" stroke-width=".66" d="M329.991 115.682l15.505 15.495"/></g><g><g><path fill="#69a52b" d="M351.15 144.21c-1.278 0-1.648-1.45-1.648-3.297 0-1.819.37-3.255 1.648-3.255 1.28 0 1.647 1.436 1.647 3.255 0 1.847-.368 3.296-1.647 3.296zm0 1.553c2.556 0 3.401-2.16 3.401-4.85 0-2.688-.845-4.823-3.4-4.823-2.558 0-3.388 2.135-3.388 4.823 0 2.69.83 4.85 3.387 4.85z"/></g><g><path fill="#69a52b" d="M355.875 144.092l.265-.41c.197-.303.448-.316.75-.119.343.237.936.593 1.689.593.973 0 1.686-.593 1.686-1.396 0-.989-.91-1.451-2.003-1.451h-.199c-.303 0-.475-.106-.606-.38l-.051-.107c-.12-.239-.08-.489.117-.712l1.438-1.7c.354-.435.67-.712.67-.712v-.026s-.289.04-.829.04h-2.254c-.356 0-.54-.186-.54-.542v-.368c0-.356.184-.555.54-.555h4.613c.37 0 .555.186.555.54v.146c0 .276-.067.473-.252.672l-2.042 2.36c1.303.184 2.557 1.107 2.557 2.727 0 1.595-1.2 3.07-3.296 3.07a4.529 4.529 0 0 1-2.702-.907c-.276-.21-.305-.489-.106-.763z"/></g></g></g></g></g></svg>