<svg xmlns="http://www.w3.org/2000/svg" width="106" height="105" viewBox="0 0 106 105"><g><g><g><path fill="#e9933e" d="M101.71 71.352c0 .642-.521 1.164-1.162 1.164h-4.14c-.772 0-1.453.507-1.673 1.246-1.725 5.78-5.372 10.946-10.267 14.544-4.337 3.186-7.102 8.024-7.614 13.204H64.276v-6c0-.963-.781-1.744-1.745-1.744H49.585c-.964 0-1.745.781-1.745 1.745v5.999H35.265c-.49-5.222-3.154-9.985-7.337-12.983C20.59 83.27 16.21 74.751 16.21 65.74c0-12.97 8.723-24.082 21.254-27.187.84.79 1.747 1.51 2.711 2.167-2.154.757-4.016 1.725-5.455 2.874a1.744 1.744 0 1 0 2.178 2.727c3.075-2.455 8.925-3.98 15.267-3.98 6.34 0 12.188 1.524 15.262 3.978a1.746 1.746 0 0 0 2.178-2.728c-1.311-1.047-2.976-1.94-4.89-2.665a21.937 21.937 0 0 0 4.187-3.544c.186-.134.35-.306.476-.515l.105-.162c.454-.539.889-1.093 1.288-1.672 1.737-2.007 5.06-5.023 9.772-5.644V39.7c0 .634.343 1.218.899 1.526 6.376 3.538 11.223 9.55 13.294 16.492.22.739.9 1.246 1.672 1.246h4.141c.64 0 1.163.522 1.163 1.163zM50.85 20.287c-1.16-.63-1.959-1.846-1.959-3.257 0-1.412.8-2.627 1.96-3.257zm5.467 7.675c0 1.418-.806 2.638-1.976 3.266v-6.532c1.17.627 1.976 1.848 1.976 3.266zM52.596 3.93c10.237 0 18.565 8.328 18.565 18.566 0 3.784-1.125 7.348-3.117 10.33a20.582 20.582 0 0 0-1.356 1.77 18.548 18.548 0 0 1-6.815 4.972 39.82 39.82 0 0 0-6.544-.701 1.742 1.742 0 0 0 1.012-1.58v-2.336c3.135-.784 5.466-3.615 5.466-6.99 0-3.373-2.331-6.205-5.466-6.988v-7.218c1.178.625 1.992 1.85 1.992 3.275a1.745 1.745 0 1 0 3.49 0c0-3.38-2.34-6.215-5.482-6.993V7.704a1.745 1.745 0 1 0-3.49 0v2.341c-3.126.789-5.45 3.617-5.45 6.985 0 3.368 2.324 6.195 5.45 6.984v7.214c-1.17-.628-1.976-1.848-1.976-3.266a1.745 1.745 0 1 0-3.49 0c0 3.374 2.331 6.205 5.466 6.989v2.336c0 .692.405 1.284.988 1.567-2.36.017-4.642.226-6.773.605a18.506 18.506 0 0 1-11.035-16.963c0-10.238 8.328-18.566 18.565-18.566zM8.956 60.831c-.461.856-1.12 1.346-1.789 1.303-.326-.02-.605-.393-.618-.688-.024-.523 1.084-.717 1.306-.75a2.838 2.838 0 0 1 1.138.067l-.037.068zm91.592-5.358h-2.87c-2.405-6.954-7.298-12.975-13.646-16.78V27.527c0-.963-.781-1.745-1.745-1.745-3.269 0-6.042.909-8.318 2.156.44-1.75.683-3.572.683-5.443C74.652 10.334 64.758.44 52.596.44S30.54 10.334 30.54 22.496a22.01 22.01 0 0 0 4.342 13.143 31.307 31.307 0 0 0-21.534 23.8c-.122-.117-.238-.237-.368-.35.125-2.134-.536-4.366-1.938-6.243-3.92-5.25-9.231-4.84-9.46-4.822A1.737 1.737 0 0 0 .005 49.9a1.745 1.745 0 0 0 1.868 1.604c.146-.008 3.657-.204 6.372 3.431.582.779.931 1.57 1.11 2.326a6.299 6.299 0 0 0-2.023-.016c-3.274.496-4.346 2.657-4.27 4.358.095 2.124 1.805 3.888 3.893 4.015.1.006.2.01.299.01 1.796 0 3.448-.995 4.532-2.723.46.592.79 1.147.963 1.459-.02.456-.03.915-.03 1.376 0 10.134 4.926 19.714 13.176 25.625 3.733 2.675 5.961 7.12 5.961 11.89 0 .965.781 1.746 1.745 1.746h15.984c.964 0 1.745-.781 1.745-1.745v-6h9.455v6c0 .964.781 1.745 1.746 1.745h15.983c.964 0 1.745-.8 1.745-1.763 0-4.701 2.346-9.232 6.275-12.119a31.713 31.713 0 0 0 11.144-15.112h2.87a4.659 4.659 0 0 0 4.653-4.654V60.127a4.659 4.659 0 0 0-4.653-4.654z"/></g><g><path fill="#e9933e" d="M83.877 54.551c-.964 0-1.745.782-1.745 1.745a2.34 2.34 0 0 1-2.338 2.338 2.34 2.34 0 0 1-2.338-2.338 1.745 1.745 0 1 0-3.49 0 5.834 5.834 0 0 0 5.828 5.829 5.835 5.835 0 0 0 5.828-5.829c0-.963-.78-1.745-1.745-1.745z"/></g></g></g></svg>