<svg xmlns="http://www.w3.org/2000/svg" width="38" height="47" viewBox="0 0 38 47"><g><g><path fill="#e9933e" d="M30 38.5h-2v-2h2zm0-5h-2a3 3 0 0 0-3 3v2a3 3 0 0 0 3 3h2a3 3 0 0 0 3-3v-2a3 3 0 0 0-3-3zm-10 5h-2v-2h2zm0-5h-2a3 3 0 0 0-3 3v2a3 3 0 0 0 3 3h2a3 3 0 0 0 3-3v-2a3 3 0 0 0-3-3zm-12 3h2v2H8zm0 5h2a3 3 0 0 0 3-3v-2a3 3 0 0 0-3-3H8a3 3 0 0 0-3 3v2a3 3 0 0 0 3 3zm22-12h-2v-2h2zm0-5h-2a3 3 0 0 0-3 3v2a3 3 0 0 0 3 3h2a3 3 0 0 0 3-3v-2a3 3 0 0 0-3-3zm-10 5h-2v-2h2zm0-5h-2a3 3 0 0 0-3 3v2a3 3 0 0 0 3 3h2a3 3 0 0 0 3-3v-2a3 3 0 0 0-3-3zm-12 3h2v2H8zm0 5h2a3 3 0 0 0 3-3v-2a3 3 0 0 0-3-3H8a3 3 0 0 0-3 3v2a3 3 0 0 0 3 3zm22-12h-2v-2h2zm0-5h-2a3 3 0 0 0-3 3v2a3 3 0 0 0 3 3h2a3 3 0 0 0 3-3v-2a3 3 0 0 0-3-3zm-10 5h-2v-2h2zm0-5h-2a3 3 0 0 0-3 3v2a3 3 0 0 0 3 3h2a3 3 0 0 0 3-3v-2a3 3 0 0 0-3-3zm-12 3h2v2H8zm0 5h2a3 3 0 0 0 3-3v-2a3 3 0 0 0-3-3H8a3 3 0 0 0-3 3v2a3 3 0 0 0 3 3zm0-15h22v2H8zm0 5h22a3 3 0 0 0 3-3v-2a3 3 0 0 0-3-3H8a3 3 0 0 0-3 3v2a3 3 0 0 0 3 3zm27 30H3v-40h32zm0-43H3a3 3 0 0 0-3 3v40a3 3 0 0 0 3 3h32a3 3 0 0 0 3-3v-40a3 3 0 0 0-3-3z"/></g></g></svg>