<svg xmlns="http://www.w3.org/2000/svg" width="79" height="84" viewBox="0 0 79 84"><g><g><g><g><path fill="#53575a" d="M59.192 12.646h-7.408V5.24zM44.794 80.513H3.484V3.483H49.3v10.405c0 .686.558 1.242 1.244 1.242H62.19c.147 0 .287-.031.423-.082.04-.014.072-.033.11-.053.102-.048.195-.11.282-.185.02-.017.044-.025.063-.043.012-.013.014-.027.026-.039.099-.106.186-.224.244-.364v-.005c.005-.01.005-.022.008-.032.05-.128.072-.26.077-.393.002-.041-.003-.082-.007-.125a1.176 1.176 0 0 0-.06-.307c-.013-.043-.025-.084-.042-.123a1.247 1.247 0 0 0-.246-.368L51.421 1.364a1.143 1.143 0 0 0-.363-.243c-.039-.019-.08-.03-.12-.042a1.293 1.293 0 0 0-.31-.064c-.03-.001-.055-.015-.085-.015h-48.3A1.24 1.24 0 0 0 1 2.242v79.516C1 82.443 1.556 83 2.243 83h42.551a1.244 1.244 0 0 0 0-2.487z"/><path fill="none" stroke="#53575a" stroke-miterlimit="20" stroke-width=".5" d="M59.192 12.646h-7.408V5.24zM44.794 80.513H3.484V3.483H49.3v10.405c0 .686.558 1.242 1.244 1.242H62.19c.147 0 .287-.031.423-.082.04-.014.072-.033.11-.053.102-.048.195-.11.282-.185.02-.017.044-.025.063-.043.012-.013.014-.027.026-.039.099-.106.186-.224.244-.364v-.005c.005-.01.005-.022.008-.032.05-.128.072-.26.077-.393.002-.041-.003-.082-.007-.125a1.176 1.176 0 0 0-.06-.307c-.013-.043-.025-.084-.042-.123a1.247 1.247 0 0 0-.246-.368L51.421 1.364a1.143 1.143 0 0 0-.363-.243c-.039-.019-.08-.03-.12-.042a1.293 1.293 0 0 0-.31-.064c-.03-.001-.055-.015-.085-.015h-48.3A1.24 1.24 0 0 0 1 2.242v79.516C1 82.443 1.556 83 2.243 83h42.551a1.244 1.244 0 0 0 0-2.487z"/></g></g><g><g><path fill="#53575a" d="M60.948 31.284v13.2a1.243 1.243 0 0 0 2.486 0v-13.2a1.243 1.243 0 0 0-2.486 0z"/><path fill="none" stroke="#53575a" stroke-miterlimit="20" stroke-width=".5" d="M60.948 31.284v13.2a1.243 1.243 0 0 0 2.486 0v-13.2a1.243 1.243 0 0 0-2.486 0z"/></g></g><g><g><path fill="#53575a" d="M34.638 12.646H11.095a1.242 1.242 0 0 0 0 2.484h23.543a1.242 1.242 0 0 0 0-2.484z"/><path fill="none" stroke="#53575a" stroke-miterlimit="20" stroke-width=".5" d="M34.638 12.646H11.095a1.242 1.242 0 0 0 0 2.484h23.543a1.242 1.242 0 0 0 0-2.484z"/></g></g><g><g><path fill="#53575a" d="M29.733 23.123c0 .685.556 1.242 1.244 1.242H44.64a1.242 1.242 0 0 0 0-2.486H30.977c-.688 0-1.244.557-1.244 1.244z"/><path fill="none" stroke="#53575a" stroke-miterlimit="20" stroke-width=".5" d="M29.733 23.123c0 .685.556 1.242 1.244 1.242H44.64a1.242 1.242 0 0 0 0-2.486H30.977c-.688 0-1.244.557-1.244 1.244z"/></g></g><g><g><path fill="#53575a" d="M11.095 24.365h12.422a1.242 1.242 0 1 0 0-2.486H11.095a1.242 1.242 0 0 0 0 2.486z"/><path fill="none" stroke="#53575a" stroke-miterlimit="20" stroke-width=".5" d="M11.095 24.365h12.422a1.242 1.242 0 1 0 0-2.486H11.095a1.242 1.242 0 0 0 0 2.486z"/></g></g><g><g><path fill="#53575a" d="M54.58 41.59c0-.685-.556-1.242-1.243-1.242H34.703a1.242 1.242 0 0 0 0 2.486h18.634c.687 0 1.242-.557 1.242-1.244z"/><path fill="none" stroke="#53575a" stroke-miterlimit="20" stroke-width=".5" d="M54.58 41.59c0-.685-.556-1.242-1.243-1.242H34.703a1.242 1.242 0 0 0 0 2.486h18.634c.687 0 1.242-.557 1.242-1.244z"/></g></g><g><g><path fill="#53575a" d="M47.126 50.825c0-.686-.557-1.243-1.244-1.243H33.461a1.242 1.242 0 0 0 0 2.485h12.421c.687 0 1.244-.557 1.244-1.242z"/><path fill="none" stroke="#53575a" stroke-miterlimit="20" stroke-width=".5" d="M47.126 50.825c0-.686-.557-1.243-1.244-1.243H33.461a1.242 1.242 0 0 0 0 2.485h12.421c.687 0 1.244-.557 1.244-1.242z"/></g></g><g><g><path fill="#53575a" d="M11.095 52.067h14.906a1.242 1.242 0 0 0 0-2.485H11.095a1.242 1.242 0 0 0 0 2.485z"/><path fill="none" stroke="#53575a" stroke-miterlimit="20" stroke-width=".5" d="M11.095 52.067h14.906a1.242 1.242 0 0 0 0-2.485H11.095a1.242 1.242 0 0 0 0 2.485z"/></g></g><g><g><path fill="#53575a" d="M11.095 61.302h9.936a1.242 1.242 0 1 0 0-2.486h-9.936a1.243 1.243 0 0 0 0 2.486z"/><path fill="none" stroke="#53575a" stroke-miterlimit="20" stroke-width=".5" d="M11.095 61.302h9.936a1.242 1.242 0 1 0 0-2.486h-9.936a1.243 1.243 0 0 0 0 2.486z"/></g></g><g><g><path fill="#53575a" d="M40.91 60.059a1.24 1.24 0 0 0-1.24-1.242H28.49a1.243 1.243 0 0 0 0 2.486h11.18c.686 0 1.24-.56 1.24-1.244z"/><path fill="none" stroke="#53575a" stroke-miterlimit="20" stroke-width=".5" d="M40.91 60.059a1.24 1.24 0 0 0-1.24-1.242H28.49a1.243 1.243 0 0 0 0 2.486h11.18c.686 0 1.24-.56 1.24-1.244z"/></g></g><g><g><path fill="#53575a" d="M11.095 70.538H34.7a1.244 1.244 0 0 0 0-2.486H11.095a1.244 1.244 0 0 0 0 2.486z"/><path fill="none" stroke="#53575a" stroke-miterlimit="20" stroke-width=".5" d="M11.095 70.538H34.7a1.244 1.244 0 0 0 0-2.486H11.095a1.244 1.244 0 0 0 0 2.486z"/></g></g><g><g><path fill="#53575a" d="M62.19 80.513c-7.535 0-13.667-6.13-13.667-13.664 0-7.538 6.132-13.67 13.667-13.67 7.536 0 13.667 6.132 13.667 13.67 0 7.534-6.131 13.664-13.667 13.664zm0-29.818c-8.906 0-16.152 7.247-16.152 16.154C46.038 75.753 53.284 83 62.19 83s16.15-7.247 16.15-16.15c0-8.908-7.244-16.155-16.15-16.155z"/><path fill="none" stroke="#53575a" stroke-miterlimit="20" stroke-width=".5" d="M62.19 80.513c-7.535 0-13.667-6.13-13.667-13.664 0-7.538 6.132-13.67 13.667-13.67 7.536 0 13.667 6.132 13.667 13.67 0 7.534-6.131 13.664-13.667 13.664zm0-29.818c-8.906 0-16.152 7.247-16.152 16.154C46.038 75.753 53.284 83 62.19 83s16.15-7.247 16.15-16.15c0-8.908-7.244-16.155-16.15-16.155z"/></g></g><g><g><path fill="#53575a" d="M62.19 65.606c-1.878 0-2.788-.793-2.788-2.421 0-1.334 1.25-2.42 2.788-2.42 1.168 0 2.22.64 2.62 1.595a1.242 1.242 0 1 0 2.29-.962c-.64-1.524-2.016-2.6-3.666-2.967v-.923a1.244 1.244 0 0 0-2.486 0v.924c-2.308.523-4.032 2.447-4.032 4.753 0 2.373 1.388 4.905 5.274 4.905 1.859 0 2.803.816 2.803 2.42 0 1.335-1.252 2.42-2.79 2.42-1.166 0-2.219-.641-2.62-1.595a1.242 1.242 0 1 0-2.29.964c.638 1.519 2.01 2.592 3.655 2.962v.926a1.243 1.243 0 0 0 2.486 0v-.92c2.313-.52 4.043-2.447 4.043-4.757 0-2.979-2.077-4.904-5.287-4.904z"/><path fill="none" stroke="#53575a" stroke-miterlimit="20" stroke-width=".5" d="M62.19 65.606c-1.878 0-2.788-.793-2.788-2.421 0-1.334 1.25-2.42 2.788-2.42 1.168 0 2.22.64 2.62 1.595a1.242 1.242 0 1 0 2.29-.962c-.64-1.524-2.016-2.6-3.666-2.967v-.923a1.244 1.244 0 0 0-2.486 0v.924c-2.308.523-4.032 2.447-4.032 4.753 0 2.373 1.388 4.905 5.274 4.905 1.859 0 2.803.816 2.803 2.42 0 1.335-1.252 2.42-2.79 2.42-1.166 0-2.219-.641-2.62-1.595a1.242 1.242 0 1 0-2.29.964c.638 1.519 2.01 2.592 3.655 2.962v.926a1.243 1.243 0 0 0 2.486 0v-.92c2.313-.52 4.043-2.447 4.043-4.757 0-2.979-2.077-4.904-5.287-4.904z"/></g></g><g><g><path fill="#53575a" d="M52.66 19.995l-7.34 11.273-10.328-2.487a1.238 1.238 0 0 0-1.277.453l-6.17 8.04-8.376-4.839a1.245 1.245 0 0 0-1.536.232l-7.451 8.08a1.245 1.245 0 0 0 .913 2.087c.335 0 .668-.134.913-.402l6.78-7.349 8.458 4.886a1.24 1.24 0 0 0 1.606-.318l6.341-8.263 10.4 2.503a1.243 1.243 0 0 0 1.331-.532l7.305-11.223 11.945 3.657c.442.135.917.015 1.243-.307l10.56-10.561a1.243 1.243 0 0 0-1.757-1.758L66.187 23.2l-12.124-3.716a1.24 1.24 0 0 0-1.404.511z"/><path fill="none" stroke="#53575a" stroke-miterlimit="20" stroke-width=".5" d="M52.66 19.995v0l-7.34 11.273v0l-10.328-2.487a1.238 1.238 0 0 0-1.277.453l-6.17 8.04v0l-8.376-4.839a1.245 1.245 0 0 0-1.536.232l-7.451 8.08a1.245 1.245 0 0 0 .913 2.087c.335 0 .668-.134.913-.402l6.78-7.349v0l8.458 4.886a1.24 1.24 0 0 0 1.606-.318l6.341-8.263v0l10.4 2.503a1.243 1.243 0 0 0 1.331-.532l7.305-11.223v0l11.945 3.657c.442.135.917.015 1.243-.307l10.56-10.561a1.243 1.243 0 0 0-1.757-1.758L66.187 23.2v0l-12.124-3.716a1.24 1.24 0 0 0-1.404.511z"/></g></g></g></g></svg>