<svg xmlns="http://www.w3.org/2000/svg" width="120" height="120" viewBox="0 0 120 120"><g><g><g><g><g><path fill="#b0bec5" d="M85.938 13.67l.936-7.887 3.93.466a.93.93 0 0 0 1.035-.809l.001-.008a4.046 4.046 0 0 1 8.047.857l-.012.097a.933.933 0 0 0 .816 1.035l3.93.466-.936 7.888zm32.567-3.455l-12.11-1.438.188-1.594a.932.932 0 0 0-.816-1.036l-4-.475a5.92 5.92 0 0 0-5.209-5.63 5.914 5.914 0 0 0-6.383 4.254l-4-.475a.928.928 0 0 0-1.035.807v.01l-.19 1.6L72.85 4.8a.933.933 0 0 0-1.036.815l-3.387 28.15a.934.934 0 0 0 1.852.223l3.276-27.225 11.172 1.328-.312 2.631-7.42-.88a.932.932 0 0 0-1.037.813l-3.315 27.543a.933.933 0 0 0 1.852.222l3.2-26.619 6.5.772-.215 1.81a.932.932 0 0 0 .816 1.035l19.6 2.327a.933.933 0 0 0 1.036-.816l.215-1.81 6.51.772-6.332 53.335-10.734-1.279a.933.933 0 0 0-.22 1.852l11.66 1.39a.93.93 0 0 0 1.036-.815l6.551-55.188a.934.934 0 0 0-.816-1.036l-7.436-.882.312-2.63 11.185 1.327-7.4 62.3-14.878-1.772a.933.933 0 0 0-.22 1.852l15.8 1.882a.932.932 0 0 0 1.036-.816l7.615-64.152a.933.933 0 0 0-.807-1.044z"/></g></g><g><g><g><path fill="#b0bec5" d="M7.746 92.127a.932.932 0 0 1-.93-.9l-.169-4.442A13.353 13.353 0 0 1 2.37 72.78a5.68 5.68 0 0 1-1.305-7.926l.022-.03a5.829 5.829 0 0 1 8.885-.62 13.784 13.784 0 0 1 6.852-1.073 5.82 5.82 0 0 1 7.757-2.655.932.932 0 1 1-.814 1.677 3.953 3.953 0 0 0-2.348-.347 3.89 3.89 0 0 0-3.117 2.63.937.937 0 0 1-1.027.63 11.94 11.94 0 0 0-7.137 1.116.928.928 0 0 1-1.167-.28 3.962 3.962 0 0 0-6.376.017 3.79 3.79 0 0 0-.683 2.847 3.838 3.838 0 0 0 2.008 2.788.931.931 0 0 1 .438 1.135 11.49 11.49 0 0 0 3.78 12.906c.216.17.346.426.356.7l.091 2.4 1.06-1.294a.935.935 0 0 1 1.09-.265 11.885 11.885 0 0 0 12.557-1.964.93.93 0 0 1 1.121-.084l.424.272a.933.933 0 0 1-.842 1.653 13.75 13.75 0 0 1-13.342 2.1l-2.186 2.67a.93.93 0 0 1-.72.345z"/></g></g><g><g><path fill="#b0bec5" d="M15.731 77.55a.933.933 0 0 1-.917-.768l-1.263-7.058a.932.932 0 1 1 1.835-.328l1.1 6.144 3.956-.689a.933.933 0 0 1 .321 1.837l-4.87.85a.974.974 0 0 1-.162.012z"/></g></g></g><g><g><g><path fill="#e9933e" d="M92.697 92.95H26.634a3.215 3.215 0 0 1-3.21-3.213v-48.84a3.213 3.213 0 0 1 3.21-3.212h7.474a.932.932 0 1 1 0 1.865h-7.472c-.743 0-1.345.602-1.346 1.345v48.842a1.35 1.35 0 0 0 1.346 1.348H92.7a1.349 1.349 0 0 0 1.346-1.348v-48.84A1.346 1.346 0 0 0 92.7 39.55h-7.472a.933.933 0 0 1 0-1.865H92.7a3.213 3.213 0 0 1 3.211 3.211v48.842a3.214 3.214 0 0 1-3.214 3.211z"/></g></g><g><g><g><path fill="#e9933e" d="M42.081 38.618h35.17"/></g></g><g><g><path fill="#e9933e" d="M77.251 39.55h-35.17a.933.933 0 0 1 0-1.865h35.17a.932.932 0 1 1 0 1.865z"/></g></g></g><g><g><g><path fill="#e9933e" d="M31.474 51.523h56.383"/></g></g><g><g><path fill="#e9933e" d="M87.857 52.456H31.474a.933.933 0 0 1 0-1.865h56.383a.932.932 0 1 1 0 1.865z"/></g></g></g><g><g><g><g><path fill="#e9933e" d="M39.971 72.361h-5.7a.932.932 0 0 1-.932-.932v-2.983a.932.932 0 1 1 1.865 0v2.051h4.771a.932.932 0 1 1 0 1.864z"/></g></g><g><g><path fill="#e9933e" d="M39.971 82.04h-5.7a.932.932 0 0 1-.932-.932v-2.98a.933.933 0 1 1 1.865 0v2.048h4.771a.932.932 0 1 1 0 1.865z"/></g></g></g><g><g><g><path fill="#e9933e" d="M51.245 72.361h-5.7a.932.932 0 0 1-.932-.932v-2.983a.932.932 0 1 1 1.865 0v2.051h4.772a.932.932 0 1 1 0 1.864z"/></g></g><g><g><path fill="#e9933e" d="M51.245 82.04h-5.7a.932.932 0 0 1-.932-.932v-2.98a.933.933 0 1 1 1.865 0v2.048h4.772a.933.933 0 1 1 0 1.865z"/></g></g></g><g><g><g><path fill="#e9933e" d="M62.517 62.681h-5.7a.932.932 0 0 1-.932-.932v-2.98a.932.932 0 1 1 1.864 0v2.048h4.772a.932.932 0 1 1 0 1.865z"/></g></g><g><g><path fill="#e9933e" d="M62.517 72.361h-5.7a.932.932 0 0 1-.932-.932v-2.983a.932.932 0 0 1 1.864 0v2.051h4.772a.932.932 0 1 1 0 1.864z"/></g></g><g><g><path fill="#e9933e" d="M62.517 82.04h-5.7a.932.932 0 0 1-.932-.932v-2.98a.932.932 0 1 1 1.864 0v2.048h4.772a.932.932 0 1 1 0 1.865z"/></g></g></g><g><g><g><path fill="#e9933e" d="M73.791 62.681h-5.7a.932.932 0 0 1-.932-.932v-2.98a.933.933 0 1 1 1.865 0v2.048h4.772a.932.932 0 1 1 0 1.865z"/></g></g><g><g><path fill="#e9933e" d="M73.791 72.361h-5.7a.932.932 0 0 1-.932-.932v-2.983a.932.932 0 1 1 1.865 0v2.051h4.772a.932.932 0 1 1 0 1.864z"/></g></g><g><g><path fill="#e9933e" d="M73.791 82.04h-5.7a.932.932 0 0 1-.932-.932v-2.98a.933.933 0 1 1 1.865 0v2.048h4.772a.932.932 0 1 1 0 1.865z"/></g></g></g><g><g><g><path fill="#e9933e" d="M85.064 62.681h-5.7a.932.932 0 0 1-.932-.932v-2.98a.932.932 0 1 1 1.864 0v2.048h4.771a.933.933 0 1 1 0 1.865z"/></g></g><g><g><path fill="#e9933e" d="M85.064 72.361h-5.7a.932.932 0 0 1-.932-.932v-2.983a.932.932 0 0 1 1.864 0v2.051h4.771a.932.932 0 1 1 0 1.864z"/></g></g></g></g><g><g><path fill="#e9933e" d="M69.712 35.082h-6.148a.932.932 0 0 1-.932-.932 2.966 2.966 0 0 0-5.932 0 .932.932 0 0 1-.932.932H49.62a.933.933 0 0 1 0-1.865h5.306a4.831 4.831 0 0 1 9.481 0h5.306a.933.933 0 1 1 0 1.865z"/></g></g><g><g><g><g><path fill="#e9933e" d="M38.093 44.866v-17.56"/></g></g><g><g><path fill="#e9933e" d="M38.093 45.798a.932.932 0 0 1-.932-.932v-17.56a.932.932 0 1 1 1.864 0v17.56a.932.932 0 0 1-.932.932z"/></g></g></g><g><g><g><path fill="#e9933e" d="M81.237 44.866v-17.56"/></g></g><g><g><path fill="#e9933e" d="M81.237 45.798a.932.932 0 0 1-.932-.932v-17.56a.932.932 0 1 1 1.864 0v17.56a.932.932 0 0 1-.932.932z"/></g></g></g></g></g><g><g><path fill="#b0bec5" d="M108.017 106.838a4.895 4.895 0 0 1-3.077 2.182l-.044.01-2.19-9.613.042-.01a4.93 4.93 0 0 1 5.27 7.43zm-36.412 4.332l.171.75-.734-.228zm9.484 3.288l-2.192-9.612 19.176-4.372 2.191 9.614zm-7.256-1.9l-.649-2.847 4.054-3.759 1.878 8.238zm25.918-13.8a.5.5 0 0 1 .915.15l.001.004c0 .015.014.025.018.04l2.6 11.4c0 .007.006.011.008.018.002.008 0 .012 0 .02a.51.51 0 0 1-.99.237c0-.012-.012-.02-.015-.03-.003-.012 0-.01 0-.018l-2.6-11.414v-.029a.5.5 0 0 1 .063-.377zm10.718 3.948a6.799 6.799 0 0 0-8.133-5.115l-.232.053a2.347 2.347 0 0 0-.664-.623 2.325 2.325 0 0 0-1.788-.3c-.93.211-1.642.96-1.806 1.9l-20.235 4.612c-.018 0-.03.017-.048.021a.938.938 0 0 0-.168.076.893.893 0 0 0-.164.101c-.013.011-.03.014-.043.027l-8.6 7.97a.932.932 0 0 0 .36 1.574l11.16 3.446h.014l.026.008a.901.901 0 0 0 .193.03c.027 0 .051.013.078.013.07 0 .14-.008.208-.024l20.222-4.609a2.23 2.23 0 0 0 1.53.952l.356 1.568-13.585 3.1a.932.932 0 1 0 .381 1.824l.034-.007 14.494-3.3a.931.931 0 0 0 .7-1.115l-.562-2.467c.502-.365.84-.914.94-1.526l.215-.049a6.794 6.794 0 0 0 5.113-8.132z"/></g></g></g></g></g></svg>