<svg xmlns="http://www.w3.org/2000/svg" width="107" height="107" viewBox="0 0 107 107"><g><g><g><g><g><path fill="#b0bec5" d="M29.06 35.623H9.655A3.248 3.248 0 0 1 6.42 32.37v-6.557a.829.829 0 1 1 1.66 0v6.557a1.59 1.59 0 0 0 1.576 1.6H29.06a.829.829 0 1 1 .012 1.658h-.012z"/></g></g><g><g><path fill="#b0bec5" d="M40.941 30.934a.829.829 0 0 1-.829-.829V15.386a1.588 1.588 0 0 0-1.577-1.6h-.949a.829.829 0 0 1 0-1.659h.95a3.25 3.25 0 0 1 3.234 3.255v14.72a.83.83 0 0 1-.826.832z"/></g></g><g><g><path fill="#b0bec5" d="M14.985 30.932h-3.004a.83.83 0 0 1 0-1.658h3.004a.83.83 0 0 1 0 1.658z"/></g></g><g><g><path fill="#b0bec5" d="M20.8 30.932h-3a.829.829 0 0 1 0-1.658h3a.83.83 0 0 1 0 1.658z"/></g></g><g><g><path fill="#b0bec5" d="M26.621 30.932h-3.005a.829.829 0 0 1 0-1.658h3.005a.83.83 0 0 1 0 1.658z"/></g></g><g><g><g><path fill="#b0bec5" d="M3.237 21.834a1.589 1.589 0 0 1-1.578-1.6V10.226h32.035v10.008a1.59 1.59 0 0 1-1.577 1.6zm28.88-20.176a1.59 1.59 0 0 1 1.577 1.6v1.436H1.66V3.258a1.588 1.588 0 0 1 1.577-1.6zM1.658 6.35h32.035v2.223H1.66zM32.117 0H3.238A3.248 3.248 0 0 0 .002 3.255v16.982a3.248 3.248 0 0 0 3.236 3.255h28.88a3.248 3.248 0 0 0 3.234-3.255V3.255A3.248 3.248 0 0 0 32.117 0z"/></g></g><g><g><path fill="#b0bec5" d="M29.683 16.963a.83.83 0 0 1-.829.83h-3.9a.83.83 0 0 1-.829-.83v-1.132a.83.83 0 0 1 .83-.829h3.9a.831.831 0 0 1 .828.83zm-.829-3.619h-3.9a2.49 2.49 0 0 0-2.487 2.488v1.131a2.49 2.49 0 0 0 2.487 2.488h3.9a2.49 2.49 0 0 0 2.486-2.488v-1.13a2.488 2.488 0 0 0-2.486-2.489z"/></g></g></g></g><g><g><g><path fill="#b0bec5" d="M66.72 67.548h23.56v21.11a.829.829 0 1 0 1.658 0V66.718a.829.829 0 0 0-.829-.829H66.72a.829.829 0 0 0 0 1.658z"/></g></g><g><g><path fill="#b0bec5" d="M68.774 97.58h13.932a.83.83 0 0 0 0-1.659H68.774a2.864 2.864 0 0 0-1.226.283V75.962a.829.829 0 1 0-1.658 0v22.842a2.888 2.888 0 0 0 2.884 2.884h13.932a.829.829 0 0 0 0-1.658H68.774a1.226 1.226 0 0 1 0-2.45z"/></g></g><g><g><path fill="#b0bec5" d="M99.547 88.573c-3.189 0-4.93-1.122-4.93-1.7V86a11.701 11.701 0 0 0 9.86 0v.874c0 .578-1.74 1.704-4.93 1.704zm0-6.54c3.19 0 4.93 1.122 4.93 1.7 0 .576-1.74 1.7-4.93 1.7-3.19 0-4.93-1.124-4.93-1.7 0-.578 1.74-1.7 4.93-1.7zm6.588 1.7c0-1.915-2.833-3.358-6.588-3.358s-6.588 1.443-6.588 3.357c0 .061.011.12.017.18a.752.752 0 0 0-.017.081V89c0 .458.371.83.83.83a.82.82 0 0 0 .8-.7 11.693 11.693 0 0 0 9.886.014v.913c0 .577-1.74 1.7-4.93 1.7h-.273a4.866 4.866 0 0 1-.895-.046.829.829 0 1 0-.216 1.644c.308.044.618.064.928.062h.456c1.71.054 3.404-.32 4.931-1.089v.913c0 .576-1.74 1.7-4.93 1.7h-.274a5.06 5.06 0 0 1-.895-.046.829.829 0 1 0-.215 1.644c.307.044.617.065.928.062h.456c1.708.054 3.403-.32 4.93-1.089v.913c0 .577-1.74 1.7-4.93 1.7h-.273a4.96 4.96 0 0 1-.895-.046.83.83 0 0 0-.216 1.644c.308.044.618.065.928.062h.456c1.71.054 3.404-.32 4.931-1.089v.913c0 .577-1.74 1.7-4.93 1.7h-.274a4.87 4.87 0 0 1-.895-.046.83.83 0 0 0-.215 1.644c.307.044.617.065.928.062h.456c3.756 0 6.588-1.443 6.588-3.357V84.004c-.005-.027-.01-.055-.017-.082.001-.07.017-.129.017-.19z"/></g></g><g><g><path fill="#b0bec5" d="M90.474 104.472c-3.189 0-4.93-1.122-4.93-1.7v-.913a11.711 11.711 0 0 0 9.86 0v.913c.005.581-1.74 1.704-4.93 1.704zm0-12.9c3.19 0 4.931 1.122 4.931 1.7 0 .578-1.74 1.7-4.93 1.7-3.19 0-4.93-1.122-4.93-1.7 0-.578 1.74-1.7 4.93-1.7zm4.931 4.842c0 .576-1.74 1.7-4.93 1.7-3.19 0-4.93-1.123-4.93-1.7v-.874a11.711 11.711 0 0 0 9.86 0zm0 3.181c0 .577-1.74 1.7-4.93 1.7-3.19 0-4.93-1.122-4.93-1.7v-.913a11.704 11.704 0 0 0 9.86 0zm-4.93-9.68c-3.756 0-6.588 1.442-6.588 3.356 0 .06.011.12.017.178a.567.567 0 0 0-.017.082v9.245c0 1.914 2.832 3.357 6.587 3.357 3.756 0 6.588-1.443 6.588-3.357V93.53a.743.743 0 0 0-.016-.082c.005-.06.016-.118.016-.178 0-1.912-2.832-3.355-6.588-3.355z"/></g></g></g><g><g><g><path fill="#b0bec5" d="M1.94 64.661a.83.83 0 0 1-.812-.659 53.27 53.27 0 0 1 5.276-36.23.829.829 0 1 1 1.458.792 51.612 51.612 0 0 0-5.11 35.1.828.828 0 0 1-.813.997z"/></g></g><g><g><path fill="#b0bec5" d="M35.271 103.025a.851.851 0 0 1-.283-.049 54.634 54.634 0 0 1-2.878-1.139.83.83 0 0 1 .655-1.524c.913.393 1.851.763 2.79 1.1a.83.83 0 0 1-.284 1.61z"/></g></g><g><g><path fill="#b0bec5" d="M53.067 106.134a53.171 53.171 0 0 1-14.744-2.075.83.83 0 0 1 .46-1.594 51.637 51.637 0 0 0 35.053-2.357.828.828 0 1 1 .67 1.517 52.708 52.708 0 0 1-21.439 4.51z"/></g></g><g><g><path fill="#b0bec5" d="M96.906 82.315a.83.83 0 0 1-.694-1.28 51.538 51.538 0 0 0 5.817-43.688.828.828 0 1 1 1.58-.507 53.191 53.191 0 0 1-6.007 45.1.829.829 0 0 1-.696.375z"/></g></g><g><g><path fill="#b0bec5" d="M76.713 7.304a.84.84 0 0 1-.375-.09 52.221 52.221 0 0 0-3.34-1.55.83.83 0 0 1 .643-1.529 53.255 53.255 0 0 1 3.45 1.6.83.83 0 0 1-.377 1.57z"/></g></g><g><g><path fill="#b0bec5" d="M34.816 4.935a.83.83 0 0 1-.29-1.605 53.32 53.32 0 0 1 34.255-.964.829.829 0 1 1-.49 1.584 51.67 51.67 0 0 0-33.187.933.833.833 0 0 1-.288.052z"/></g></g></g><g><g><path fill="#e9933e" d="M50.551 31.067l12.353 11.94a.716.716 0 1 0 1.008-1.017l-.013-.013-12.352-11.94a.717.717 0 0 0-.996 1.03z"/></g><g><path fill="#e9933e" d="M56.531 45.478l-4.804-4.644a.717.717 0 1 0-.994 1.03l4.803 4.642a.715.715 0 0 0 .995-1.028z"/></g><g><path fill="#e9933e" d="M45.244 36.558l2.744 2.652a.717.717 0 1 0 .995-1.028l-2.745-2.653a.716.716 0 1 0-1.035.99l.041.04z"/></g><g><path fill="#e9933e" d="M39.937 42.048l6.862 6.633a.716.716 0 0 0 .995-1.029l-6.862-6.633a.716.716 0 0 0-.995 1.03z"/></g><g><path fill="#e9933e" d="M34.63 47.538l6.862 6.633a.715.715 0 0 0 .995-1.029l-6.862-6.633a.716.716 0 0 0-.995 1.03z"/></g><g><path fill="#e9933e" d="M40.611 61.948l-4.63-4.476a.716.716 0 0 0-.996 1.03l4.631 4.476a.716.716 0 0 0 .995-1.03z"/></g><g><path fill="#e9933e" d="M33.235 54.82L30.318 52a.716.716 0 0 0-.995 1.028l2.917 2.82a.716.716 0 0 0 .995-1.029z"/></g><g><path fill="#e9933e" d="M55.957 81.152a2.299 2.299 0 0 1-2.336-2.259l-.094-5.56a.719.719 0 0 0-.544-.684c-5.93-1.463-9.553-7.456-8.09-13.387 1.462-5.932 7.456-9.554 13.387-8.09 5.931 1.462 9.554 7.456 8.091 13.387a11.06 11.06 0 0 1-7.725 7.993.717.717 0 0 0-.52.701l.093 5.562a2.3 2.3 0 0 1-2.262 2.337v.001zm-9.498-2.936l-25.048-24.21 30.846-31.913 19.557 18.904-4.81 4.977a.716.716 0 0 0 .017 1.011l4.975 4.81-4.958 5.13c-2.745-6.32-10.094-9.22-16.415-6.475-6.32 2.745-9.219 10.094-6.474 16.414a12.474 12.474 0 0 0 6.865 6.636zm25.683-35.49l.126 7.34-3.733-3.609zM59.653 78.792l-.084-5.022c6.377-2.109 9.926-8.902 8.014-15.34l5.943-6.149a.718.718 0 0 0 .201-.51l-.183-10.798a.718.718 0 0 0-.219-.502L52.735 20.57a.717.717 0 0 0-1.013.017l-31.84 32.94a.717.717 0 0 0 .017 1.012l26.077 25.207a.716.716 0 0 0 1.013-.018l5.122-5.299.076 4.491a3.731 3.731 0 0 0 7.461-.127z"/></g><g><path fill="#e9933e" d="M51.041 66.691a6.6 6.6 0 1 1 9.332-.159 6.609 6.609 0 0 1-9.332.16zm10.172-10.524a8.035 8.035 0 1 0 .193 11.36 8.042 8.042 0 0 0-.193-11.36z"/></g></g></g></g></svg>