<svg xmlns="http://www.w3.org/2000/svg" width="77" height="70" viewBox="0 0 77 70"><g><g><g><g><path fill="#e9933e" d="M12.493 28.334h-2.052V5.802h12.804v11.78h-2.052V7.853h-8.7z"/></g></g><g><g><path fill="#e9933e" d="M18.9 70H10.44V41.934l-7.085-.018A2.827 2.827 0 0 1 .71 40.14a2.83 2.83 0 0 1 .624-3.125L38.35 0l37.005 37.005a2.83 2.83 0 0 1 .622 3.13 2.829 2.829 0 0 1-2.651 1.772L40.4 41.92v-2.053l32.924-.012a.802.802 0 0 0 .755-.507.802.802 0 0 0-.177-.892L38.35 2.902 2.785 38.466a.799.799 0 0 0-.176.89c.047.12.246.505.753.507l9.131.025v28.06H18.9z"/></g></g><g><g><g><path fill="#e9933e" d="M24.69 61.64c0-.255.208-.462.463-.462h6.277V35.83l-6.076 3.275-3.41-6.06 9.315-5.126a4.988 4.988 0 0 1 2.408-.62h5.698v33.88h5.787c.254 0 .462.208.462.462v6.308H24.69zm22.976 0a2.518 2.518 0 0 0-2.514-2.514h-3.735v-33.88h-7.75a7.05 7.05 0 0 0-3.397.875l-11.13 6.125 5.413 9.622 4.825-2.604v19.862h-4.225a2.518 2.518 0 0 0-2.514 2.514V70h25.027z"/></g></g></g><g><g><g><path fill="#e9933e" d="M60.713 70h-9.89v-2.052h9.89c1.1 0 1.994-.895 1.994-1.993 0-1.1-.894-1.994-1.994-1.994h-4.06v-2.052h4.06a4.05 4.05 0 0 1 4.046 4.046A4.05 4.05 0 0 1 60.713 70z"/></g></g><g><g><path fill="#e9933e" d="M58.944 63.963h-4.061a4.05 4.05 0 0 1-4.045-4.047 4.049 4.049 0 0 1 4.045-4.044h8.85v2.052h-8.85a1.995 1.995 0 0 0 0 3.987h4.06z"/></g></g><g><g><path fill="#e9933e" d="M76.097 70H73.8a6.056 6.056 0 0 1-6.05-6.05V51.692h2.052V63.95a4.002 4.002 0 0 0 3.998 3.998h2.298z"/></g></g><g><g><path fill="#e9933e" d="M63.734 57.923v-2.052h12.362v2.052z"/></g></g></g></g></g></svg>