<svg xmlns="http://www.w3.org/2000/svg" width="70" height="70" viewBox="0 0 70 70"><g><g><g><g><g><path fill="#e9933e" d="M43.429 28.406c-6.28 0-11.2-2.863-11.2-6.517h1.797c0 2.559 4.306 4.719 9.403 4.719 5.096 0 9.402-2.16 9.402-4.72h1.798c0 3.655-4.919 6.518-11.2 6.518z"/></g></g><g><g><path fill="#e9933e" d="M43.429 33.09c-6.28 0-11.2-2.864-11.2-6.518h1.797c0 2.559 4.306 4.719 9.403 4.719 5.096 0 9.402-2.16 9.402-4.72h1.798c0 3.655-4.919 6.518-11.2 6.518z"/></g></g><g><g><path fill="#e9933e" d="M43.429 37.772c-.889 0-1.768-.06-2.617-.174l.243-1.782a17.7 17.7 0 0 0 2.374.158c5.096 0 9.402-2.162 9.402-4.721h1.798c0 3.654-4.918 6.52-11.2 6.52z"/></g></g><g><g><path fill="#e9933e" d="M43.429 42.455c-.882 0-1.763-.06-2.617-.174l.24-1.782c.776.104 1.576.158 2.377.158 5.096 0 9.402-2.162 9.402-4.721h1.798c0 3.654-4.918 6.52-11.2 6.52z"/></g></g><g><g><path fill="#e9933e" d="M35.974 38.745v9.366c0 2.56-4.305 4.72-9.402 4.72-5.097 0-9.404-2.16-9.404-4.72v-9.366c0-2.559 4.307-4.719 9.404-4.719 5.097 0 9.402 2.16 9.402 4.72zm1.799 9.366v-9.366c0-3.654-4.92-6.517-11.201-6.517-6.282 0-11.202 2.863-11.202 6.517v9.366c0 3.655 4.92 6.518 11.202 6.518 6.28 0 11.2-2.863 11.2-6.518z"/></g></g><g><g><path fill="#e9933e" d="M26.572 45.264c-6.282 0-11.202-2.864-11.202-6.519h1.798c0 2.56 4.307 4.721 9.404 4.721 5.097 0 9.402-2.162 9.402-4.72h1.799c0 3.654-4.92 6.518-11.201 6.518z"/></g></g><g><g><path fill="#e9933e" d="M26.572 49.948c-6.282 0-11.202-2.865-11.202-6.52h1.798c0 2.56 4.307 4.721 9.404 4.721 5.097 0 9.402-2.162 9.402-4.72h1.799c0 3.654-4.92 6.519-11.201 6.519z"/></g></g><g><g><path fill="#e9933e" d="M43.429 47.137c-.889 0-1.768-.06-2.617-.173l.243-1.784c.768.106 1.566.158 2.374.158 5.096 0 9.402-2.16 9.402-4.719V21.89c0-2.56-4.306-4.721-9.402-4.721-5.097 0-9.403 2.161-9.403 4.72v4.684h-1.798v-4.683c0-3.657 4.92-6.52 11.2-6.52 6.282 0 11.201 2.863 11.201 6.52v18.73c0 3.654-4.919 6.518-11.2 6.518z"/></g></g></g><g><g><g><path fill="#e9933e" d="M65.853 63.504H57.86a2.65 2.65 0 0 1-2.647-2.647V52.86h1.798v7.996a.85.85 0 0 0 .85.849h7.993z"/></g></g><g><g><path fill="#e9933e" d="M56.73 63.254l-1.243-1.3c.038-.036 3.912-3.748 4.81-4.804 5.553-6.528 7.99-13.358 7.903-22.142-.086-8.943-3.514-17.245-9.648-23.38-6.34-6.34-14.68-9.83-23.484-9.83H35c-4.562.011-9.226 1.042-13.484 2.984l-.747-1.637C25.26 1.1 30.181.011 34.998 0h.07c9.287 0 18.076 3.676 24.755 10.357 6.469 6.469 10.084 15.217 10.176 24.633.09 9.125-2.558 16.537-8.33 23.326-.96 1.125-4.776 4.783-4.94 4.938z"/></g></g><g><g><path fill="#e9933e" d="M34.933 70c-9.287 0-18.074-3.676-24.755-10.357C3.707 53.173.094 44.425.002 35.008c-.088-9.125 2.557-16.537 8.33-23.324.959-1.127 4.775-4.784 4.937-4.94l1.245 1.3c-.04.036-3.912 3.748-4.811 4.804C4.153 19.376 1.714 26.207 1.8 34.99c.086 8.944 3.514 17.247 9.648 23.381 6.341 6.342 14.679 9.83 23.484 9.83h.066c4.563-.01 9.225-1.04 13.483-2.983l.748 1.636C44.738 68.901 39.82 69.99 35.003 70z"/></g></g><g><g><path fill="#e9933e" d="M14.79 17.137h-1.798V9.143c0-.47-.38-.849-.849-.849H4.15V6.496h7.994a2.65 2.65 0 0 1 2.648 2.647z"/></g></g></g></g></g></svg>