<svg xmlns="http://www.w3.org/2000/svg" width="76" height="71" viewBox="0 0 76 71"><g><g><g><g><path fill="#e9933e" d="M12.044 28.42H9.986V5.82H22.83v11.816h-2.058V7.877h-8.729z"/></g></g><g><g><path fill="#e9933e" d="M27.981 70.22H9.986V42.066l-7.108-.019a2.838 2.838 0 0 1-2.654-1.783 2.835 2.835 0 0 1 .626-3.133L37.981 0 75.103 37.12a2.834 2.834 0 0 1 .623 3.137 2.836 2.836 0 0 1-2.657 1.779l-10.066.012L63 39.991l10.067-.013c.51 0 .71-.389.76-.508a.804.804 0 0 0-.18-.894L37.981 2.911 2.305 38.587a.805.805 0 0 0-.177.893.804.804 0 0 0 .756.509l9.16.024v28.148h15.937z"/></g></g><g><g><g><path fill="#e9933e" d="M43.57 46.226a5.11 5.11 0 0 1-5.105 5.105 5.11 5.11 0 0 1-5.103-5.105 5.109 5.109 0 0 1 5.103-5.105 5.11 5.11 0 0 1 5.105 5.105zm2.059 0a7.172 7.172 0 0 0-7.164-7.164c-3.948 0-7.161 3.214-7.161 7.164 0 3.95 3.213 7.163 7.161 7.163a7.171 7.171 0 0 0 7.164-7.163z"/></g></g><g><g><path fill="#e9933e" d="M61.973 62.583a5.11 5.11 0 0 1-5.105 5.103 5.11 5.11 0 0 1-5.105-5.103 5.11 5.11 0 0 1 5.105-5.105 5.11 5.11 0 0 1 5.105 5.105zm2.059 0a7.171 7.171 0 0 0-7.164-7.164 7.171 7.171 0 0 0-7.163 7.164c0 3.948 3.213 7.161 7.163 7.161s7.164-3.213 7.164-7.161z"/></g></g><g><g><path fill="#e9933e" d="M37.225 69.348l-1.618-1.273L58.109 39.46l1.618 1.272z"/></g></g></g><g><g><path fill="#e9933e" d="M11.015 42.05V39.99H27.98v2.059z"/></g></g></g></g></svg>