<svg xmlns="http://www.w3.org/2000/svg" width="80" height="70" viewBox="0 0 80 70"><g><g><g><g><path fill="#e9933e" d="M26.32 70l-1.433-1.435.243-.255c.68-.73 1.704-1.831 4.055-1.831h26.352c1.744-.353 11.616-10.006 13.571-12.196 1.23-1.38 6.59-9.407 8.508-13.454-1.01-.859-3.147-1.602-5.732-1.003-2.581.6-4.281 2.339-6.492 6.64l-.148.288-8.495 4.41-.934-1.798 7.924-4.114c2.063-3.953 4.099-6.566 7.685-7.397 3.698-.86 6.926.446 8.206 2.174l.347.466-.227.535c-1.724 4.03-7.744 13.048-9.13 14.602-.116.128-12.259 12.873-15.083 12.873H29.185c-1.47 0-2.004.575-2.571 1.185z"/></g></g><g><g><path fill="#e9933e" d="M51.957 57.76H35.84v-2.026h16.116c2.994 0 4.358-1.795 4.358-3.463 0-1.667-1.364-3.463-4.358-3.463H41.212c-1.005 0-2.028-.786-3.214-1.693-1.098-.841-2.465-1.889-3.442-1.889h-8.954c-2.006 0-4.761 1.716-6.471 3.309-2.638 2.64-7.363 7.114-7.41 7.158l-1.394-1.473c.049-.044 4.754-4.498 7.398-7.142 1.933-1.803 5.134-3.878 7.877-3.878h8.954c1.664 0 3.262 1.224 4.674 2.306.655.5 1.642 1.258 1.984 1.276h10.743c4.192 0 6.384 2.76 6.384 5.49 0 2.726-2.192 5.488-6.384 5.488z"/></g></g><g><g><path fill="#e9933e" d="M10.712 46.381H8.686v-9.505l-6.064-.014a2.585 2.585 0 0 1-2.417-1.623 2.586 2.586 0 0 1 .569-2.855L33.158 0l32.376 32.376c.752.752.975 1.874.568 2.859a2.612 2.612 0 0 1-2.422 1.617l-49.288.012v-2.026l49.288-.012a.574.574 0 0 0 .55-.367.576.576 0 0 0-.128-.65L33.158 2.865 2.206 33.817a.579.579 0 0 0-.13.648.58.58 0 0 0 .552.37l8.084.021z"/></g></g><g><g><path fill="#e9933e" d="M57.292 44.213V35.84h2.026v8.372z"/></g></g></g></g></svg>