<svg xmlns="http://www.w3.org/2000/svg" width="89" height="88" viewBox="0 0 89 88"><g><g><g><path fill="#53575a" d="M49.29 63.244h-1.393a1.494 1.494 0 0 1 0-2.988h1.393a2.382 2.382 0 0 0 2.378-2.38V51.95c0-.636-.248-1.233-.698-1.683a2.36 2.36 0 0 0-1.68-.695l-13.697.021c-2.326 0-4.5-.898-6.136-2.532a8.612 8.612 0 0 1-2.543-6.132V25.112c0-5.095 4.145-9.24 9.242-9.24h5.689a1.493 1.493 0 1 1 0 2.988h-5.689a6.26 6.26 0 0 0-6.254 6.252V40.93c0 1.517.592 2.944 1.666 4.018a5.64 5.64 0 0 0 4.012 1.658l13.701-.021c1.471.027 2.784.555 3.8 1.568a5.331 5.331 0 0 1 1.575 3.798v5.926a5.374 5.374 0 0 1-5.366 5.368z"/></g><g><path fill="#53575a" d="M61.334 33.87H52.98c-.825 0-1.494-.67-1.494-1.494V29.23a2.383 2.383 0 0 0-2.38-2.38h-1.21a1.493 1.493 0 1 1 0-2.988h1.21a5.375 5.375 0 0 1 5.368 5.368v1.653h5.365v-5.77a6.26 6.26 0 0 0-6.254-6.252h-5.69a1.494 1.494 0 0 1 0-2.988h5.69c5.097 0 9.242 4.145 9.242 9.24v7.264c0 .824-.668 1.494-1.494 1.494z"/></g><g><path fill="#53575a" d="M53.586 71.234h-5.689a1.494 1.494 0 0 1 0-2.988h5.689a6.26 6.26 0 0 0 6.254-6.254V46.176a5.64 5.64 0 0 0-1.666-4.017 5.643 5.643 0 0 0-4.012-1.66l-13.701.022a5.34 5.34 0 0 1-3.802-1.57 5.337 5.337 0 0 1-1.573-3.798V29.23a5.373 5.373 0 0 1 5.366-5.368h1.393a1.493 1.493 0 1 1 0 2.988h-1.393a2.381 2.381 0 0 0-2.378 2.38v5.924c0 .637.248 1.234.698 1.684a2.36 2.36 0 0 0 1.68.695l13.696-.022c2.326 0 4.5.899 6.137 2.535a8.598 8.598 0 0 1 2.543 6.131v15.816c0 5.095-4.145 9.242-9.242 9.242z"/></g><g><path fill="#53575a" d="M41.845 71.234h-5.689c-5.097 0-9.242-4.147-9.242-9.242v-7.263c0-.826.668-1.494 1.494-1.494h8.352c.826 0 1.494.668 1.494 1.494v3.147a2.383 2.383 0 0 0 2.38 2.38h1.213a1.493 1.493 0 1 1 0 2.988h-1.213a5.375 5.375 0 0 1-5.368-5.368v-1.653h-5.364v5.769a6.26 6.26 0 0 0 6.254 6.254h5.689a1.493 1.493 0 1 1 0 2.988z"/></g><g><path fill="#53575a" d="M43.339 15.47h3.064v22.053h-3.064zm6.052 23.547V13.976c0-.824-.668-1.494-1.494-1.494h-6.052c-.826 0-1.494.67-1.494 1.494v25.04c0 .825.668 1.495 1.494 1.495h6.052c.826 0 1.494-.67 1.494-1.494z"/></g><g><path fill="#53575a" d="M43.339 49.685h3.064V71.74h-3.064zm6.052 23.548V48.19c0-.824-.668-1.494-1.494-1.494h-6.052c-.826 0-1.494.67-1.494 1.494v25.042c0 .825.668 1.494 1.494 1.494h6.052c.826 0 1.494-.669 1.494-1.494z"/></g><g><path fill="#53575a" d="M51.475 87.21H8.87c-.397 0-.777-.158-1.057-.44a1.481 1.481 0 0 1-.437-1.056l.016-13.908a1.495 1.495 0 0 1 2.987.004l-.014 12.412h41.11a1.493 1.493 0 1 1 0 2.988z"/></g><g><path fill="#53575a" d="M15.498 79.914a1.49 1.49 0 0 1-1.057-.438l-5.555-5.554-5.54 5.538a1.491 1.491 0 0 1-2.113 0 1.491 1.491 0 0 1 0-2.112l6.596-6.596a1.494 1.494 0 0 1 2.113 0l6.612 6.612c.585.583.585 1.529 0 2.112-.29.292-.674.438-1.056.438z"/></g><g><path fill="#53575a" d="M80.856 16.894a1.493 1.493 0 0 1-1.494-1.495l.015-12.411h-41.11a1.494 1.494 0 0 1 0-2.988h42.605a1.497 1.497 0 0 1 1.494 1.496l-.016 13.906a1.495 1.495 0 0 1-1.494 1.492z"/></g><g><path fill="#53575a" d="M80.856 16.894c-.382 0-.765-.145-1.056-.437l-6.612-6.612a1.491 1.491 0 0 1 0-2.113 1.491 1.491 0 0 1 2.112 0l5.556 5.556 5.54-5.54a1.494 1.494 0 0 1 2.112 2.112l-6.595 6.597a1.487 1.487 0 0 1-1.057.437z"/></g></g></g></svg>