<svg xmlns="http://www.w3.org/2000/svg" width="82" height="90" viewBox="0 0 82 90"><g><g><g><path fill="#53575a" d="M54.255 25.476h18.872a1.416 1.416 0 0 0 0-2.83H54.255a1.416 1.416 0 0 0 0 2.83z"/></g><g><path fill="#53575a" d="M33.497 22.646a1.416 1.416 0 0 0 0 2.83h7.548a1.416 1.416 0 0 0 0-2.83z"/></g><g><path fill="#53575a" d="M45.292 24.061c0 .781.634 1.415 1.415 1.415h1.887a1.416 1.416 0 0 0 0-2.83h-1.887c-.781 0-1.415.634-1.415 1.415z"/></g><g><path fill="#53575a" d="M52.368 33.025h1.887a1.416 1.416 0 0 0 0-2.83h-1.887a1.416 1.416 0 0 0 0 2.83z"/></g><g><path fill="#53575a" d="M27.836 33.025h18.87a1.416 1.416 0 0 0 0-2.83h-18.87a1.416 1.416 0 0 0 0 2.83z"/></g><g><path fill="#53575a" d="M73.127 30.194h-13.21a1.416 1.416 0 0 0 0 2.83h13.21a1.416 1.416 0 0 0 0-2.83z"/></g><g><path fill="#53575a" d="M61.804 40.573h1.887a1.416 1.416 0 0 0 0-2.83h-1.887a1.416 1.416 0 0 0 0 2.83z"/></g><g><path fill="#53575a" d="M42.933 40.573a1.416 1.416 0 0 0 0-2.83h-1.888a1.416 1.416 0 0 0 0 2.83z"/></g><g><path fill="#53575a" d="M73.127 37.743h-3.775a1.416 1.416 0 0 0 0 2.83h3.775a1.416 1.416 0 0 0 0-2.83z"/></g><g><path fill="#53575a" d="M56.143 37.743h-7.549a1.416 1.416 0 0 0 0 2.83h7.549a1.416 1.416 0 0 0 0-2.83z"/></g><g><path fill="#53575a" d="M27.836 40.573h7.548a1.416 1.416 0 0 0 0-2.83h-7.548a1.416 1.416 0 0 0 0 2.83z"/></g><g><path fill="#53575a" d="M56.143 45.291h-1.888a1.416 1.416 0 0 0 0 2.83h1.888a1.416 1.416 0 0 0 0-2.83z"/></g><g><path fill="#53575a" d="M50.01 46.707c0-.782-.635-1.416-1.416-1.416H33.497a1.416 1.416 0 0 0 0 2.83h15.097c.781 0 1.415-.633 1.415-1.414z"/></g><g><path fill="#53575a" d="M73.127 45.291H61.804a1.416 1.416 0 0 0 0 2.83h11.323a1.416 1.416 0 0 0 0-2.83z"/></g><g><path fill="#53575a" d="M73.127 79.26H56.143a1.416 1.416 0 0 0 0 2.83h16.984a1.416 1.416 0 0 0 0-2.83z"/></g><g><path fill="#53575a" d="M73.127 52.84H42.933a1.416 1.416 0 0 0 0 2.83h30.194a1.416 1.416 0 0 0 0-2.83z"/></g><g><path fill="#53575a" d="M66.994 61.804c0-.782-.635-1.416-1.416-1.416H46.707a1.416 1.416 0 0 0 0 2.83h18.871c.781 0 1.416-.633 1.416-1.414z"/></g><g><path fill="#53575a" d="M16.041 73.126a2.36 2.36 0 0 1 2.359-2.359h3.774c1.3 0 2.36 1.057 2.36 2.36v6.133H16.04zm-9.436-4.459a5.005 5.005 0 0 0 1.784-.893l10.483-7.763 1.415-1.05 1.415 1.05 10.44 7.731a5.178 5.178 0 0 0 1.827.925V79.26h-6.605v-6.134a5.194 5.194 0 0 0-5.19-5.19H18.4a5.194 5.194 0 0 0-5.19 5.19v6.134H6.605zM68.881 4.831l8.377 8.379H68.88zm-47.179-2H66.05v11.794c0 .782.634 1.416 1.415 1.416H79.26v70.767H21.702V82.09h13.682c.781 0 1.415-.634 1.415-1.415V68.66a5.15 5.15 0 0 0 2.637-1.728 5.159 5.159 0 0 0 1.106-3.816 5.182 5.182 0 0 0-1.952-3.504L23.53 48.318c-.539-.432-1.167-.719-1.828-.896zM3.68 61.877l15.133-11.35c.017-.016.04-.018.059-.031a2.33 2.33 0 0 1 1.415-.476c.493.004.983.17 1.415.483.03.021.063.029.093.051L36.856 61.85c.493.392.802.955.872 1.581.07.625-.108 1.24-.502 1.733-.123.153-.287.253-.438.366-.411.311-.89.473-1.404.473-.52 0-1.055-.134-1.517-.502l-12.165-9.01-.573-.427a1.404 1.404 0 0 0-1.684 0l-.573.426-12.21 9.042c-.423.337-.95.466-1.472.464a2.362 2.362 0 0 1-1.402-.472c-.153-.111-.317-.207-.44-.36a2.34 2.34 0 0 1-.502-1.735c.07-.624.378-1.187.834-1.55zm-3.648 1.24a5.155 5.155 0 0 0 1.104 3.816 5.143 5.143 0 0 0 2.639 1.728v12.014c0 .781.634 1.415 1.415 1.415h13.682v6.133c0 .782.634 1.416 1.415 1.416h60.388c.781 0 1.416-.634 1.416-1.416V14.625c0-.03-.016-.058-.02-.088a1.327 1.327 0 0 0-.071-.365c-.015-.045-.028-.088-.047-.134a1.35 1.35 0 0 0-.278-.413L68.465.415a1.343 1.343 0 0 0-.413-.275c-.043-.023-.089-.032-.136-.05a1.358 1.358 0 0 0-.36-.071C67.524.017 67.497 0 67.466 0H20.286c-.781 0-1.415.634-1.415 1.415v46.003c-.655.174-1.274.455-1.793.872L1.946 59.639a5.154 5.154 0 0 0-1.914 3.478z"/></g><g><path fill="#53575a" d="M31.61 10.38h11.323c1.3 0 2.359 1.056 2.359 2.358 0 1.3-1.06 2.36-2.36 2.36H31.61a2.36 2.36 0 0 1 0-4.718zm0 7.548h11.323a5.195 5.195 0 0 0 5.19-5.19 5.194 5.194 0 0 0-5.19-5.19H31.61a5.194 5.194 0 0 0-5.19 5.19c0 2.861 2.327 5.19 5.19 5.19z"/></g></g></g></svg>