<svg xmlns="http://www.w3.org/2000/svg" width="96" height="75" viewBox="0 0 96 75"><g><g><g><path fill="#53575a" d="M82.492 21.57H1.536a1.535 1.535 0 1 1 0-3.071h80.956a1.536 1.536 0 0 1 0 3.071z"/></g><g><path fill="#53575a" d="M92.547 53.564c0 10.127-8.237 18.364-18.364 18.364-10.126 0-18.363-8.237-18.363-18.364 0-10.126 8.237-18.363 18.363-18.363 10.127 0 18.364 8.237 18.364 18.363zm3.072 0c0-11.819-9.616-21.435-21.436-21.435-11.819 0-21.435 9.616-21.435 21.435C52.748 65.385 62.364 75 74.183 75c11.82 0 21.436-9.615 21.436-21.436z"/></g><g><path fill="#53575a" d="M14.53 30.728v.233a1.887 1.887 0 0 1-3.773 0v-.233a1.89 1.89 0 0 1 1.887-1.888c1.04 0 1.886.847 1.886 1.888zm3.072.233v-.233a4.964 4.964 0 0 0-4.958-4.96 4.965 4.965 0 0 0-4.96 4.96v.233a4.964 4.964 0 0 0 4.96 4.958 4.964 4.964 0 0 0 4.958-4.958z"/></g><g><path fill="#53575a" d="M14.53 44.815v.233a1.887 1.887 0 0 1-3.773 0v-.233a1.887 1.887 0 0 1 3.773 0zm3.072.233v-.233a4.963 4.963 0 0 0-4.958-4.957 4.963 4.963 0 0 0-4.96 4.957v.233a4.964 4.964 0 0 0 4.96 4.958 4.964 4.964 0 0 0 4.958-4.958z"/></g><g><path fill="#53575a" d="M30.13 30.728v.233c0 1.04-.846 1.886-1.886 1.886a1.887 1.887 0 0 1-1.886-1.886v-.233c0-1.04.846-1.888 1.886-1.888s1.886.847 1.886 1.888zm3.073.233v-.233a4.965 4.965 0 0 0-4.96-4.96 4.963 4.963 0 0 0-4.957 4.96v.233a4.963 4.963 0 0 0 4.958 4.958 4.964 4.964 0 0 0 4.96-4.958z"/></g><g><path fill="#53575a" d="M30.13 44.815v.233c0 1.04-.846 1.886-1.886 1.886a1.887 1.887 0 0 1-1.886-1.886v-.233c0-1.04.846-1.886 1.886-1.886s1.886.846 1.886 1.886zm3.073.233v-.233a4.963 4.963 0 0 0-4.96-4.957 4.962 4.962 0 0 0-4.957 4.957v.233a4.963 4.963 0 0 0 4.958 4.958 4.964 4.964 0 0 0 4.96-4.958z"/></g><g><path fill="#53575a" d="M45.731 30.728v.233a1.887 1.887 0 0 1-3.773 0v-.233c0-1.04.845-1.888 1.886-1.888a1.89 1.89 0 0 1 1.887 1.888zm3.072.233v-.233a4.965 4.965 0 0 0-4.96-4.96 4.964 4.964 0 0 0-4.957 4.96v.233a4.964 4.964 0 0 0 4.958 4.958 4.964 4.964 0 0 0 4.96-4.958z"/></g><g><path fill="#53575a" d="M57.346 35.2c-.328 0-.66-.103-.94-.322a4.923 4.923 0 0 1-1.92-3.917v-.233a4.964 4.964 0 0 1 4.958-4.96c1.566 0 3.01.718 3.955 1.968a1.536 1.536 0 0 1-2.449 1.855c-.36-.478-.909-.75-1.505-.75a1.89 1.89 0 0 0-1.887 1.887v.233c0 .587.268 1.13.732 1.492a1.535 1.535 0 0 1-.944 2.748z"/></g><g><path fill="#53575a" d="M45.731 44.815v.233a1.887 1.887 0 0 1-3.773 0v-.233a1.887 1.887 0 0 1 3.773 0zm3.072.233v-.233a4.963 4.963 0 0 0-4.96-4.957 4.963 4.963 0 0 0-4.957 4.957v.233a4.964 4.964 0 0 0 4.958 4.958 4.964 4.964 0 0 0 4.96-4.958z"/></g><g><path fill="#53575a" d="M14.53 58.903v.233a1.887 1.887 0 0 1-3.773 0v-.233a1.887 1.887 0 0 1 3.773 0zm3.072.233v-.233a4.964 4.964 0 0 0-4.958-4.958 4.964 4.964 0 0 0-4.96 4.958v.233a4.965 4.965 0 0 0 4.96 4.96 4.964 4.964 0 0 0 4.958-4.96z"/></g><g><path fill="#53575a" d="M30.13 58.903v.233c0 1.04-.846 1.886-1.886 1.886a1.887 1.887 0 0 1-1.886-1.886v-.233c0-1.04.846-1.886 1.886-1.886s1.886.845 1.886 1.886zm3.073.233v-.233a4.964 4.964 0 0 0-4.96-4.958 4.963 4.963 0 0 0-4.957 4.958v.233a4.963 4.963 0 0 0 4.958 4.96 4.965 4.965 0 0 0 4.96-4.96z"/></g><g><path fill="#53575a" d="M45.731 58.903v.233a1.887 1.887 0 0 1-3.773 0v-.233a1.887 1.887 0 0 1 3.773 0zm3.072.233v-.233a4.964 4.964 0 0 0-4.96-4.958 4.964 4.964 0 0 0-4.957 4.958v.233a4.964 4.964 0 0 0 4.958 4.96 4.965 4.965 0 0 0 4.96-4.96z"/></g><g><path fill="#53575a" d="M64.73 64.553a1.536 1.536 0 0 1-1.086-2.622l18.906-18.905a1.536 1.536 0 0 1 2.172 2.172L65.817 64.103c-.299.299-.693.45-1.086.45z"/></g><g><path fill="#53575a" d="M72.804 45.444c0 .816-.665 1.481-1.481 1.481a1.484 1.484 0 0 1-1.483-1.481c0-.818.665-1.483 1.483-1.483.816 0 1.481.665 1.481 1.483zm3.072 0a4.559 4.559 0 0 0-4.553-4.555 4.559 4.559 0 0 0-4.555 4.555 4.559 4.559 0 0 0 4.555 4.553 4.558 4.558 0 0 0 4.553-4.553z"/></g><g><path fill="#53575a" d="M78.527 61.685c0 .818-.665 1.483-1.483 1.483a1.484 1.484 0 0 1-1.481-1.483c0-.816.665-1.481 1.48-1.481.819 0 1.484.665 1.484 1.481zm3.072 0a4.559 4.559 0 0 0-4.555-4.553 4.558 4.558 0 0 0-4.553 4.553 4.559 4.559 0 0 0 4.553 4.555 4.559 4.559 0 0 0 4.555-4.555z"/></g><g><path fill="#53575a" d="M13.431 4.531v7.22a1.46 1.46 0 0 1-2.917 0v-7.22c0-.805.654-1.46 1.458-1.46.805 0 1.46.655 1.46 1.46zm3.072 7.22v-7.22A4.536 4.536 0 0 0 11.972 0 4.537 4.537 0 0 0 7.44 4.53v7.22a4.536 4.536 0 0 0 4.53 4.53c2.5 0 4.532-2.031 4.532-4.53z"/></g><g><path fill="#53575a" d="M28.452 4.531v7.22a1.46 1.46 0 0 1-2.917 0v-7.22c0-.805.654-1.46 1.457-1.46.806 0 1.46.655 1.46 1.46zm3.072 7.22v-7.22A4.536 4.536 0 0 0 26.992 0a4.537 4.537 0 0 0-4.531 4.531v7.22a4.536 4.536 0 0 0 4.531 4.53c2.5 0 4.532-2.031 4.532-4.53z"/></g><g><path fill="#53575a" d="M43.472 4.531v7.22a1.46 1.46 0 0 1-2.917 0v-7.22c0-.805.654-1.46 1.458-1.46.805 0 1.459.655 1.459 1.46zm3.072 7.22v-7.22A4.536 4.536 0 0 0 42.013 0a4.536 4.536 0 0 0-4.53 4.531v7.22a4.534 4.534 0 0 0 4.53 4.53c2.5 0 4.53-2.031 4.53-4.53z"/></g><g><path fill="#53575a" d="M58.492 4.531v7.22a1.46 1.46 0 0 1-2.917 0v-7.22a1.46 1.46 0 0 1 2.917 0zm3.074 7.22v-7.22A4.537 4.537 0 0 0 57.035 0a4.536 4.536 0 0 0-4.531 4.531v7.22a4.534 4.534 0 0 0 4.53 4.53 4.536 4.536 0 0 0 4.532-4.53z"/></g><g><path fill="#53575a" d="M73.513 4.531v7.22a1.46 1.46 0 0 1-2.917 0v-7.22a1.46 1.46 0 0 1 2.917 0zm3.074 7.22v-7.22A4.537 4.537 0 0 0 72.055 0a4.536 4.536 0 0 0-4.531 4.531v7.22a4.534 4.534 0 0 0 4.531 4.53 4.536 4.536 0 0 0 4.532-4.53z"/></g><g><path fill="#53575a" d="M58.135 75H6.196A6.203 6.203 0 0 1 0 68.803V13.5a6.204 6.204 0 0 1 6.196-6.197h2.78c.85 0 1.538.69 1.538 1.536v2.912c0 .805.654 1.46 1.458 1.46a1.46 1.46 0 0 0 1.46-1.46V8.838c0-.847.688-1.536 1.535-1.536H24c.847 0 1.536.69 1.536 1.536v2.912c0 .805.654 1.46 1.457 1.46a1.46 1.46 0 0 0 1.46-1.46V8.838c0-.847.688-1.536 1.536-1.536h9.031c.847 0 1.536.69 1.536 1.536v2.912c0 .805.654 1.46 1.458 1.46a1.46 1.46 0 0 0 1.46-1.46V8.838c0-.847.688-1.536 1.535-1.536h9.032c.847 0 1.536.69 1.536 1.536v2.912c0 .805.654 1.46 1.459 1.46a1.46 1.46 0 0 0 1.458-1.46V8.838c0-.847.688-1.536 1.535-1.536h9.032c.849 0 1.536.69 1.536 1.536v2.912a1.46 1.46 0 0 0 2.917 0V8.838c0-.847.689-1.536 1.538-1.536h2.78a6.204 6.204 0 0 1 6.197 6.197v15.556a1.535 1.535 0 1 1-3.072 0V13.5a3.129 3.129 0 0 0-3.125-3.125h-1.244v1.376a4.537 4.537 0 0 1-4.532 4.531 4.536 4.536 0 0 1-4.53-4.531v-1.376h-5.959v1.376a4.537 4.537 0 0 1-4.531 4.531 4.536 4.536 0 0 1-4.531-4.531v-1.376h-5.96v1.376a4.536 4.536 0 0 1-4.531 4.531 4.536 4.536 0 0 1-4.53-4.531v-1.376h-5.96v1.376a4.536 4.536 0 0 1-4.53 4.531 4.537 4.537 0 0 1-4.532-4.531v-1.376h-5.958v1.376a4.536 4.536 0 0 1-4.531 4.531A4.537 4.537 0 0 1 7.44 11.75v-1.376H6.196A3.129 3.129 0 0 0 3.071 13.5v55.304a3.127 3.127 0 0 0 3.125 3.125h51.94a1.536 1.536 0 0 1 0 3.072z"/></g></g></g></svg>