<svg xmlns="http://www.w3.org/2000/svg" width="408" height="368" viewBox="0 0 408 368"><g><g><g opacity=".5"><path fill="#d8dee2" d="M286.008 96.638c0 53.374-43.265 96.64-96.638 96.64-53.372 0-96.64-43.266-96.64-96.64C92.73 43.265 135.997 0 189.37 0c53.373 0 96.638 43.265 96.638 96.638z"/></g><g><path fill="#404549" d="M46.22 287.423l46.613-16.883 29.025 80.14-46.614 16.883z"/></g><g><g><path fill="#404549" d="M254.364 135.193l61.647-60.803 61.643 60.803v65.435h-123.29z"/></g><g><path fill="#404549" d="M171.558 149.465l48.194-47.537 48.198 47.537v51.163h-96.392z"/></g><g><path fill="none" stroke="#69a52b" stroke-miterlimit="20" stroke-width="5.94" d="M160.893 156.558v0l55.586-55.586v0l34.705 34.705v0l61.895-61.895v0l74.464 74.465v0"/></g><g><g><path fill="#d8dee2" d="M324.715 163.165v-16.712h16.711v16.712z"/></g><g><path fill="#d8dee2" d="M324.715 183.839v-16.711h16.711v16.711z"/></g></g><g><g><path fill="#d8dee2" d="M345.165 163.165v-16.712h16.711v16.712z"/></g><g><path fill="#d8dee2" d="M345.165 183.839v-16.711h16.711v16.711z"/></g></g><g><g><path fill="#d8dee2" d="M274.218 163.165v-16.712h16.712v16.712z"/></g><g><path fill="#d8dee2" d="M274.218 183.839v-16.711h16.712v16.711z"/></g></g><g><g><path fill="#d8dee2" d="M294.668 163.165v-16.712h16.712v16.712z"/></g><g><path fill="#d8dee2" d="M294.668 183.839v-16.711h16.712v16.711z"/></g></g></g><g><path fill="none" stroke="#404549" stroke-miterlimit="20" stroke-width=".57" d="M16.337 267.198l97.671-35.499"/></g><g><path fill="none" stroke="#404549" stroke-miterlimit="20" stroke-width=".57" d="M21.982 272.188l97.67-35.5"/></g><g><path fill="none" stroke="#404549" stroke-miterlimit="20" stroke-width=".57" d="M27.625 277.176l97.669-35.498"/></g><g><path fill="#778086" d="M3.999 211.776v5.385a5.4 5.4 0 0 0 5.383 5.383h392.402a5.4 5.4 0 0 0 5.385-5.383v-5.385z"/></g><g><g><path fill="#d8dee2" d="M193.715 309.964l10.1-3.682a48.13 48.13 0 0 1 19.861-2.801l20.834 1.446a56.408 56.408 0 0 0 23.47-3.308l80.272-29.214a17.578 17.578 0 0 0 10.176-9.67 17.554 17.554 0 0 0-.163-14.042l.006.01c-4.06-8.48-13.95-12.42-22.727-9.055l-39.215 14.272a17.562 17.562 0 0 0-13.937-12.994l-52.972-9.343c-11.386-2-23.1-.977-33.966 2.974l-6.824 2.507a74.312 74.312 0 0 0-18.001 9.568l3.138 8.569a65.576 65.576 0 0 1 17.87-9.907l6.817-2.481a57.188 57.188 0 0 1 29.443-2.58l52.948 9.34a8.803 8.803 0 0 1 5.75 3.586 8.768 8.768 0 0 1 1.485 6.61 8.779 8.779 0 0 1-10.282 7.104l-47.568-8.388-1.53 8.651 47.571 8.387c8.725 1.545 17.225-3.682 19.785-12.164l42.472-15.46a9.357 9.357 0 0 1 11.713 4.391 8.848 8.848 0 0 1-.04 7.316 8.708 8.708 0 0 1-4.95 4.542l-80.27 29.22a47.827 47.827 0 0 1-19.863 2.797l-20.829-1.445a56.877 56.877 0 0 0-23.468 3.308l-10.126 3.682z"/></g><g><path fill="#ab8068" d="M173.767 255.2a65.576 65.576 0 0 1 17.87-9.906l6.817-2.481a57.188 57.188 0 0 1 29.443-2.58l52.948 9.34a8.803 8.803 0 0 1 5.75 3.586 8.768 8.768 0 0 1 1.485 6.61 8.78 8.78 0 0 1-10.282 7.104l-47.568-8.388-1.53 8.651 47.571 8.387c8.725 1.545 17.225-3.682 19.785-12.164l42.472-15.46a9.357 9.357 0 0 1 11.713 4.391 8.848 8.848 0 0 1-.04 7.316 8.709 8.709 0 0 1-4.95 4.542l-80.27 29.22a47.827 47.827 0 0 1-19.863 2.797l-20.829-1.445a56.876 56.876 0 0 0-23.468 3.308l-10.126 3.682z"/></g><g><path fill="#d09b7c" d="M350.242 252.29a9.356 9.356 0 0 0-11.714-4.392l-42.472 15.46c-2.56 8.483-11.06 13.71-19.785 12.165l-16.432-2.897c-25.237 7.552-51.327 9.52-77.584 5.893l8.44 23.191 10.126-3.682a56.876 56.876 0 0 1 23.468-3.308l20.829 1.445a47.827 47.827 0 0 0 19.862-2.796l80.272-29.22a8.708 8.708 0 0 0 4.95-4.543 8.848 8.848 0 0 0 .04-7.316z"/></g></g><g><path fill="#f6780d" d="M77.769 268.51l78.81-28.543 33.539 92.603-78.81 28.543z"/></g><g opacity=".5"><path fill="#1a1818" d="M106.508 347.862l78.81-28.544 4.8 13.252-78.81 28.543z"/></g><g opacity=".5"><path fill="#1a1818" d="M70.724 355.082l33.946-12.295 4.417 12.196-33.946 12.294z"/></g><g><path fill="#404549" d="M141.671 324.97c0-5.608 4.547-10.155 10.156-10.155 5.609 0 10.155 4.547 10.155 10.156 0 5.609-4.546 10.156-10.155 10.156-5.61 0-10.156-4.547-10.156-10.156z"/></g><g><g><g><path fill="#ffa800" d="M60.428 142.563h23.014a4.26 4.26 0 0 1 4.2 3.548l3.93 23.23H52.3l3.93-23.23a4.26 4.26 0 0 1 4.2-3.548z"/></g><g><path fill="#ffa800" d="M104.214 142.563h23.012a4.26 4.26 0 0 1 4.2 3.548l3.93 23.23H96.084l3.93-23.23a4.26 4.26 0 0 1 4.2-3.548z"/></g></g><g><path fill="#ffa800" d="M82.32 111.275h23.015a4.26 4.26 0 0 1 4.2 3.548l3.93 23.23H74.19l3.93-23.23a4.26 4.26 0 0 1 4.2-3.548z"/></g><g><g><path fill="#ffa800" d="M38.537 173.85H61.55a4.26 4.26 0 0 1 4.2 3.549l3.931 23.23H30.406l3.931-23.23a4.26 4.26 0 0 1 4.2-3.549z"/></g><g><path fill="#ffa800" d="M82.32 173.85h23.015a4.26 4.26 0 0 1 4.2 3.549l3.93 23.23H74.19l3.93-23.23a4.26 4.26 0 0 1 4.2-3.549z"/></g><g><path fill="#ffa800" d="M126.105 173.85h23.013a4.26 4.26 0 0 1 4.2 3.549l3.931 23.23h-39.274l3.93-23.23a4.26 4.26 0 0 1 4.2-3.549z"/></g></g></g><g><g><path fill="#f6780d" d="M147.684 96.64c0-23.023 18.662-41.685 41.686-41.685 23.02 0 41.685 18.662 41.685 41.684s-18.666 41.683-41.685 41.683c-23.024 0-41.686-18.66-41.686-41.683z"/></g><g><g><path fill="#fff" d="M211.586 95.974v1.246c0 2.244-1.165 3.488-3.488 3.488h-14.452v16.194c0 2.244-1.246 3.49-3.488 3.49h-1.661c-2.243 0-3.404-1.246-3.404-3.49v-16.194H170.56c-2.244 0-3.407-1.244-3.407-3.488v-1.246c0-2.242 1.163-3.488 3.407-3.488h14.533V76.374c0-2.323 1.161-3.488 3.404-3.488h1.661c2.242 0 3.488 1.165 3.488 3.488v16.112h14.452c2.323 0 3.488 1.246 3.488 3.488z"/></g></g></g><g><g><path fill="none" stroke="#778086" stroke-miterlimit="20" d="M354.975 63.511c0-10.23 8.288-18.519 18.518-18.519 10.228 0 18.52 8.29 18.52 18.52 0 10.228-8.292 18.517-18.52 18.517-10.23 0-18.518-8.29-18.518-18.518z"/></g><g><g><path fill="#778086" d="M367.818 68.65c-1.961 0-2.523-2.221-2.523-5.048 0-2.786.562-4.988 2.523-4.988 1.96 0 2.525 2.202 2.525 4.988 0 2.827-.566 5.047-2.525 5.047zm0 2.381c3.916 0 5.207-3.311 5.207-7.429 0-4.117-1.291-7.388-5.207-7.388-3.917 0-5.19 3.27-5.19 7.388s1.273 7.43 5.19 7.43z"/></g><g><path fill="#778086" d="M374.991 69.518c0-5.168 6.705-5.996 6.705-8.843 0-1.25-.971-2-2.18-2-1.03 0-1.756.626-2.121 1.07-.386.385-.786.526-1.19.184l-.546-.424c-.424-.325-.527-.707-.224-1.131.628-.828 1.96-2.16 4.302-2.16 2.504 0 4.664 1.534 4.664 4.239 0 4.602-6.42 5.39-6.543 8.097h5.915c.566 0 .849.283.849.826v.566c0 .566-.283.849-.849.849h-7.871c-.525 0-.911-.283-.911-.849z"/></g></g><g><path fill="#778086" d="M345.863 105.548a4.556 4.556 0 1 1 4.555 4.557 4.556 4.556 0 0 1-4.555-4.557z"/></g><g><path fill="none" stroke="#778086" stroke-miterlimit="20" d="M350.418 105.548l14.164-25.803"/></g></g><g><g><g><g><path fill="none" stroke="#404549" stroke-miterlimit="20" stroke-width=".45" d="M139.725 105.012c-4.589-24.754 11.376-49.906 35.385-56.62"/></g><g><g><path fill="#404549" d="M178.202 47.637l-3.871 2.912.564-2.043-1.494-1.5z"/></g></g></g></g></g><g><g><g><g><path fill="none" stroke="#404549" stroke-miterlimit="20" stroke-width=".45" d="M134.537 105.975c-5.1-27.51 12.738-55.461 39.49-62.759"/></g><g><g><path fill="#404549" d="M177.121 42.474l-3.87 2.912.563-2.042-1.494-1.501z"/></g></g></g></g></g><g><g><g><g><path fill="none" stroke="#404549" stroke-miterlimit="20" stroke-width=".45" d="M129.16 106.97c-5.63-30.365 14.147-61.222 43.747-69.117"/></g><g><g><path fill="#404549" d="M176.002 37.121l-3.87 2.91.564-2.041-1.495-1.501z"/></g></g></g></g></g><g><g><path fill="none" stroke="#778086" stroke-miterlimit="20" d="M19.712 155.988c-10.23 0-18.52-8.29-18.52-18.518 0-10.228 8.29-18.52 18.52-18.52 10.228 0 18.519 8.292 18.519 18.52 0 10.229-8.291 18.518-18.52 18.518z"/></g><g><path fill="#778086" d="M61.748 165.098a4.556 4.556 0 1 1 4.557-4.554 4.555 4.555 0 0 1-4.557 4.554z"/></g><g><path fill="none" stroke="#778086" stroke-miterlimit="20" d="M61.748 160.545L35.945 146.38"/></g><g><g><path fill="#778086" d="M13.626 142.568c-1.954 0-2.518-2.214-2.518-5.034 0-2.777.564-4.974 2.518-4.974 1.953 0 2.517 2.197 2.517 4.974 0 2.82-.564 5.034-2.517 5.034zm0 2.376c3.906 0 5.195-3.302 5.195-7.41 0-4.107-1.29-7.371-5.195-7.371-3.907 0-5.176 3.264-5.176 7.371 0 4.108 1.269 7.41 5.176 7.41z"/></g><g><path fill="#778086" d="M22.021 143.295c0-.544.281-.827.825-.827h2.276v-7.934c0-.483.02-.966.02-.966h-.04s-.18.382-.544.724l-.623.604c-.404.362-.806.362-1.168-.04l-.384-.402c-.382-.384-.362-.807.02-1.189l2.537-2.436c.324-.283.627-.422 1.05-.422h.844c.544 0 .827.3.827.845v11.216h2.255c.543 0 .846.283.846.827v.562c0 .566-.303.847-.846.847h-7.07c-.544 0-.825-.281-.825-.847z"/></g></g></g></g></g></svg>