<svg xmlns="http://www.w3.org/2000/svg" width="160" height="67" viewBox="0 0 160 67"><g><g><g><path fill="#14437c" d="M72.67 35.653l-1.692 1.684H60.784l6.898-6.86zm51.794 1.684L98.291 10.18 78.942 29.421l-4.989-5.176L98.4-.068l36.048 37.405zm-49.023 0l-7.13-7.398 5.1-5.069 12.013 12.467zm-27.177 0H38.07l24.182-24.045 4.987 5.175zm11.047 0h-9.947l5.08-5.05zm-4.28-5.634l25.232-25.09 4.992 5.18L60.02 36.88l-4.988-5.177zm-18.126 5.634H26.713l17.465-17.365 4.987 5.174-12.26 12.191zm63.047 0L86.377 23.261l5.098-5.07 18.461 19.146z"/></g><g><g><path fill="#14437c" d="M90.322 50.41c-1.286 0-2.373 1.137-2.596 3.09h5.018c-.05-1.977-.989-3.09-2.422-3.09z"/></g><g><path fill="#14437c" d="M108.858 52.66h-.84v5.635c0 1.705.691 2.447 2.471 2.447 2.2 0 3.93-1.73 3.93-3.98 0-2.471-2.1-4.102-5.56-4.102z"/></g><g><path fill="#14437c" d="M77.246 50.484c-2.05 0-3.311 1.706-3.311 4.845 0 3.09 1.36 4.82 3.608 4.82 1.014 0 1.854-.322 2.818-1.014v-5.24c0-2.125-1.187-3.41-3.115-3.41z"/></g><g><path fill="#14437c" d="M113.752 48.335c0-1.977-1.854-3.584-4.696-3.584h-.198c-.667 0-.84.025-.84.494v6.6h1.63c2.522 0 4.104-1.41 4.104-3.51z"/></g><g><path fill="#14437c" d="M25.295 50.484c-2.051 0-3.312 1.706-3.312 4.845 0 3.09 1.36 4.82 3.608 4.82 1.014 0 1.854-.322 2.818-1.014v-5.24c0-2.125-1.186-3.41-3.114-3.41z"/></g><g><path fill="#14437c" d="M38.37 50.41c-1.285 0-2.373 1.137-2.595 3.09h5.017c-.05-1.977-.989-3.09-2.422-3.09z"/></g><g><path fill="#14437c" d="M54.806 58.37c0 1.062.716 1.803 1.754 1.803 1.186 0 2.299-.815 2.299-1.656v-3.163c-2.744.816-4.053 1.606-4.053 3.015z"/></g><g><path fill="#14437c" d="M7.253 53.302h5.14l-2.496-7.464z"/></g><g><path fill="#14437c" d="M121.685 58.37c0 1.062.717 1.803 1.754 1.803 1.187 0 2.3-.815 2.3-1.656v-3.163c-2.744.816-4.054 1.606-4.054 3.015z"/></g><g><path fill="#14437c" d="M157.473 61.508h-1.928l-6.303-6.018 2.25-2.08c.89-.845 1.458-1.339 1.458-1.936 0-.568-.42-.816-1.36-.915v-.618h5.562v.618h-.223c-1.26 0-2.002.594-2.94 1.462l-3.016 2.797 6.5 6.072zm-6.846 0h-5.487v-.618c1.483-.123 1.828-.74 1.828-2.401V46.126l-1.779-.984v-.173l3.485-1.306h.222v14.95c0 1.51.346 2.154 1.73 2.277zm-7.192 0h-5.388v-.618c1.359-.123 1.73-.766 1.73-2.274v-4.894c0-1.655-.545-2.422-1.952-2.422-.964 0-1.954.396-2.868 1.138v6.178c0 1.508.347 2.15 1.73 2.274v.618h-5.512v-.618c1.484-.123 1.83-.74 1.83-2.397V52.19l-1.755-.988v-.174l3.485-1.309h.222v1.977c1.137-1.31 2.348-1.977 3.658-1.977 2.076 0 3.09 1.359 3.09 4.053v4.844c0 1.508.345 2.15 1.73 2.274zm-16.065.226c-.915 0-1.433-.596-1.631-1.857-1.211 1.235-2.274 1.857-3.56 1.857-1.433 0-2.421-1.115-2.421-2.698 0-2.15 1.902-3.213 5.98-4.399v-1.853c0-1.508-.74-2.25-2.224-2.25-1.013 0-1.804.569-1.804 1.286 0 .395.222.914.593 1.63l-1.557.743c-.346-.495-.544-1.014-.544-1.583 0-1.655 1.705-2.89 4.202-2.89 2.298 0 3.287 1.186 3.287 3.582v5.685c0 .766.098 1.137.543 1.137.198 0 .47-.148.89-.445l.025.618c-.52.963-1.136 1.437-1.779 1.437zm-24.222-.226v-.741c1.904-.1 2.521-.742 2.521-2.472V47.197c0-1.73-.617-2.347-2.52-2.446v-.742h6.649c4.2 0 6.5 1.607 6.5 4.128 0 2.126-1.533 3.732-4.202 4.078v.074c3.09.247 4.967 2.076 4.967 4.499 0 2.965-2.298 4.72-6.722 4.72zm-11.764-1.483c1.087 0 2.25-.544 3.262-1.557l.445.396c-1.112 1.853-2.792 2.87-4.621 2.87-2.62 0-4.696-2.277-4.696-5.837 0-3.583 2.248-6.203 4.87-6.203 2.47 0 4.225 1.656 4.472 4.548h-7.464c-.025.247-.025.494-.025.691 0 3.09 1.656 5.092 3.757 5.092zm-7.241 1.113l-3.758.596-.123-1.783c-1.235 1.236-2.347 1.809-3.83 1.809-2.62 0-4.425-2.105-4.425-5.393 0-3.732 2.546-6.648 5.734-6.648.94 0 1.78.222 2.62.667v-4.252l-1.755-.988v-.173l3.485-1.31h.222V58.69c0 1.385.174 1.854 1.211 1.854.174 0 .396-.024.619-.049zm-14.113.37h-5.784v-.618c1.607-.099 2.052-.717 2.052-2.397V52.19l-1.706-.988v-.174l3.485-1.309h.248v8.897c0 1.508.32 2.15 1.705 2.274zm-9.54.226c-.915 0-1.433-.596-1.631-1.857-1.212 1.235-2.274 1.857-3.56 1.857-1.433 0-2.421-1.115-2.421-2.698 0-2.15 1.902-3.213 5.98-4.399v-1.853c0-1.508-.74-2.25-2.224-2.25-1.013 0-1.804.569-1.804 1.286 0 .395.223.914.593 1.63l-1.557.743c-.346-.495-.544-1.014-.544-1.583 0-1.655 1.706-2.89 4.202-2.89 2.299 0 3.287 1.186 3.287 3.582v5.685c0 .766.1 1.137.544 1.137.197 0 .47-.148.89-.445l.024.618c-.519.963-1.136 1.437-1.779 1.437zm-9.91-.226h-5.562v-.618c1.483-.123 1.83-.74 1.83-2.397V46.134l-1.706-.988v-.173l3.485-1.31h.222v14.953c0 1.508.346 2.15 1.73 2.274zm-11.148-1.483c1.088 0 2.25-.544 3.262-1.557l.445.396c-1.112 1.853-2.792 2.87-4.621 2.87-2.62 0-4.696-2.277-4.696-5.837 0-3.583 2.249-6.203 4.87-6.203 2.47 0 4.226 1.656 4.473 4.548H35.7c-.024.247-.024.494-.024.691 0 3.09 1.655 5.092 3.756 5.092zm-7.241 1.113l-3.757.596-.124-1.783c-1.235 1.236-2.347 1.809-3.83 1.809-2.62 0-4.425-2.105-4.425-5.393 0-3.732 2.546-6.648 5.734-6.648.94 0 1.78.222 2.62.667v-4.252l-1.755-.988v-.173l3.485-1.31h.223V58.69c0 1.385.173 1.854 1.21 1.854.174 0 .396-.024.619-.049zm-13.297.37h-6.476l.025-.741c1.31-.198 1.879-.396 1.879-1.211 0-.346-.1-.94-.297-1.508l-1.36-3.954H6.957l-1.16 3.361a4.279 4.279 0 0 0-.224 1.334c0 1.137.494 1.582 1.952 1.978v.741H2.26v-.741c1.533-.247 1.953-1.286 2.596-3.115l4.596-12.975-.222-.668h2.298l4.919 13.89c.593 1.707 1.186 2.67 2.447 2.868zm48.442-17.894c.692 0 1.285.569 1.285 1.285 0 .717-.568 1.285-1.285 1.285A1.276 1.276 0 0 1 66.05 44.9c0-.716.568-1.285 1.285-1.285zM0 40.362v26.333h159.536V40.362z"/></g></g></g></g></svg>