<svg xmlns="http://www.w3.org/2000/svg" width="38" height="54" viewBox="0 0 38 54"><g><g><g><path fill="none" stroke="#fff" stroke-miterlimit="20" d="M28.04 24.29C21.839 14.26 15.13 13.94 15.13 13.94c-4.805-.413-10.201 2.5-12.823 9.78-1.18 2.805-1.66 5.96-1.026 9.128C2.614 39.525 8.9 46.243 24.012 49.78a.455.455 0 0 0 .362-.068c.706-.49 1.399-1.035 2.074-1.632a.444.444 0 0 0-.221-.772C-6.7 41.776 4.077 15.472 15.194 17.129c8.576 1.09 9.706 12.478 18.937 18.73a.44.44 0 0 0 .638-.22c.197-.508.52-1.436.7-1.962a.456.456 0 0 0-.124-.468c-3.776-3.807-6.181-7.101-7.304-8.918z"/></g><g><path fill="none" stroke="#fff" stroke-miterlimit="20" d="M18.97 33.278c-1.665-2.178-3.255-6.626-4.595-4.799 0 0-3.01 5.382 7.984 10.298 1.081.483 1.482-.191.62-.908-1.033-.858-2.532-2.66-4.008-4.59z"/></g><g><path fill="none" stroke="#fff" stroke-miterlimit="20" d="M7.156 49.146c-1.886-1.662-3.112-4.016-3.779-5.59-.17-.4.323-.741.644-.448 4.942 4.514 11.274 7.026 15.28 8.232.428.128.417.728-.012.85-1.485.425-2.985.596-4.47.49h-.023c-2.968-.957-5.687-2.37-7.64-3.534z"/></g><g><path fill="none" stroke="#fff" stroke-miterlimit="20" d="M32.935 39.626c.147-.265.09-.635-.186-.762-3.106-1.418-8.023-6.637-12.043-13.908-2.37-4.288-6.42-7.536-10.3-3.254-.01.01-13.404 17.591 18.621 23.38.162.03.33-.03.434-.157.277-.343.55-.695.819-1.055a.442.442 0 0 0-.27-.695C24.348 42.007 8.885 37.791 11.255 27.2l.007-.027c.092-.34 2.42-6.69 5.726-2.012 0 0 8.115 14.925 14.643 16.055a.566.566 0 0 0 .581-.293z"/></g><g><path fill="none" stroke="#fff" stroke-miterlimit="20" d="M36.995 26.473C27.988 8.95 16.779 6.183 8.905 9.753a.446.446 0 0 0-.174.137c-.475.62-1 1.378-1.491 2.135-.249.382.17.844.575.633 2.133-1.113 5.168-2.239 9.813-1.187 0 0 6.194.643 13.96 11.607 0 0 2.76 4.23 4.323 6.127a.444.444 0 0 0 .776-.197c.145-.737.267-1.47.367-2.198z"/></g><g><path fill="none" stroke="#fff" stroke-miterlimit="20" d="M36.497 20.47c.164.272.87.303.858-.25a31.277 31.277 0 0 0-.24-2.665.481.481 0 0 0-.042-.141c-.11-.231-.203-.433-.328-.683C31.398 5.991 19.73 4.153 15.748 3.764a.438.438 0 0 0-.264.059 19.89 19.89 0 0 0-2.398 1.589c-.348.27-.127.826.312.791 4.984-.386 15.327 1.357 23.1 14.266z"/></g><g><path fill="none" stroke="#fff" stroke-miterlimit="20" d="M32.63 7.719c.388.352.963-.158.659-.585-1.865-2.618-4.312-4.478-7.235-5.256a11.743 11.743 0 0 0-2.293-.373c-.517-.032-.662.705-.17.865 2.532.82 5.77 2.382 9.039 5.349z"/></g></g></g></svg>