<svg xmlns="http://www.w3.org/2000/svg" width="105" height="72" viewBox="0 0 105 72"><g><g><g><path fill="none" stroke="#969696" stroke-miterlimit="20" stroke-width="1.5" d="M2 28.043v0s13.422-2.613 30.875 1.65C22.533 40.957 14.873 56.797 14.873 56.797v0S11.902 41.893 2 28.043z"/></g><g><path fill="none" stroke="#969696" stroke-miterlimit="20" stroke-width="1.5" d="M29.452 17.802v0s14.585-.614 30.101 8.425C48.729 40.753 41.108 65.274 41.108 65.274v0l-4.614.024v0s2.215-25.23-7.042-47.496z"/></g><g><path fill="none" stroke="#969696" stroke-miterlimit="20" stroke-width="1.5" d="M50.647 1s36.655 5.994 52.928 40.873C86.703 50.85 71.468 70.44 71.468 70.44v0l-5.154.098v0S65.411 30.217 50.647.999z"/></g></g></g></svg>