<svg xmlns="http://www.w3.org/2000/svg" width="70" height="70" viewBox="0 0 70 70"><g><g><g><g><g><path fill="#e9933e" d="M9.066 28.075h-1.88V11.601h9.647v8.707h-1.88v-6.826H9.066z"/></g></g><g><g><path fill="#e9933e" d="M12.01 38.084v-1.88h19.806v1.88z"/></g></g><g><g><path fill="#e9933e" d="M22.226 64.412H7.186V38.098l-4.92-.014A2.264 2.264 0 0 1 .173 36.68a2.265 2.265 0 0 1 .493-2.473L27.543 7.33l6.989 6.987-1.33 1.332-5.659-5.66L1.996 35.537a.374.374 0 0 0-.085.427c.037.09.133.24.36.24l6.796.02v26.309h13.16z"/></g></g></g><g><g><path fill="#e9933e" d="M69.742 69.985l-47.234-.002V45.981c0-6.076 5.206-8.316 5.428-8.41l12.799-4.961.678 1.754-12.775 4.952c-.152.064-4.249 1.828-4.249 6.665v22.121l43.473.002-.002-22.123c0-4.873-4.136-6.618-4.312-6.69l-12.725-4.927.679-1.754 12.741 4.935c.24.097 5.498 2.315 5.498 8.436z"/></g></g><g><g><path fill="#e9933e" d="M37.441 23.926l-1.301-.118a4.543 4.543 0 0 1-2.406-1.06 4.416 4.416 0 0 1-1.54-3.36c0-.983.344-1.914.991-2.695l.064-.079v-3.848C33.25 5.726 38.976 0 46.015 0c7.038 0 12.765 5.727 12.767 12.766l.062 3.828c.64.79.99 1.78.99 2.794a4.419 4.419 0 0 1-1.541 3.361 4.502 4.502 0 0 1-2.366 1.053l-1.32.124-.173-1.873 1.284-.118a2.625 2.625 0 0 0 1.35-.612 2.548 2.548 0 0 0 .886-1.935c0-.583-.203-1.155-.57-1.61l-.483-.594v-4.418c-.002-6.003-4.884-10.885-10.886-10.885-6.003 0-10.885 4.882-10.885 10.885v4.527l-.497.6c-.365.44-.558.957-.558 1.495 0 .747.323 1.45.884 1.932.39.336.87.55 1.388.618l1.265.115z"/></g></g><g><g><path fill="#e9933e" d="M48.541 45.274L47.05 44.13l2.37-3.086 1.764 1.235 3.853-7.385 1.682.84-3.724 7.467a1.88 1.88 0 0 1-1.687 1.046c-.551 0-.897-.213-1.206-.427l-.287-.204z"/></g></g><g><g><path fill="#e9933e" d="M43.7 45.274l-1.27-1.66-.289.203c-.31.216-.656.429-1.205.429-.717 0-1.364-.401-1.687-1.044l-3.728-7.469 1.682-.84 3.727 7.468 1.894-1.326 2.37 3.096z"/></g></g><g><g><path fill="#e9933e" d="M45.24 45.643h1.761l2.938 17.36-3.818 4.202-3.818-4.201zm6.707 17.947L48.59 43.762h-4.937L40.296 63.59 46.121 70z"/></g></g><g><g><path fill="#e9933e" d="M49.07 43.094l-2.949-2.106-2.95 2.102-1.09-1.531 4.04-2.881 4.043 2.886z"/></g></g><g><g><path fill="#e9933e" d="M46.122 40.77l-5.988-6.933v-4.519h1.88v3.819l4.107 4.756 4.1-4.756V29.18h1.881v4.656z"/></g></g><g><g><path fill="#e9933e" d="M38.74 15.875c4.048.184 8.494-1.029 12.182-3.317l.198-.12 1.22 1.304c.583.621.969 1.035 1.17 1.264l.07 7.47c0 4.104-3.339 7.44-7.44 7.44-4.813 0-7.689-3.782-7.689-7.44v-6.614zm16.72 6.601v-8.094l-.532-.611a66.88 66.88 0 0 0-1.215-1.313l-2.272-2.432-1.508.935c-3.376 2.091-7.427 3.191-11.111 3.035L36.57 13.9v8.576c0 4.582 3.578 9.321 9.569 9.321 5.14 0 9.32-4.18 9.32-9.32z"/></g></g><g><g><path fill="#e9933e" d="M57.524 17.736l-3.32-1.189.633-1.77 3.32 1.188z"/></g></g><g><g><path fill="#e9933e" d="M34.506 17.736l-.633-1.77 3.32-1.19.634 1.771z"/></g></g></g></g></svg>