<svg xmlns="http://www.w3.org/2000/svg" width="59" height="77" viewBox="0 0 59 77"><g><g><g><path fill="#e9933e" d="M25.38 46.07l-1.672 1.694a57.48 57.48 0 0 1-.892.88l-.058.076c-5.389 5.06-12.11 8.17-19.432 9l-.76.088v-8.285l.588-.084c10.112-1.447 18.446-8.745 21.234-18.603a27.603 27.603 0 0 0 .878-4.798c.064-.72.098-1.376.101-2.028l.006-6.56H15.107L29.499 3.058 43.89 17.45H33.626v7.456h.04c.022.435.051.933.085 1.288.027.285.056.555.09.832a27.17 27.17 0 0 0 .634 3.26l.17.646c.148.519.31 1.016.485 1.512 3.242 9.123 11.178 15.636 20.715 16.999l.587.083v8.282l-.76-.088c-7.324-.827-14.042-3.94-19.372-8.943l-.276-.297a41.05 41.05 0 0 1-.73-.712l-1.668-1.688v28.968h-8.253zm10.197 4.688a35.653 35.653 0 0 0 19.874 8.902l2.933.334V47.832l-2.264-.322c-8.816-1.259-16.153-7.282-19.15-15.72a21.794 21.794 0 0 1-.442-1.376l-.164-.62a25.17 25.17 0 0 1-.588-3.01c-.029-.252-.056-.5-.081-.771a43.76 43.76 0 0 1-.116-2.055l-.002-4.556h13.025L29.499.298 10.395 19.402H23.42l-.004 4.6a21.359 21.359 0 0 1-.096 1.868c-.021.276-.055.545-.098.908-.044.355-.1.703-.164 1.066-.13.775-.302 1.548-.552 2.47-2.574 9.108-10.278 15.855-19.627 17.192l-2.264.322v12.166l2.931-.334c7.417-.841 14.248-3.894 19.881-8.916L23.422 77h12.155z"/></g></g></g></svg>