<svg xmlns="http://www.w3.org/2000/svg" width="92" height="64" viewBox="0 0 92 64"><g><g><g><g><path fill="#e9933e" d="M74.393 38.463a2.978 2.978 0 0 1-2.012-.747c-3.927-3.467-10.942-10.657-16.063-15.906a593.44 593.44 0 0 0-4.324-4.405c-1.307-1.306-6.052-.293-9.868.525-1.804.385-3.668.783-5.29.99-4.128.525-8.437-2.058-10.24-4.856-.902-1.4-1.058-2.723-.444-3.723 1.79-2.904 21.562-8.914 23.672-8.387.714.178 2.2.781 4.08 1.546 2.794 1.136 8.021 3.25 9.145 3.072.48-.26 4.12-3.355 7.269-6.171l1.3 1.454c-7.251 6.49-7.964 6.599-8.268 6.646-1.587.24-5.207-1.173-10.183-3.193-1.663-.676-3.234-1.316-3.812-1.458-2.023-.295-20.271 5.652-21.542 7.518-.191.308-.029.937.422 1.638 1.444 2.24 5.061 4.405 8.354 3.977 1.542-.195 3.283-.568 5.127-.962 4.938-1.058 9.601-2.055 11.658.004a599.232 599.232 0 0 1 4.341 4.423c5.1 5.227 12.086 12.386 15.958 15.804.17.15.426.314.958.242 4.06-.564 12.228-12.012 15.033-16.376l1.644 1.056C90.224 22.856 80.577 37.637 74.9 38.426a3.824 3.824 0 0 1-.508.037z"/></g></g><g><g><path fill="#e9933e" d="M46.707 58.735l-6.322-6.42 1.391-1.37 6.323 6.42z"/></g></g><g><g><path fill="#e9933e" d="M57.176 55.246L46.098 43.288l1.432-1.327 11.078 11.957z"/></g></g><g><g><path fill="#e9933e" d="M66.707 49.712L53.553 36.083l1.404-1.354L68.11 48.357z"/></g></g><g><g><path fill="#e9933e" d="M6.402 37.91a2.912 2.912 0 0 1-.859-2.07c0-.783.307-1.517.859-2.069l3.466-3.47c1.027-1.027 2.844-.76 4.228.622 1.382 1.384 1.65 3.2.625 4.228l1.38 1.38c.62-.62 1.374-.677 1.897-.61.807.102 1.633.54 2.328 1.233 1.382 1.381 1.647 3.198.623 4.225l1.38 1.38c.622-.623 1.38-.673 1.899-.607.808.1 1.633.537 2.326 1.23 1.382 1.384 1.65 3.199.623 4.227l1.38 1.38c.62-.622 1.374-.675 1.899-.609.808.102 1.634.539 2.326 1.232 1.382 1.382 1.65 3.199.625 4.226l-3.47 3.468a2.932 2.932 0 0 1-4.142 0zm21.464 22.203c1.251 0 2.5-.475 3.45-1.427l3.471-3.469c1.811-1.815 1.546-4.817-.625-6.985-.997-1-2.229-1.634-3.464-1.788a4.774 4.774 0 0 0-.956-.021c.125-1.48-.49-3.104-1.808-4.421-1-1-2.23-1.634-3.464-1.788a4.774 4.774 0 0 0-.959-.022c.127-1.477-.49-3.103-1.805-4.418-1-1-2.231-1.634-3.466-1.788a4.621 4.621 0 0 0-.957-.022c.125-1.48-.49-3.103-1.807-4.42-2.167-2.17-5.172-2.436-6.988-.623l-3.466 3.47a4.834 4.834 0 0 0-1.43 3.449c0 1.304.507 2.53 1.43 3.45l19.393 19.396a4.863 4.863 0 0 0 3.45 1.427z"/></g></g><g><g><path fill="#e9933e" d="M40.914 63.798c-1.798 0-3.543-.834-5.194-2.483l-4.204-4.22 1.388-1.372 4.196 4.212c1.436 1.435 2.904 2.063 4.331 1.878 1.803-.237 3.718-1.825 5.127-4.253l.467-.803.826.426c1.963 1.013 3.8.769 4.994.383 1.79-.574 3.39-1.89 4.177-3.428l.44-.857.862.426c2.545 1.257 4.641.216 5.662-.517 1.69-1.218 2.59-3.038 2.457-4.023l-.144-1.044 1.052-.063a6.71 6.71 0 0 0 5.703-3.868c1.011-2.17.713-4.583-.81-6.625l1.564-1.169c1.967 2.635 2.338 5.776 1.017 8.617a8.658 8.658 0 0 1-6.457 4.894c-.23 1.678-1.472 3.589-3.242 4.863-2.085 1.503-4.534 1.864-6.827 1.04-1.107 1.652-2.864 2.971-4.858 3.612-1.884.609-3.863.558-5.657-.135-1.686 2.559-3.874 4.169-6.1 4.458a5.7 5.7 0 0 1-.77.05z"/></g></g><g><g><path fill="#e9933e" d="M6.657 32c-.733-.893-2.027-2.648-2.65-4.57L0 23.274l1.405-1.354 4.335 4.495.068.23c.358 1.23 1.217 2.729 2.358 4.116z"/></g></g><g><g><path fill="#e9933e" d="M26.56 11.242l-7.022-7.027 1.38-1.38 7.022 7.027z"/></g></g><g><g><path fill="#e9933e" d="M9.983 42.85L8.58 41.491l6.126-6.332 1.403 1.357z"/></g></g><g><g><path fill="#e9933e" d="M9.983 42.85L8.58 41.491l6.126-6.332 1.403 1.357z"/></g></g><g><g><path fill="#e9933e" d="M16.212 49.078l-1.403-1.357 6.126-6.332 1.403 1.357z"/></g></g><g><g><path fill="#e9933e" d="M22.441 55.307l-1.403-1.357 6.126-6.332 1.403 1.357z"/></g></g></g></g></svg>