<svg xmlns="http://www.w3.org/2000/svg" width="90" height="57" viewBox="0 0 90 57"><g><g><g><g><path fill="#e9933e" d="M15.523 15.153l-1.769-.823c.836-1.798 5.061-10.821 5.992-11.928C20.892 1.048 22.803.103 24.398.103h40.988c1.596 0 3.509.947 4.649 2.3.933 1.106 5.157 10.13 5.994 11.927l-1.768.823c-2.41-5.168-5.204-10.88-5.717-11.494-.762-.898-2.147-1.604-3.158-1.604H24.398c-1.011 0-2.4.706-3.158 1.606-.512.611-3.31 6.324-5.717 11.492z"/></g></g><g><g><path fill="#e9933e" d="M26.35 31.332h-5.717a10.66 10.66 0 0 1-7.59-3.144l-1.047-1.045 1.38-1.38 1.048 1.045a8.718 8.718 0 0 0 6.209 2.572h5.716z"/></g></g><g><g><path fill="#e9933e" d="M24.398 56.705H10.735a2.931 2.931 0 0 1-2.928-2.927V45.97H9.76v7.807c0 .539.44.976.976.976h13.663a.978.978 0 0 0 .976-.976v-5.856h1.951v5.856a2.931 2.931 0 0 1-2.927 2.927z"/></g></g><g><g><path fill="#e9933e" d="M12.164 11.814l3.8 5.7 6.173 2.056 45.2.051 6.482-2.108 3.799-5.7h9.237c.537 0 .976.438.976.977v3.903c0 .54-.439.976-.976.976l-9.388 2.317 2.707 4.058a10.71 10.71 0 0 1 1.802 5.955v12.068a4.884 4.884 0 0 1-4.88 4.88h-64.41a4.884 4.884 0 0 1-4.879-4.88V29.999c0-2.128.623-4.185 1.804-5.955l2.703-4.058-9.15-2.287-.236-.03a.977.977 0 0 1-.976-.976V12.79c0-.539.439-.976.976-.976zm71.764 30.253V29.999c0-2.512-.736-4.946-2.13-7.036l-1.17-1.755 6.358-1.589a2.933 2.933 0 0 0 2.797-2.926V12.79a2.931 2.931 0 0 0-2.928-2.928H76.573l-4.007 6.012-5.387 1.795H22.604l-5.387-1.795-4.01-6.012H2.928A2.931 2.931 0 0 0 0 12.79v3.903a2.933 2.933 0 0 0 2.797 2.926l6.357 1.589-1.167 1.755a12.639 12.639 0 0 0-2.132 7.036v12.068a6.839 6.839 0 0 0 6.832 6.831h64.41a6.839 6.839 0 0 0 6.83-6.831z"/></g></g><g><g><path fill="#e9933e" d="M69.153 31.332h-5.72V29.38h5.72a8.84 8.84 0 0 0 6.208-2.572l1.045-1.045 1.38 1.38-1.045 1.045a10.802 10.802 0 0 1-7.588 3.144z"/></g></g><g><g><path fill="#e9933e" d="M79.048 56.705H65.386a2.931 2.931 0 0 1-2.928-2.927v-5.856h1.952v5.856c0 .539.439.976.976.976h13.662a.978.978 0 0 0 .976-.976V45.97h1.952v7.807a2.931 2.931 0 0 1-2.928 2.927z"/></g></g><g><g><path fill="#e9933e" d="M26.35 39.14v-1.952h37.084v1.952z"/></g></g></g></g></svg>